<svg id="Layer_1" data-name="Layer 1" xmlns="http://www.w3.org/2000/svg" viewBox="0 0 370 354"><defs><style>.cls-1{fill:#fff;}</style></defs><title>Artboard 1 copyiconos</title><path d="M138.29,219.44c.62,15.68-9.36,32.74-9.36,32.74h21s16.36-16.37,21-25.72,88.85-4.68,88.85-4.68,18.71,18.71,14,30.4h21C309.3,212,315.48,203.42,318.32,175c2.34-23.38-27.75-60.79-107.55-60.79-44.43,0-49.1,2.34-49.1,2.34s-8-9.95-16.37-21c-4.12-5.44-8.64-10.92-14-11.69-3.53-.5.07,8.88-7,9.36-25.72,1.73-80.83,7.24-77.16,42.08C51.78,179.7,136,161,138.29,219.44Z"/><circle class="cls-1" cx="117.24" cy="114.23" r="4.68"/><polygon points="164.64 230.61 178.61 249.84 196.74 249.84 180.37 212.43 164.64 230.61"/><polygon points="290.9 230.61 304.87 249.84 323 249.84 306.63 212.43 290.9 230.61"/></svg>