<?xml version="1.0" encoding="utf-8"?>
<!-- Generator: Adobe Illustrator 24.0.3, SVG Export Plug-In . SVG Version: 6.00 Build 0)  -->
<svg version="1.1" id="Layer_1" xmlns="http://www.w3.org/2000/svg" xmlns:xlink="http://www.w3.org/1999/xlink" x="0px" y="0px"
	 viewBox="0 0 335.5 307.5" style="enable-background:new 0 0 335.5 307.5;" xml:space="preserve">
<style type="text/css">
	.st0{fill:#7FFFD4;}
	.st1{fill:#999999;}
	.st2{fill:#666666;}
	.st3{fill:#CCCCCC;}
	.st4{fill:#333333;}
	.st5{clip-path:url(#SVGID_2_);}
	.st6{fill:#606060;}
	.st7{opacity:0.2;fill:#272727;enable-background:new    ;}
	.st8{opacity:0.4;}
</style>
<title>Artboard 3 copy 5</title>
<g>
	<g id="Layer_1_1_">
		<path class="st0" d="M67.2,63.4c-0.2,6.8-1.8,13.7-7.1,18.7c-9.6,8.5-24.3,7.7-32.8-1.8c-8.1-9.1-7.8-23,0.7-31.7
			c5.3-5,12.3-6.1,19-6.3c7.5-0.2,13.3-4.4,14.5-9c0.6-2.6,1.9-4.9,3.8-6.8c5.1-5.4,13.5-5.6,18.9-0.6c5.4,5.1,5.6,13.5,0.6,18.9
			c-0.3,0.3-0.6,0.6-1,0.9c-2,1.9-4.3,3.4-6.8,3.5C71.9,49.5,67.4,57.4,67.2,63.4z"/>
		<path class="st0" d="M223.6,187c1.7-4.2,3.8-8.2,6.3-12c5.6-7.8,15.1-13.5,19.5-21.8c4.9-9.3,2.2-19.2,5-28.9
			c4.7-15.9,23.2-27.9,28.7-43.8c4.8-13.9,3-27.6,13.8-40.4c3.7-4.4,8.1-8.6,11.1-13.4s4.3-10.8,1.6-14.8s-8.7-5-14.3-4.3
			c-16.8,2.2-25.5,14.8-29.2,28.4c-2.4,8.9-3.6,18.3-9.6,26.3c-7.8,10.4-21.8,15.8-30.7,25.5c-12.6,13.8-12,32.4-20.9,48.1
			c-9,16-27.6,34.2-30.4,51.9C190.6,188.4,207.1,188,223.6,187z"/>
		<path class="st1" d="M268.2,87.5L253,91.9L295.2,22c0.3-0.4,0.3-1.1-0.2-1.4c-0.1-0.1-0.2-0.1-0.3-0.1c-0.7-0.2-1.4,0.1-1.8,0.7
			L281.4,40V29.3c0-0.6-0.5-1-1.1-1c-0.1,0-0.2,0-0.3,0c-0.7,0.1-1.3,0.7-1.3,1.4v14.7l-42.5,70.5l0.7-9.8c0.1-0.5-0.3-1-0.9-1.1
			c-0.1,0-0.2,0-0.4,0c-0.7,0.1-1.3,0.6-1.4,1.3l-1,14.5l-9.7,16.1l1.6-31.4c0-0.6-0.4-1-1-1c-0.1,0-0.2,0-0.3,0
			c-0.7,0.1-1.3,0.6-1.4,1.3l-1.8,35.8l-8.4,13.8l0,0L201.6,172c-0.3,0.4-0.3,1.1,0.2,1.4c0.1,0.1,0.2,0.1,0.3,0.1l0.2,0.1
			c0.6,0.1,1.3-0.2,1.6-0.8l10.3-17.1l24.8-9.6c0.7-0.2,1.1-0.9,1-1.6c-0.2-0.6-0.9-0.9-1.5-0.7h-0.1l-22.2,8.6l35.1-58.1h0.1
			c0.2,0,0.4,0,0.6,0l16.5-4.7c0.7-0.2,1.2-0.8,1.1-1.5c-0.1-0.6-0.7-1-1.3-0.9C268.3,87.4,268.3,87.5,268.2,87.5z"/>
		<path class="st2" d="M313.6,66.8c-4.7,2.8-1.5,12.4-5.2,16.7c-3.5,4-8,3.7-11.5,7.6c-6.6,7.5-3,22.1-7.6,31.5
			c-3.6,7.2-11.4,10.1-15.1,17.2c-6.1,11.9,1.7,30.9-5.1,42.2c-3.3,5.4-9.2,7.8-13.4,12.3c-2.4,2.9-4.5,6.1-6.1,9.5
			c-0.1-10.9-1.2-21.8-3.3-32.6c-1.1-6.1-2.6-12.7-0.6-18c1.1-3,3.3-5.3,4.7-8c3.8-7.2,2.8-17.1,2.4-26.1s0.6-19.2,6.9-23.6
			c2.4-1.7,5.2-2.3,7.7-3.9c5.5-3.5,7.9-10.8,10.6-17.3s6.8-13.2,13.3-13.8c4.1-0.4,9.2,1.7,12.1-1.3c1.8-1.8,2.1-5.1,4-6.8
			c4.3-4.1,13,0.2,17.4-1.3C320.2,54.1,323.7,60.9,313.6,66.8z"/>
		<path class="st3" d="M252.4,188.7L252.4,188.7c-0.3-0.1-0.6-0.4-0.6-0.7c-0.4-19.1,2.3-38.1,8-56.2l-6.8-21.1
			c0.1-0.8,0.2-1.7,0.3-2.5l7,21.9c2.2-6.6,4.8-13,7.8-19.3l0,0c0.9-1.8,1.8-3.6,2.7-5.3c4.2-8,9.1-15.5,14.8-22.6
			c-0.8-5-1.6-11.6-2.3-17.6c0.3-0.4,0.6-0.7,1-1c0.7,5.8,1.5,12.4,2.2,17.5c0.6-0.7,1.1-1.4,1.7-2.1c-0.6-6.8-0.8-12.9-0.8-17.8
			c0.4-0.2,0.7-0.4,1.1-0.5c0,4.7,0.2,10.6,0.7,17.2c9.4-11,20.8-20.1,33.6-27c0.7,0,1.4-0.1,2-0.3c-0.7,0.4-1.2,1-1.6,1.6
			c-6.1,3.3-12,7.1-17.4,11.5l10.8,0.5c-0.5,0.4-1,0.8-1.6,1.2l-10.7-0.4c-5.4,4.5-10.5,9.5-15.1,14.9c0,0,0,0.1-0.1,0.1
			c-0.9,1-1.7,2-2.5,3.1c0,0,0,0.1-0.1,0.1c-5.6,7-10.6,14.6-14.8,22.6c-0.7,1.3-1.4,2.7-2,4l22.6-4.8l-0.1,1.4l-23.2,5
			c-3.2,6.6-5.9,13.5-8.1,20.5v0.1c-5.7,18.1-8.4,37-8,55.9C252.9,188.5,252.6,188.7,252.4,188.7z"/>
		<path class="st0" d="M54.6,161.7C41.2,147.3-3.6,162.9,4,187.9c4.1,13.3,9.1,12.9,14,21.1s-0.4,21.8,7.1,26.4
			c6,3.7,10.7,4.6,13.7,8.2c3.3,4,4.3,10.6,5,14.3c2.8,14.7,23.2,30.5,36.8,8.2S93,220.4,98.3,216C96.8,212.6,52.7,157.4,54.6,161.7
			z M49.9,233.9L49.9,233.9z M49.4,234.7c0.1,0,0.2,0,0.3,0c0,0.1,0,0.2,0,0.2C49.6,234.9,49.5,234.9,49.4,234.7
			C49.3,234.8,49.3,234.7,49.4,234.7L49.4,234.7L49.4,234.7z M52.8,242.5c0,0,0.1,0,0.1,0.1c0,0,0,0.1,0,0.2h-0.1
			C52.7,242.6,52.7,242.5,52.8,242.5L52.8,242.5z M50.5,239.6C50.5,239.6,50.5,239.5,50.5,239.6C50.5,239.5,50.6,239.5,50.5,239.6
			C50.6,239.7,50.5,239.6,50.5,239.6L50.5,239.6z M52.5,240.1c-0.1,0-0.1,0-0.2-0.1s0.1-0.1,0.1-0.1C52.5,240,52.5,240,52.5,240.1
			L52.5,240.1L52.5,240.1z M52.3,239.9L52.3,239.9c-0.1-0.1-0.1-0.1,0-0.1S52.4,239.9,52.3,239.9L52.3,239.9z M56,246L56,246L56,246
			L56,246z M55.8,245.8c-0.1,0-0.2-0.1-0.2-0.1s-0.1,0-0.2,0c-0.1-0.1-0.1-0.1-0.1-0.2c0-0.1,0.1-0.1,0.2-0.1c0.1,0,0.2,0.1,0.3,0.1
			l0.2,0.2c0,0.1,0,0.1,0,0.1C55.8,245.8,55.8,245.8,55.8,245.8L55.8,245.8z M56.2,246.2L56.2,246.2L56.2,246.2L56.2,246.2z
			 M53.4,240.6c-0.1,0.1-0.1,0.1-0.2,0c0-0.1,0-0.2,0-0.3s0.1-0.1,0.2-0.1C53.4,240.3,53.4,240.4,53.4,240.6L53.4,240.6z M52,237.4
			c-0.1,0-0.1,0-0.2,0c0-0.1,0-0.1,0.1-0.1s-0.1-0.1,0-0.1S52,237.2,52,237.4z M50.1,233.4L50.1,233.4L50.1,233.4
			C50.1,233.4,50.2,233.5,50.1,233.4L50.1,233.4z M14.2,180.2l-0.2,0.1c-0.2,0-0.3-0.1-0.4-0.2c-0.1-0.2-0.1-0.4,0.1-0.5
			c0.1,0,0.2,0,0.3,0C14.2,179.8,14.1,180,14.2,180.2z M55.5,239.7L55.5,239.7z M53.5,235.7c0.2,0,0.2,0.2,0.3,0.2
			c0.1,0.1,0.1,0.2,0,0.2s-0.2,0.1-0.2,0l0,0C53.4,236,53.4,235.8,53.5,235.7L53.5,235.7z M55.6,240.5L55.6,240.5L55.6,240.5z
			 M49.2,229.7c0.1,0.1,0,0.2,0,0.3s0.1,0.1,0.1,0.2h-0.1l0,0L49,230c-0.1-0.1-0.1-0.2,0-0.3C49,229.7,49,229.7,49.2,229.7
			L49.2,229.7z M51.3,235.5c0,0-0.1-0.1,0-0.1S51.4,235.4,51.3,235.5L51.3,235.5z M53.8,240.2L53.8,240.2z M50.7,234.2L50.7,234.2
			L50.7,234.2L50.7,234.2C50.8,234.2,50.8,234.2,50.7,234.2L50.7,234.2z M55.7,243.7v-0.1c0,0,0,0,0.1,0l0,0
			C55.9,243.8,55.8,243.8,55.7,243.7L55.7,243.7z M54.2,236v-0.1C54.2,235.9,54.3,235.9,54.2,236C54.3,236.1,54.2,236.1,54.2,236z
			 M44.3,215c-0.1,0-0.1,0-0.2,0c0-0.1,0-0.1,0.1-0.1s-0.1-0.1,0-0.2S44.4,214.9,44.3,215L44.3,215z M14.7,182.7
			c-0.1,0.1-0.3,0.1-0.4,0.1l-0.1-0.2l-0.2-0.1l0.2,0.1c0.2-0.1,0.3-0.2,0.5-0.1C14.7,182.6,14.7,182.7,14.7,182.7z M8.4,163.3
			l0.1,0.1c0,0,0,0.1,0.1,0.1c0,0.1-0.1,0.1-0.2,0.1S8.3,163.4,8.4,163.3z M6.9,159.1c-0.3-0.1-0.3-0.1-0.4-0.4
			c0.1-0.1,0.3,0,0.4,0.1C7,158.8,7,159,6.9,159.1z M23.3,191c0,0.1,0,0.3-0.1,0.4c-0.1,0.1-0.1,0-0.2,0c-0.1-0.1,0-0.3,0.1-0.4
			c0,0,0,0,0.1,0H23.3z M12.3,173.5c-0.1,0.2-0.1,0.4-0.3,0.3s-0.1-0.1-0.3-0.4l0.2-0.5c0.1,0,0.2,0,0.3,0.2S12.3,173.4,12.3,173.5
			L12.3,173.5z M5.1,185.5c-0.1,0-0.2,0-0.2-0.1s0-0.1,0-0.2s0.1,0,0.2,0l0.1,0.2C5.2,185.4,5.2,185.5,5.1,185.5
			C5.2,185.5,5.2,185.5,5.1,185.5L5.1,185.5z M23,192.3L23,192.3L23,192.3L23,192.3z M5.2,184c0,0.1,0,0.2-0.1,0.2s-0.2,0-0.2-0.1
			c-0.1-0.1-0.1-0.2-0.1-0.3s0.1-0.1,0.2-0.1C5.1,183.8,5.2,183.9,5.2,184z M16.7,173.1c0-0.1-0.1-0.2-0.1-0.2c-0.1,0-0.2,0.1-0.4,0
			c-0.1-0.3,0.4,0,0.2-0.3l0.4,0.1l0.3-0.3c0.1,0.2,0.1,0.4,0.1,0.6l-0.2,0.3C17,173.3,16.9,173.1,16.7,173.1L16.7,173.1z
			 M14.2,168.6L14.2,168.6L14.2,168.6z M7.1,185.2c0,0-0.1,0-0.1-0.1S7.1,185.1,7.1,185.2z M17,171.1c0.1-0.2,0.2-0.1,0.3,0
			C17.2,171.2,17.2,171.2,17,171.1z M57,231.9L57,231.9C57,232.1,56.9,232,57,231.9z M77.1,240.6C77.1,240.5,77.1,240.5,77.1,240.6
			l0.1-0.1C77.2,240.6,77.3,240.7,77.1,240.6C76.9,240.7,77.1,240.6,77.1,240.6L77.1,240.6z M58.2,230.7L58.2,230.7
			c-0.1-0.1-0.1-0.1-0.1-0.2l0.1-0.1c0.1,0,0.1,0.1,0.2,0.1C58.3,230.6,58.2,230.6,58.2,230.7L58.2,230.7z M58.2,230.8
			c0,0.1,0,0.2,0,0.3c-0.1,0.1-0.1,0.1-0.2,0c0-0.1,0-0.1,0-0.2C58,230.8,58.1,230.7,58.2,230.8L58.2,230.8z M58.5,231.9L58.5,231.9
			C58.4,231.8,58.4,231.9,58.5,231.9L58.5,231.9c0,0,0.1,0,0.1,0.1v0.1c-0.1,0-0.1,0-0.2-0.1s0,0,0,0S58.4,231.9,58.5,231.9
			L58.5,231.9z M9.7,185.6c-0.1-0.1,0-0.1,0-0.2S9.7,185.5,9.7,185.6z M7.5,181.2C7.5,181.2,7.5,181.1,7.5,181.2
			C7.6,181.3,7.5,181.2,7.5,181.2L7.5,181.2z M7.9,181.2C8,181,8,180.9,8.3,181c0,0,0.1,0.1,0.1,0.2l-0.1,0.1
			C8.2,181.3,8.1,181.3,7.9,181.2C8,181.3,7.9,181.2,7.9,181.2L7.9,181.2z M9.3,183.5C9.3,183.5,9.3,183.4,9.3,183.5
			C9.4,183.5,9.4,183.5,9.3,183.5L9.3,183.5z M9.5,182.8L9.5,182.8L9.3,183c-0.1,0-0.2-0.1-0.3-0.2c0-0.1,0-0.1,0-0.2
			c0.1,0,0.1-0.1,0.2-0.1c0.1,0,0.2,0.1,0.3,0.2V182.8L9.5,182.8z M9.4,182.2c-0.1,0-0.2,0-0.3-0.1S9,182,9,181.9h0.1l0.1,0.2
			C9.3,182.1,9.4,182.2,9.4,182.2L9.4,182.2z M8.6,180.1c-0.1,0-0.2-0.1-0.3-0.1c0-0.1,0.1-0.1,0.2-0.1C8.5,179.9,8.6,180,8.6,180.1
			L8.6,180.1L8.6,180.1z M8.7,178.1c-0.1,0-0.1-0.1-0.1-0.2C8.7,177.9,8.7,178,8.7,178.1L8.7,178.1z M10.3,179.5
			c-0.1,0-0.1-0.1-0.1-0.1c0-0.1,0-0.1,0.1-0.1h0.1C10.4,179.3,10.4,179.4,10.3,179.5L10.3,179.5z M10.8,180L10.8,180
			C10.6,179.9,10.7,180,10.8,180C10.7,180,10.7,180,10.8,180L10.8,180z M13.3,181.4L13.3,181.4C13.2,181.5,13.2,181.4,13.3,181.4
			C13.3,181.3,13.3,181.3,13.3,181.4L13.3,181.4z M54.4,266c-0.1-0.1-0.1-0.2,0-0.3h0.1c0.1,0.1,0.2,0.1,0.2,0.3
			C54.6,266.1,54.5,266.1,54.4,266z M14.4,182.3c-0.1,0-0.1,0-0.2-0.1c0.1-0.1,0.1-0.1,0.2,0S14.5,182.3,14.4,182.3L14.4,182.3z
			 M15.9,184.4C15.9,184.4,15.8,184.4,15.9,184.4c-0.1-0.1-0.1-0.1-0.1-0.1C15.9,184.3,16,184.3,15.9,184.4
			C16,184.4,15.9,184.4,15.9,184.4L15.9,184.4z M54.4,261.6c0.1,0,0.2,0.1,0.3,0.1c0,0,0.1,0.1,0.1,0.2s-0.1,0.1-0.2,0.1
			c-0.1,0-0.2-0.1-0.2-0.2C54.3,261.7,54.3,261.7,54.4,261.6L54.4,261.6z M54,261.3L54,261.3L54,261.3z M15.1,181.7L15.1,181.7
			L15.1,181.7C15.1,181.6,15.1,181.6,15.1,181.7C15.2,181.6,15.1,181.7,15.1,181.7z M15.5,181.7c-0.1,0-0.1,0-0.1-0.1l0,0
			c0.1-0.1,0.2,0,0.3,0C15.6,181.7,15.6,181.7,15.5,181.7L15.5,181.7z M50.9,224.3v0.1c0,0.1-0.1,0.1-0.2,0.2s0,0,0,0
			c0-0.1,0-0.2,0-0.3l-0.1-0.1c0-0.1,0-0.1,0.1-0.1s0.1,0,0.1,0.1L50.9,224.3z M52,224.6L52,224.6L52,224.6L52,224.6L52,224.6z
			 M57.8,262.9L57.8,262.9c0,0,0.1-0.1,0.2-0.1l0.4,0.2c0,0.1-0.1,0.1-0.1,0.1C58.1,263.1,57.9,263,57.8,262.9L57.8,262.9z
			 M57.8,262.7c-0.1,0-0.2,0-0.2-0.1l0,0c0,0,0-0.1,0.1-0.1C57.8,262.5,57.8,262.6,57.8,262.7L57.8,262.7z M53.3,223.7
			c-0.1-0.1-0.1-0.2,0-0.3c0,0,0.1,0,0.2,0C53.5,223.6,53.3,223.6,53.3,223.7L53.3,223.7z M54.8,257L54.8,257
			C54.9,257,54.8,257.1,54.8,257L54.8,257z M54.6,257.4c0.2,0.1,0.1,0.2,0.2,0.3C54.6,257.7,54.5,257.6,54.6,257.4
			C54.5,257.4,54.5,257.5,54.6,257.4L54.6,257.4z M52.9,222L52.9,222C52.9,221.9,52.9,221.9,52.9,222L52.9,222z M54.1,223
			c0,0.2-0.1,0.4-0.2,0.5h-0.1h-0.1v-0.1c0-0.1,0.1-0.2,0.2-0.3c0-0.1,0-0.2,0-0.3S54.1,222.9,54.1,223z M54.8,222.8
			c0,0.1-0.1,0-0.2,0.1c-0.1,0-0.1-0.1-0.1-0.1l-0.2-0.2c0.1-0.1,0.1-0.1,0.3,0v0.1C54.7,222.7,54.8,222.7,54.8,222.8L54.8,222.8z
			 M54.2,254.9c0,0.2,0,0.2-0.2,0.2h-0.1l-0.2-0.2C53.8,254.8,54,254.9,54.2,254.9L54.2,254.9z M55.5,223c0,0.1-0.1,0.1-0.1,0.2
			c-0.1,0-0.2,0-0.2-0.1s0-0.2,0-0.2s0.1-0.1,0.2-0.1C55.4,222.8,55.5,222.9,55.5,223z M54.9,222.2L54.9,222.2L54.9,222.2z
			 M55.6,255.8c-0.1,0.2-0.3,0.3-0.4,0.4c0.1-0.3,0.2-0.6,0.4-0.8C55.7,255.6,55.7,255.7,55.6,255.8L55.6,255.8z M55.7,255.4
			L55.7,255.4L55.7,255.4z M55.4,221.9h-0.2c0.1-0.2,0.1-0.3,0.3-0.3C55.5,221.7,55.4,221.8,55.4,221.9L55.4,221.9z M58.1,255.3
			c-0.1-0.1-0.1-0.2-0.1-0.3s0-0.2,0-0.3l0,0C58.2,255.1,58.2,255.1,58.1,255.3L58.1,255.3z M52.6,252.2c-0.1,0.1-0.1,0.1-0.3,0.1
			c-0.1-0.1-0.2-0.2-0.2-0.3h0.1l0.1,0.1C52.4,252.1,52.5,252.1,52.6,252.2L52.6,252.2z M38.3,255.6L38.3,255.6L38.3,255.6
			C38.4,255.5,38.3,255.6,38.3,255.6L38.3,255.6c0.1,0.1,0.2,0.1,0.2,0.2l0,0v0.1l0,0l0,0l0,0l0,0v-0.1l0,0
			C38.3,255.8,38.3,255.7,38.3,255.6L38.3,255.6L38.3,255.6L38.3,255.6c0,0.1,0,0.1,0,0.1l0,0c-0.1,0,0,0,0,0
			C38.2,255.7,38.2,255.6,38.3,255.6L38.3,255.6L38.3,255.6C38.2,255.5,38.2,255.5,38.3,255.6L38.3,255.6L38.3,255.6L38.3,255.6z
			 M38.2,255.2l-0.1-0.1l0,0V255v0.1l0,0c0.1,0,0.1,0,0.2,0C38.3,255.1,38.3,255.2,38.2,255.2L38.2,255.2z M39.8,254.3
			c0.1,0,0.1,0.1,0.1,0.1c-0.1,0.1-0.1,0.2-0.2,0.3c-0.2,0-0.2,0-0.3-0.2C39.5,254.4,39.6,254.3,39.8,254.3L39.8,254.3z M51,246.9
			L51,246.9c0.1,0.1,0.2,0.2,0.2,0.2C50.9,247.1,50.9,247.1,51,246.9L51,246.9L51,246.9z M60.6,252.1c-0.1-0.1-0.1-0.1,0-0.1
			s0.1,0,0.2,0C60.7,252.1,60.6,252.1,60.6,252.1L60.6,252.1z M55.6,248.5c0,0.1-0.1,0.2-0.1,0.3h-0.3c0-0.2-0.2-0.2-0.4-0.4
			c0.2-0.1,0.4-0.1,0.6-0.1C55.5,248.4,55.6,248.4,55.6,248.5L55.6,248.5z M55.6,248.3c-0.1,0-0.1-0.1-0.2-0.2c0-0.1,0-0.2,0.1-0.2
			h0.1c0,0,0.2,0.1,0.2,0.3S55.8,248.3,55.6,248.3L55.6,248.3z M54.4,247.1C54.3,247.1,54.3,247,54.4,247.1
			c-0.1-0.1-0.1-0.2-0.1-0.2l0,0l0,0l0,0l0,0c0.1,0,0.1-0.1,0.2-0.1l0,0c0,0.1,0.1,0.1,0.1,0.2C54.5,246.9,54.4,247,54.4,247.1
			L54.4,247.1z M56.2,247.3L56.2,247.3C56.3,247.3,56.3,247.3,56.2,247.3c0.1,0,0.1,0,0.1,0.1C56.2,247.4,56.2,247.4,56.2,247.3
			C56.2,247.4,56.2,247.4,56.2,247.3L56.2,247.3z M56.1,244.6L56.1,244.6L56.1,244.6z M56.5,244.6C56.4,244.6,56.4,244.6,56.5,244.6
			C56.4,244.6,56.5,244.6,56.5,244.6L56.5,244.6z M54.6,243.7c0,0.1-0.1,0.1-0.1,0.1L54.6,243.7C54.5,243.7,54.5,243.7,54.6,243.7
			L54.6,243.7z M59.6,245.7c0,0.1-0.1,0.1-0.2,0.1c-0.1,0-0.1-0.1-0.2-0.2c0-0.1,0.1-0.1,0.1-0.2C59.5,245.5,59.6,245.6,59.6,245.7
			L59.6,245.7z M58.7,244.1L58.7,244.1c-0.2,0-0.3,0-0.4,0.1c-0.1,0.1-0.2,0.1-0.3,0.1l0,0l0,0l0,0c0-0.1,0-0.1,0-0.2
			c0-0.1,0-0.2,0.1-0.2c0.1-0.1,0.2,0.1,0.3,0s0-0.1,0-0.2C58.6,243.9,58.7,244,58.7,244.1L58.7,244.1z M54.2,242.1v0.1
			c-0.1,0-0.2,0-0.2-0.1S54.1,242,54.2,242.1L54.2,242.1L54.2,242.1z M18.3,185.4v0.1c0,0,0,0-0.1,0c-0.1-0.1-0.1-0.2,0-0.4
			C18.2,185.3,18.3,185.3,18.3,185.4z M53.8,242L53.8,242c0,0.1,0,0.1-0.1,0.2l-0.5,0.1c-0.1-0.1,0-0.1,0-0.2
			C53.5,242,53.7,242,53.8,242z M19.3,185.5C19.3,185.4,19.4,185.4,19.3,185.5c0.1-0.1,0.2-0.1,0.1,0S19.4,185.5,19.3,185.5z
			 M54.9,241.6c-0.1,0-0.2,0-0.3,0l-0.1-0.1h0.1h0.3V241.6z M48.8,235.7c-0.1,0-0.1-0.1-0.2-0.1c0-0.1,0-0.2,0-0.3H49
			c0.1,0.1,0.2,0.2,0.2,0.3S48.9,235.8,48.8,235.7L48.8,235.7z M51.9,236.7L51.9,236.7C51.9,236.8,51.9,236.8,51.9,236.7
			c-0.1,0.2-0.1,0.2-0.2,0.2c-0.1,0-0.1,0-0.1-0.1s0-0.1,0.1-0.2c-0.1-0.1,0-0.2,0-0.3c0,0.1,0,0.2,0,0.3L51.9,236.7z M47.3,234
			c0.3,0,0.3,0.1,0.3,0.3c0,0.1-0.1,0.1-0.2,0.1c0,0-0.1,0-0.1-0.1C47.3,234.3,47.2,234.1,47.3,234z M45.8,233.5L45.8,233.5
			L45.8,233.5C45.8,233.4,45.8,233.4,45.8,233.5L45.8,233.5l0.1,0.1c0,0.1,0,0.1,0,0.2c0,0-0.1,0.1-0.2,0S45.8,233.6,45.8,233.5
			L45.8,233.5z M20.8,184.8c0.1-0.1,0.1-0.1,0.2,0s0,0.1,0,0.1C21,184.9,20.9,184.9,20.8,184.8L20.8,184.8z M21.1,185.6L21.1,185.6
			L21.1,185.6L21.1,185.6z M47.7,236.8c0.1,0,0.1,0.1,0.2,0.1s0,0.2-0.1,0.2h-0.2C47.6,237,47.7,236.9,47.7,236.8L47.7,236.8z
			 M49,237.6c0,0,0-0.1,0.1-0.1s0.1,0.1,0.1,0.1s-0.1,0.1-0.2,0.1S49.1,237.7,49,237.6L49,237.6z M53.5,239.9h0.2
			c0.1,0,0.2,0.1,0.2,0.2c0,0.1,0.1,0.2-0.1,0.3s-0.4-0.1-0.4-0.3L53.5,239.9z M20,185.3L20,185.3L20,185.3L20,185.3L20,185.3z
			 M51,239.3L51,239.3c0,0,0.1-0.1,0.2-0.2C51.2,239.2,51.2,239.3,51,239.3C51.1,239.3,51,239.3,51,239.3L51,239.3z M44.3,237.3
			L44.3,237.3C44.3,237.3,44.3,237.2,44.3,237.3L44.3,237.3z M21.3,186.7c0,0,0-0.1,0-0.2C21.4,186.6,21.4,186.6,21.3,186.7
			L21.3,186.7z M18.8,184.3L18.8,184.3L18.8,184.3C18.8,184.4,18.8,184.3,18.8,184.3C18.7,184.3,18.7,184.3,18.8,184.3
			C18.8,184.3,18.8,184.2,18.8,184.3L18.8,184.3z M20.8,187.5L20.8,187.5L20.8,187.5C20.8,187.5,20.7,187.5,20.8,187.5L20.8,187.5z
			 M19.1,186.9h0.1c0,0.1,0,0.1-0.1,0.2S19.1,187,19.1,186.9L19.1,186.9z M58.9,247.5L58.9,247.5L58.9,247.5L58.9,247.5
			c0,0.2-0.1,0.3-0.2,0.4c-0.1,0.1-0.3,0.1-0.4,0.1c-0.2-0.1-0.3-0.2-0.5-0.4v-0.1c0-0.1,0.1-0.1,0.2-0.1c0.1,0.1,0.1,0.3,0.2,0.4
			c0.1,0,0.1,0,0.2,0C58.7,247.7,58.8,247.6,58.9,247.5L58.9,247.5z M57.9,247.1c-0.1,0-0.2,0-0.2,0C57.8,247,57.8,247,57.9,247.1
			L57.9,247.1z M55.9,246.3L55.9,246.3c0.1,0.1,0.1,0.2,0.1,0.3C55.9,246.5,55.9,246.4,55.9,246.3L55.9,246.3z M20,187.7
			c0-0.1,0-0.1,0.1-0.1C20.1,187.6,20.1,187.6,20,187.7L20,187.7L20,187.7L20,187.7z M56.8,262.6c0.1,0,0.2,0.1,0.3,0.2v0.1H57
			L56.8,262.6C56.7,262.6,56.7,262.6,56.8,262.6L56.8,262.6z M16.1,180.2c-0.1,0-0.1,0-0.1-0.1S16.1,180.1,16.1,180.2z M56.6,264.3
			c0-0.1,0.1-0.2,0.2-0.1s0.2,0.3,0.1,0.5h-0.2l-0.1-0.1C56.6,264.5,56.6,264.4,56.6,264.3z M55,261.8c0,0.1,0,0.1,0,0.2
			c-0.1-0.1-0.2-0.2-0.2-0.3C54.9,261.8,54.9,261.8,55,261.8L55,261.8z M68.9,268.8c0.1,0,0.1-0.1,0.1-0.1c0.3,0,0.5,0.2,0.7,0.4
			c0,0.2,0.1,0.4,0,0.6h-0.1c-0.2-0.2-0.4-0.4-0.6-0.5C68.8,269,68.8,268.9,68.9,268.8L68.9,268.8z M69.3,269.9
			c0.1,0.2,0.2,0.4,0.2,0.6c-0.2,0.2-0.3,0.2-0.6-0.1C69,270.2,69.1,270,69.3,269.9L69.3,269.9z M68.2,271.4c0.2,0.2,0.2,0.2,0,0.4
			C68.1,271.6,68.1,271.5,68.2,271.4L68.2,271.4z M72.7,237.5c0.1-0.1,0.2,0,0.2,0v0.1h-0.1C72.8,237.6,72.7,237.6,72.7,237.5
			L72.7,237.5z M69.7,241.5L69.7,241.5L69.7,241.5C69.8,241.4,69.7,241.4,69.7,241.5L69.7,241.5c0,0.1,0.1,0.2,0,0.3
			C69.7,241.7,69.6,241.6,69.7,241.5L69.7,241.5z M68.4,240.1L68.4,240.1c0-0.1,0-0.2,0.1-0.2c0,0,0.1,0,0.1,0.1
			C68.6,240.1,68.5,240.1,68.4,240.1L68.4,240.1C68.4,240.2,68.4,240.2,68.4,240.1C68.3,240.2,68.3,240.1,68.4,240.1L68.4,240.1z
			 M68.6,240.8L68.6,240.8C68.5,240.7,68.5,240.7,68.6,240.8L68.6,240.8z M57.1,232.3L57.1,232.3c0.1,0.2,0.1,0.2,0,0.3l-0.1-0.1
			C57,232.4,57,232.4,57.1,232.3L57.1,232.3z M56.1,232.7L56.1,232.7c0,0.1-0.1,0.1-0.1,0.1C55.9,232.7,56,232.6,56.1,232.7
			L56.1,232.7z M55.7,232.2L55.7,232.2C55.6,232.2,55.7,232.2,55.7,232.2L55.7,232.2z M56.4,233.7c0-0.1,0-0.1,0.1-0.2
			C56.6,233.6,56.5,233.6,56.4,233.7L56.4,233.7C56.3,233.7,56.4,233.7,56.4,233.7L56.4,233.7z M56.3,234
			C56.3,234,56.3,234.1,56.3,234C56.2,234,56.2,234,56.3,234L56.3,234z M53.6,232.3c0.1,0,0.2,0.1,0.2,0.2v0.1c0,0,0,0.1-0.1,0.1
			h-0.1l-0.1-0.1C53.5,232.4,53.5,232.3,53.6,232.3L53.6,232.3z M80,240.9L80,240.9L80,240.9z M68.5,238.4c0.2,0,0.2,0.2,0.3,0.3
			s0,0.2,0,0.3s-0.2,0-0.3,0C68.4,238.8,68.3,238.6,68.5,238.4L68.5,238.4z M80.5,242.7L80.5,242.7L80.5,242.7z M73,233.5
			c0,0,0.1,0,0,0.1S72.9,233.6,73,233.5L73,233.5z M56.8,270.2c-0.1,0-0.1,0-0.2-0.1c0-0.1,0-0.2,0-0.3c0-0.1,0.1-0.1,0.1-0.1
			c0.1,0,0.2,0.1,0.2,0.2C57,270,56.9,270.1,56.8,270.2z M56.8,270.3c0,0.1,0,0.2,0,0.3c-0.1,0.1-0.2,0.1-0.3,0l0,0
			c0-0.1,0-0.2,0-0.2C56.6,270.2,56.7,270.2,56.8,270.3z M74.8,233.4L74.8,233.4C74.7,233.4,74.7,233.4,74.8,233.4L74.8,233.4
			c0.1,0,0.1,0,0.1,0.1s0,0.1,0,0.2c-0.1,0-0.1,0-0.2-0.1S74.7,233.5,74.8,233.4C74.7,233.5,74.8,233.5,74.8,233.4L74.8,233.4z
			 M36.5,219.6c0.1,0,0.2,0,0.2,0.1v0.1c0,0.1-0.1,0.1-0.1,0.1c-0.1,0-0.2-0.1-0.2-0.1C36.3,219.7,36.4,219.6,36.5,219.6z
			 M36.2,219.3L36.2,219.3L36.2,219.3z M37,219.8c0,0.1,0,0.1,0,0.2C36.9,219.9,36.9,219.9,37,219.8C36.9,219.7,37,219.7,37,219.8
			L37,219.8z M73.1,234L73.1,234c0.1,0.4,0.1,0.4-0.1,0.4l-0.1-0.1C72.9,234.1,72.9,234.1,73.1,234z M71.7,234.5L71.7,234.5
			c-0.1,0.1-0.1,0.1-0.2,0.1C71.5,234.4,71.6,234.4,71.7,234.5L71.7,234.5z M71.3,233.9L71.3,233.9
			C71.1,233.9,71.2,233.8,71.3,233.9L71.3,233.9z M72.2,235.8c0-0.1,0-0.2,0.1-0.2C72.3,235.7,72.3,235.8,72.2,235.8L72.2,235.8
			C72.1,235.8,72.2,235.8,72.2,235.8L72.2,235.8z M72,236.3L72,236.3C71.9,236.2,72,236.2,72,236.3L72,236.3z M68.5,234
			c0.1,0,0.2,0.1,0.2,0.2v0.1c0,0.1-0.1,0.1-0.1,0.1h-0.1l-0.2-0.1C68.4,234.1,68.4,234,68.5,234z M41.3,221.2L41.3,221.2
			L41.3,221.2z M45.1,213.5c0.1,0,0.1,0,0.1,0.1s0,0.1,0,0.2c0,0-0.1,0-0.2,0C45,213.7,45,213.6,45.1,213.5z M43.7,225.4
			c-0.1,0-0.1,0-0.2,0c0-0.1,0-0.1,0.1-0.1s-0.1-0.1,0-0.1S43.8,225.1,43.7,225.4z M41.5,220.7L41.5,220.7L41.5,220.7
			C41.5,220.7,41.6,220.7,41.5,220.7z M62,251c0,0.1,0,0.1-0.1,0.1s-0.2,0-0.2,0c-0.1,0-0.2-0.1-0.1-0.2c0-0.1,0.1-0.1,0.1-0.1
			S61.8,251,62,251z M45.5,223.4c0.2,0,0.2,0.2,0.3,0.2s0,0.2,0,0.2c-0.1,0.1-0.2,0.1-0.2,0C45.4,223.7,45.4,223.5,45.5,223.4z
			 M17.3,187L17.3,187z M43,223.1l-0.1-0.1l0,0C43,223,43,223,43,223.1z M42.3,221.6L42.3,221.6C42.3,221.5,42.3,221.5,42.3,221.6
			L42.3,221.6C42.4,221.6,42.3,221.6,42.3,221.6L42.3,221.6z M63.1,252c0,0.1-0.1,0.2-0.1,0.2h-0.1h-0.1l0.1-0.1
			c0-0.1,0-0.2,0.2-0.2C63,251.9,63.1,252,63.1,252z M53.4,245.7L53.4,245.7l0.2,0.1c0,0.1,0,0.1,0,0.1S53.4,245.8,53.4,245.7
			L53.4,245.7z M51.3,244.4c-0.2,0.1-0.2,0.1-0.3-0.1c0-0.1,0.1-0.1,0.2-0.1C51.2,244.2,51.3,244.3,51.3,244.4L51.3,244.4z
			 M5.8,185.9c0,0.1,0,0.1,0,0.1s0,0-0.1,0S5.7,185.9,5.8,185.9L5.8,185.9z M58.8,248.8c0,0.1,0.1,0.2,0,0.3s-0.1,0-0.3-0.1
			l-0.1-0.3c0.1-0.1,0.1-0.1,0.2-0.1L58.8,248.8z M6.2,187.5c-0.1,0-0.1,0-0.2-0.1c0,0,0,0,0-0.1s0.1,0,0.1,0L6.2,187.5
			C6.3,187.4,6.3,187.5,6.2,187.5z M5.7,186.2L5.7,186.2L5.7,186.2z M6.3,186.5c0,0.1,0,0.1-0.1,0.2c0,0-0.1,0-0.1-0.1s0-0.1,0-0.2
			l0.1-0.1C6.2,186.4,6.2,186.4,6.3,186.5z M60.6,247L60.6,247c-0.2,0-0.2,0.1-0.3,0.1s0.2-0.1,0-0.2l0.2-0.1c0-0.1,0-0.1,0-0.2
			l0.3,0.2v0.2C60.7,247,60.6,247,60.6,247z M57.8,245.9L57.8,245.9L57.8,245.9z M7.5,187.3C7.5,187.3,7.4,187.3,7.5,187.3
			C7.4,187.2,7.5,187.2,7.5,187.3z M59.9,246.1c0-0.1,0-0.1,0.1-0.1S60.1,246,59.9,246.1L59.9,246.1z M49.5,219
			C49.6,219,49.6,219,49.5,219C49.5,219.2,49.5,219,49.5,219z M50.9,217.5c-0.1,0-0.1,0-0.2-0.1c0-0.1,0-0.2,0-0.3l0.1-0.1
			c0.1,0,0.1,0.1,0.2,0.2C51.1,217.4,51,217.4,50.9,217.5L50.9,217.5z M50.9,217.6c0,0.1,0,0.2,0,0.3c-0.1,0.1-0.2,0.1-0.3,0l0,0
			c0-0.1,0-0.2,0-0.2C50.7,217.6,50.8,217.5,50.9,217.6L50.9,217.6z M42.9,238.4L42.9,238.4L42.9,238.4
			C42.8,238.5,42.9,238.5,42.9,238.4L42.9,238.4c0-0.1,0-0.2,0.1-0.2c0.1-0.1,0.2-0.1,0.3-0.1c0.1,0.1,0.1,0.2,0,0.3h-0.1
			C43.2,238.4,43,238.3,42.9,238.4L42.9,238.4z M9.1,187.5c0-0.1,0-0.1,0-0.1V187.5z M7.7,184.7L7.7,184.7L7.7,184.7L7.7,184.7z
			 M8,184.7c0.1-0.1,0.1-0.2,0.2-0.1v0.1v0.1C8.2,184.8,8.1,184.8,8,184.7C8,184.8,8,184.7,8,184.7L8,184.7z M8.9,186.2L8.9,186.2
			L8.9,186.2L8.9,186.2z M9,185.8L9,185.8l-0.1,0.1c-0.1,0-0.1-0.1-0.2-0.1v-0.1l0.1-0.1c0.1,0,0.1,0,0.2,0.1
			C9,185.6,9,185.8,9,185.8L9,185.8z M9,185.4c-0.1,0-0.1,0-0.2,0c0-0.1-0.1-0.1-0.1-0.2l0,0l0.1,0.1C8.9,185.3,9,185.3,9,185.4
			L9,185.4z M8.4,184H8.2C8.2,183.9,8.3,183.9,8.4,184C8.4,183.9,8.4,183.9,8.4,184C8.5,184.1,8.4,184,8.4,184z M8.5,182.7
			c-0.1,0-0.1-0.1-0.1-0.1C8.5,182.6,8.5,182.7,8.5,182.7L8.5,182.7z M9.5,183.6C9.5,183.6,9.4,183.6,9.5,183.6
			c-0.1-0.1-0.1-0.1-0.1-0.2h0.1C9.5,183.5,9.5,183.6,9.5,183.6L9.5,183.6z M9.8,183.9L9.8,183.9L9.8,183.9L9.8,183.9L9.8,183.9z
			 M11.4,184.8L11.4,184.8C11.3,184.8,11.4,184.8,11.4,184.8C11.4,184.7,11.4,184.8,11.4,184.8L11.4,184.8z M12.1,185.4
			c-0.1,0-0.1,0-0.1-0.1S12.1,185.3,12.1,185.4C12.3,185.4,12.2,185.4,12.1,185.4L12.1,185.4z M13.1,186.8L13.1,186.8
			C13.1,186.6,13.1,186.8,13.1,186.8L13.1,186.8z M34.5,232.1c0-0.1,0-0.3,0-0.4c0-0.1,0.1-0.1,0.2-0.2s0.2,0.1,0.2,0.1
			c0.1,0.1,0,0.3-0.1,0.4C34.7,232.2,34.6,232.2,34.5,232.1L34.5,232.1z M34.2,232.7L34.2,232.7L34.2,232.7z M12.6,185.1L12.6,185.1
			L12.6,185.1L12.6,185.1C12.6,185,12.6,185.1,12.6,185.1z M12.8,185.1C12.8,185.1,12.8,185,12.8,185.1
			C12.8,185,12.8,185,12.8,185.1c0-0.1,0-0.1,0.1-0.1S12.9,185,12.8,185.1L12.8,185.1z M13.8,186.3L13.8,186.3
			c0,0.1-0.1,0.2-0.1,0.2l0,0c0-0.1,0-0.1,0-0.2l-0.1-0.1c0,0,0-0.1,0.1-0.1c0,0,0,0,0.1,0V186.3z M14.6,186.5L14.6,186.5
			L14.6,186.5L14.6,186.5L14.6,186.5L14.6,186.5z M34.2,227L34.2,227c-0.1,0-0.1-0.1-0.2-0.1s0.1-0.4,0.1-0.6s0.2,0,0.2,0.1
			C34.4,226.5,34.3,226.8,34.2,227z M34,227.1c0.1,0.1,0,0.2-0.1,0.3c-0.1,0-0.1,0-0.2-0.1C33.7,227.2,33.8,227.2,34,227.1L34,227.1
			z M15.4,185.9c-0.1-0.1,0-0.1,0-0.2h0.1C15.6,185.8,15.5,185.8,15.4,185.9z M15.1,183.7L15.1,183.7
			C15.1,183.8,15.1,183.8,15.1,183.7C15,183.8,15.1,183.7,15.1,183.7z M14.9,183.8c0,0.1,0,0.1,0,0.2S14.8,183.9,14.9,183.8
			L14.9,183.8L14.9,183.8z M15.2,184.8L15.2,184.8L15.2,184.8L15.2,184.8L15.2,184.8z M16,185.5c0,0.1-0.1,0.2-0.1,0.4h-0.1l0,0
			c0-0.1,0.1-0.2,0.1-0.2v-0.2C16,185.3,16,185.4,16,185.5L16,185.5z M16.5,185.4c0,0-0.1,0-0.1,0.1l-0.1-0.1c0-0.1-0.1-0.1-0.1-0.2
			c0.1-0.1,0.1-0.1,0.2,0c0,0,0,0,0,0.1C16.4,185.3,16.5,185.3,16.5,185.4L16.5,185.4z M15.5,182.7c0,0.1,0,0.1-0.1,0l0,0
			c0,0,0-0.1,0-0.2S15.4,182.7,15.5,182.7L15.5,182.7z M16.9,185.5c0,0,0,0.1-0.1,0.1s-0.1,0-0.1-0.1v-0.1c0,0,0.1,0,0.1-0.1
			C16.9,185.4,16.9,185.4,16.9,185.5L16.9,185.5z M16.5,185L16.5,185z M15.8,183.5h-0.3c0.1-0.1,0.3-0.2,0.4-0.2
			C15.9,183.5,15.8,183.5,15.8,183.5L15.8,183.5z M16,183.4L16,183.4z M16.8,184.7h-0.1c0-0.1,0.1-0.2,0.2-0.2
			S16.9,184.6,16.8,184.7L16.8,184.7z M16.9,184.1V184c0-0.1,0-0.1,0.1-0.1l0,0C17,184.1,17,184.1,16.9,184.1L16.9,184.1z
			 M34.4,228.6c0-0.2,0-0.3,0.1-0.4c0,0,0.1-0.1,0.2-0.1s0,0.1,0,0.1s-0.1,0.3-0.1,0.4H34.4z M13.3,184.1L13.3,184.1
			C13.3,183.9,13.3,184,13.3,184.1z M36.7,227.8c-0.1,0-0.3,0-0.3-0.2c0.2-0.2,0.3-0.4,0.6-0.4c0,0.1,0,0.1,0.1,0.2
			c0,0.1,0,0.2,0,0.2C37,227.7,36.8,227.8,36.7,227.8z M34.4,231.2c0.1-0.1,0.2-0.1,0.3-0.1c0,0.1-0.1,0.3-0.3,0.3
			C34.4,231.4,34.3,231.4,34.4,231.2C34.4,231.3,34.4,231.3,34.4,231.2z M44.5,240.3v-0.1c0.4-0.2,0.4-0.2,0.6,0c0,0.1,0,0.1,0,0.1
			C44.8,240.5,44.8,240.5,44.5,240.3z M48.4,219.8L48.4,219.8c0,0.1-0.1,0.1-0.2,0.1C48.3,219.8,48.4,219.8,48.4,219.8z M48.1,219.3
			L48.1,219.3C47.9,219.2,48,219.2,48.1,219.3z M47.4,240.5c-0.1,0.1-0.2,0.1-0.3,0C47.2,240.4,47.3,240.4,47.4,240.5L47.4,240.5
			C47.5,240.6,47.4,240.5,47.4,240.5z M48.1,240.5C48.1,240.5,48.2,240.5,48.1,240.5C48.1,240.7,48,240.6,48.1,240.5L48.1,240.5z
			 M45.6,219.4c0.1,0,0.2,0.1,0.2,0.2v0.1c0,0,0,0.1-0.1,0.1h-0.1l-0.1-0.1C45.4,219.5,45.5,219.4,45.6,219.4L45.6,219.4z"/>
		<path class="st4" d="M45.2,143.3c-19.1-21.5-43.8-10.1-33.7,26.8c5.4,19.7,12.9,19.2,19.7,31.4s-1.5,31.9,9.4,38.9
			c8.7,5.6,15.4,7.2,19.7,12.6c4.7,5.9,5.9,15.7,6.8,21.2c3.5,21.6,32.8,45.6,53.5,13.5s10.6-50.6,18.5-56.7
			C137.2,225.8,42.6,136.9,45.2,143.3z M77,239.2L77,239.2z M76.2,240.4c0.1,0,0.3,0,0.4,0c0.1,0.1,0,0.2-0.1,0.3s-0.3,0.1-0.4-0.1
			S76.2,240.4,76.2,240.4L76.2,240.4z M80.8,251.9c0.1,0,0.1,0,0.2,0.1c0,0.1,0,0.2-0.1,0.2s-0.1,0-0.2,0
			C80.7,252.1,80.7,252,80.8,251.9L80.8,251.9z M77.6,247.6v-0.1c0.2,0,0.2,0,0.2,0.2S77.7,247.6,77.6,247.6L77.6,247.6z
			 M80.5,248.5c-0.1,0.1-0.2-0.1-0.2-0.1l0.1-0.1C80.4,248.3,80.6,248.4,80.5,248.5L80.5,248.5z M80.3,248.2L80.3,248.2
			c-0.1-0.2-0.1-0.2,0.1-0.2S80.4,248.1,80.3,248.2L80.3,248.2z M85.3,257.2L85.3,257.2C85.3,257.2,85.3,257.1,85.3,257.2
			L85.3,257.2L85.3,257.2z M85,256.9c-0.2,0-0.2-0.2-0.3-0.2s-0.2,0-0.2,0c-0.1-0.1-0.1-0.2-0.1-0.3c0-0.1,0.1-0.2,0.2-0.2
			s0.3,0.1,0.4,0.2l0.2,0.3c0,0.1,0,0.1,0,0.2C85.2,256.8,85.1,256.8,85,256.9L85,256.9z M85.6,257.4L85.6,257.4L85.6,257.4
			C85.6,257.4,85.6,257.3,85.6,257.4L85.6,257.4L85.6,257.4z M81.7,249.1c-0.1,0.1-0.2,0.1-0.3,0c-0.1-0.1-0.1-0.3,0-0.4
			c0.1-0.1,0.2-0.2,0.3-0.1l0,0C81.8,248.7,81.9,248.9,81.7,249.1L81.7,249.1z M79.9,244.5c-0.1,0-0.2,0.1-0.3,0.1
			c-0.1-0.1,0-0.1,0.2-0.2s-0.1-0.1-0.1-0.2C80,244.1,80,244.2,79.9,244.5L79.9,244.5z M77.3,238.6L77.3,238.6L77.3,238.6
			C77.4,238.6,77.4,238.6,77.3,238.6L77.3,238.6z M26.8,159.2l-0.4,0.1c-0.2,0-0.4-0.2-0.5-0.4s-0.1-0.5,0.1-0.7
			c0.1-0.1,0.3-0.1,0.4,0C26.7,158.6,26.6,159,26.8,159.2L26.8,159.2z M84.9,248L84.9,248L84.9,248z M82.2,242
			c0.2,0,0.2,0.3,0.4,0.3s0,0.2,0,0.3s-0.2,0-0.3-0.1C82.1,242.4,82.1,242.2,82.2,242z M85.2,249.1L85.2,249.1L85.2,249.1z
			 M76.2,233.1c0.1,0.1,0,0.3,0,0.4s0.1,0.2,0.1,0.3s-0.1,0.1-0.2,0l-0.3-0.3c-0.1-0.1-0.1-0.3,0-0.4c0-0.1,0.1-0.1,0.2-0.1
			L76.2,233.1z M79,241.6c-0.1,0-0.1-0.1-0.1-0.2C79,241.5,79,241.5,79,241.6L79,241.6z M82.5,248.6L82.5,248.6L82.5,248.6z
			 M78.2,239.7L78.2,239.7C78.1,239.7,78.2,239.6,78.2,239.7L78.2,239.7C78.3,239.8,78.3,239.7,78.2,239.7L78.2,239.7z M85.2,253.9
			v-0.1h0.1c0,0,0,0,0.1,0.1S85.3,253.9,85.2,253.9L85.2,253.9z M83.1,242.6v-0.1c0.2,0,0.2,0,0.2,0.2S83.2,242.6,83.1,242.6
			L83.1,242.6z M69.5,211.4c-0.1,0.1-0.2,0.1-0.3,0.1c-0.1-0.1,0-0.1,0.2-0.2c0.1-0.1-0.1-0.1-0.1-0.2
			C69.6,211.1,69.6,211.1,69.5,211.4L69.5,211.4z M27.4,163c-0.2,0.1-0.4,0.2-0.6,0.1l-0.2-0.3l-0.3-0.1l0.3,0.1
			c0.2-0.1,0.5-0.3,0.8-0.2C27.4,162.8,27.4,162.9,27.4,163z M19,134.3c0.1,0.1,0.1,0.1,0.2,0.2c0,0.1,0.1,0.1,0.1,0.2
			c0,0.2-0.1,0.2-0.3,0.1C18.7,134.6,18.8,134.5,19,134.3z M17,128c-0.5-0.1-0.5-0.1-0.5-0.7c0.2-0.1,0.4,0,0.6,0.1
			C17.2,127.6,17.1,127.9,17,128z M39.7,175.4c0.1,0.2,0,0.4-0.1,0.5s-0.2,0.1-0.3,0c-0.1-0.2-0.1-0.4,0.1-0.6h0.1
			C39.6,175.3,39.6,175.4,39.7,175.4L39.7,175.4z M24.3,149.4c-0.1,0.3-0.2,0.5-0.5,0.4s-0.2-0.1-0.4-0.6l0.3-0.8
			c0.2,0,0.3,0.1,0.5,0.2C24.3,148.9,24.3,149.2,24.3,149.4z M13.4,166.7c-0.1,0-0.3,0-0.4-0.1c-0.1-0.1-0.1-0.1,0-0.3
			c0.1-0.1,0.1,0,0.2,0l0.2,0.3C13.5,166.6,13.4,166.7,13.4,166.7z M39.4,177.4L39.4,177.4L39.4,177.4L39.4,177.4z M13.5,164.5
			c0,0.1-0.1,0.3-0.2,0.4c-0.1,0-0.2-0.1-0.3-0.1c-0.1-0.1-0.1-0.3-0.1-0.4c0.1-0.1,0.2-0.1,0.3-0.1
			C13.4,164.2,13.5,164.3,13.5,164.5z M30.8,149c-0.1-0.1-0.1-0.2-0.2-0.3s-0.3,0.1-0.5-0.1c-0.1-0.5,0.6,0.1,0.3-0.5l0.6,0.2
			l0.5-0.5c0.1,0.4,0.1,0.6,0.2,0.9c-0.1,0.1-0.2,0.3-0.2,0.4C31.1,149.2,30.9,149,30.8,149z M27.3,142.2L27.3,142.2L27.3,142.2
			L27.3,142.2z M16.3,166.4c-0.1,0-0.1,0-0.2-0.1C16.2,166.2,16.3,166.2,16.3,166.4L16.3,166.4z M31.2,146c0.1-0.3,0.3-0.1,0.5,0
			C31.5,146.2,31.5,146.2,31.2,146z M87.4,236.6c0.1,0,0.1,0.1,0,0.1C87.4,236.7,87.4,236.7,87.4,236.6L87.4,236.6z M116.6,250
			L116.6,250c0.1-0.1,0.1-0.1,0.2-0.1c0.1,0.1,0.1,0.3-0.1,0.3S116.6,250.1,116.6,250L116.6,250z M89.2,234.9c-0.1,0-0.1,0-0.2-0.1
			s-0.1-0.2,0-0.3c0-0.1,0.1-0.1,0.1-0.1c0.1,0,0.2,0.1,0.2,0.2C89.4,234.7,89.3,234.8,89.2,234.9z M89.1,235c0.1,0.1,0.1,0.3,0,0.4
			c-0.1,0.1-0.2,0.1-0.3,0l0,0c0-0.1,0-0.2,0-0.3C88.9,235,89,234.9,89.1,235L89.1,235L89.1,235z M89.5,236.6L89.5,236.6
			C89.5,236.5,89.5,236.6,89.5,236.6L89.5,236.6c0.1,0,0.1,0.1,0.2,0.1c0,0.1,0,0.1,0,0.2c-0.1,0-0.2,0-0.2-0.1V236.6
			C89.5,236.7,89.6,236.7,89.5,236.6z M20,167c-0.1-0.1,0-0.2,0-0.3C20.1,166.8,20,166.9,20,167z M16.9,160.5
			C16.9,160.4,16.9,160.4,16.9,160.5C17.1,160.6,16.9,160.5,16.9,160.5L16.9,160.5z M17.6,160.5c0.1-0.3,0.2-0.4,0.5-0.3
			c0.1,0.1,0.1,0.1,0.1,0.2l-0.1,0.2c-0.1,0-0.3,0-0.4,0C17.7,160.6,17.6,160.5,17.6,160.5L17.6,160.5z M19.6,163.9
			c0-0.1,0-0.1,0.1,0S19.6,163.9,19.6,163.9L19.6,163.9z M19.9,162.9L19.9,162.9l-0.3,0.3c-0.2-0.1-0.3-0.2-0.4-0.3
			c0-0.1,0-0.2,0-0.3c0.1-0.2,0.4-0.2,0.6,0l0.1,0.1C19.8,162.8,19.8,162.9,19.9,162.9L19.9,162.9z M19.8,162.1
			c-0.1,0-0.3-0.1-0.4-0.1c-0.1-0.1-0.2-0.2-0.2-0.4h0.1l0,0l0.2,0.3C19.6,162,19.7,161.9,19.8,162.1L19.8,162.1z M18.6,158.9
			c-0.2,0-0.3-0.1-0.5-0.2c0.1-0.1,0.2-0.2,0.3-0.1l0,0c0.1,0,0.2,0.1,0.3,0.2C18.6,158.9,18.6,158.9,18.6,158.9L18.6,158.9z
			 M18.9,156c-0.1-0.1-0.1-0.2-0.2-0.3C18.8,155.8,18.8,155.9,18.9,156L18.9,156z M21.1,158.2c-0.1,0-0.2-0.2-0.2-0.3
			c0,0,0-0.1,0.1-0.1s0.2,0,0.2,0.1s0,0.2,0,0.3H21.1z M21.8,158.8C21.8,158.8,21.8,158.9,21.8,158.8L21.8,158.8
			C21.7,158.8,21.7,158.8,21.8,158.8L21.8,158.8z M25.5,161c0,0.1-0.1,0.1-0.1,0.1s-0.1-0.1,0-0.1S25.4,160.9,25.5,161z M82.3,286.5
			c-0.1-0.1-0.1-0.3,0-0.4h0.1c0,0,0.3,0.2,0.3,0.5C82.6,286.6,82.5,286.6,82.3,286.5z M27,162.4c-0.1,0-0.1,0-0.2-0.1
			c0.1-0.2,0.1-0.2,0.4,0C27.1,162.3,27.1,162.4,27,162.4z M29.1,165.5c-0.1,0-0.1-0.1-0.1-0.1l0,0
			C29.1,165.4,29.2,165.4,29.1,165.5L29.1,165.5L29.1,165.5z M82.4,280c0.1,0,0.3,0.1,0.4,0.2s0.1,0.2,0.1,0.2
			c0,0.1-0.2,0.1-0.2,0.2c-0.2,0-0.3-0.1-0.3-0.2C82.3,280.2,82.3,280.1,82.4,280z M82,279.5L82,279.5L82,279.5z M28.1,161.5
			L28.1,161.5c-0.1,0-0.1-0.1,0-0.1c0,0,0,0,0.1,0C28.1,161.5,28.1,161.5,28.1,161.5L28.1,161.5z M28.6,161.5
			c-0.1,0-0.2-0.1-0.2-0.2c0.1-0.1,0.3,0,0.4,0C28.8,161.5,28.7,161.5,28.6,161.5L28.6,161.5z M78.9,225.3v0.1c0,0-0.2,0.2-0.2,0.3
			s-0.1,0-0.1-0.1s0-0.3,0-0.4l-0.2-0.1c0-0.1,0.1-0.2,0.2-0.2s0.1,0,0.1,0.1C78.8,225.1,78.8,225.2,78.9,225.3L78.9,225.3z
			 M80.5,225.7L80.5,225.7l-0.1-0.1C80.3,225.6,80.3,225.6,80.5,225.7C80.5,225.7,80.5,225.6,80.5,225.7L80.5,225.7z M87.5,282
			L87.5,282c0-0.1,0.1-0.1,0.2-0.2l0.5,0.4c0,0.2-0.1,0.1-0.2,0.2C87.8,282.3,87.6,282.2,87.5,282L87.5,282z M87.5,281.8
			c-0.1,0-0.2-0.1-0.2-0.2s0-0.1,0.1-0.1S87.4,281.6,87.5,281.8L87.5,281.8z M82.4,224.4c-0.1-0.2-0.1-0.3,0-0.4
			c0.1,0,0.2,0,0.2,0.1C82.6,224.2,82.4,224.2,82.4,224.4L82.4,224.4z M83.3,273.4c0.1,0,0.1,0,0.2,0.1c0,0-0.1,0.1-0.1,0
			C83.3,273.5,83.3,273.5,83.3,273.4C83.3,273.4,83.2,273.3,83.3,273.4L83.3,273.4z M83,274c0.2,0.1,0.1,0.3,0.2,0.5
			c-0.3,0-0.4-0.2-0.4-0.4V274H83z M81.9,222l-0.1-0.1c0,0,0.1-0.1,0.1,0C81.9,221.9,81.8,221.9,81.9,222L81.9,222z M83.7,223.4
			c0,0.3-0.1,0.5-0.3,0.8c-0.1,0-0.1,0-0.2,0h-0.1c0-0.1,0-0.1,0-0.1c0-0.2,0.1-0.3,0.3-0.5c0-0.1,0-0.3,0.1-0.4
			C83.5,223.2,83.6,223.3,83.7,223.4L83.7,223.4z M84.7,223.2c0,0.1-0.2,0.1-0.2,0.1c-0.1,0-0.1-0.1-0.2-0.2l-0.2-0.4
			c0.2-0.1,0.2-0.1,0.5,0c0,0.1,0,0.1,0,0.2C84.5,223.1,84.6,223.1,84.7,223.2L84.7,223.2z M82.5,270.2c0,0.2,0,0.2-0.3,0.2h-0.1
			l-0.3-0.3C82,270,82.2,270.2,82.5,270.2L82.5,270.2z M85.6,223.5c0,0.1-0.1,0.2-0.2,0.2s-0.2-0.1-0.3-0.2c-0.1-0.1-0.1-0.2,0-0.3
			s0.1-0.1,0.2-0.1C85.5,223.2,85.6,223.4,85.6,223.5L85.6,223.5z M84.7,222.4L84.7,222.4L84.7,222.4z M84.6,271.6
			c-0.2,0.2-0.4,0.4-0.7,0.6c0.1-0.4,0.3-0.9,0.7-1.2C84.7,271.3,84.6,271.4,84.6,271.6L84.6,271.6z M84.7,270.9L84.7,270.9
			L84.7,270.9z M85.5,221.9h-0.3c0.1-0.2,0.2-0.4,0.5-0.4C85.7,221.6,85.5,221.7,85.5,221.9L85.5,221.9z M88.3,270.9
			c-0.1-0.1-0.2-0.2-0.2-0.3c-0.1-0.1-0.1-0.3,0-0.5h0.1C88.3,270.7,88.3,270.7,88.3,270.9L88.3,270.9z M80.3,266.2
			c-0.1,0.1-0.2,0.2-0.4,0.1c-0.1-0.1-0.2-0.3-0.2-0.4l0.2-0.1L80,266C79.9,266,80.1,266,80.3,266.2L80.3,266.2z M59.1,270.5
			L59.1,270.5L59.1,270.5C59.2,270.5,59.2,270.6,59.1,270.5L59.1,270.5c0.2,0.1,0.3,0.2,0.3,0.3l0,0c0,0,0.1,0.1,0,0.1l0,0l0,0l0,0
			l0,0c0,0-0.1-0.1,0-0.1l0,0C59.2,270.8,59.1,270.7,59.1,270.5L59.1,270.5L59.1,270.5L59.1,270.5c0,0.1-0.1,0.2-0.1,0.2v0.1
			c-0.1,0,0,0,0-0.1c-0.1-0.1-0.1-0.2-0.1-0.3l0,0v-0.1c0.1,0,0,0,0,0.1l0,0C58.9,270.5,59,270.5,59.1,270.5L59.1,270.5z M59,270
			c-0.1,0-0.1-0.1-0.1-0.2l0,0c0-0.1-0.1-0.1,0-0.1s0,0.1,0,0.1l0,0c0.1,0.1,0.2,0.1,0.3,0C59.2,269.9,59.1,270,59,270z M61.3,268.7
			c0.1,0.1,0.1,0.1,0.1,0.2c-0.1,0.2-0.2,0.3-0.4,0.4c-0.3,0-0.3,0-0.4-0.2C60.9,268.9,61.2,268.8,61.3,268.7L61.3,268.7z M78,258.3
			c0,0,0.1,0,0.1,0.1s0.1,0.1,0.2,0.3c-0.4,0-0.4,0-0.5-0.2l0.1-0.1L78,258.3z M91.8,266.3c-0.1-0.1-0.1-0.1-0.1-0.2
			c0.1,0,0.2,0,0.3,0C92.1,266.2,92,266.3,91.8,266.3L91.8,266.3z M84.7,260.8c0,0.2-0.1,0.4-0.2,0.5h-0.4c-0.1-0.2-0.3-0.4-0.5-0.5
			c0.3-0.1,0.6-0.2,0.9-0.1C84.6,260.6,84.7,260.7,84.7,260.8L84.7,260.8z M84.8,260.6c-0.1-0.1-0.2-0.2-0.2-0.3
			c0-0.1,0.1-0.2,0.2-0.3h0.1c0.2,0.1,0.3,0.2,0.3,0.4S85.1,260.6,84.8,260.6L84.8,260.6z M83,258.7c-0.1,0-0.1-0.1-0.1-0.1
			c0-0.1,0-0.2,0-0.2l0,0l0,0l0,0l0,0c0.2,0,0.2-0.1,0.3-0.2h0.1c0.1,0.1,0.1,0.2,0.1,0.3C83.2,258.5,83.1,258.6,83,258.7z
			 M85.7,259.2L85.7,259.2L85.7,259.2l0.1,0.1c0,0-0.1,0.1-0.1,0l0,0C85.6,259.3,85.7,259.2,85.7,259.2L85.7,259.2z M85.7,255.2
			L85.7,255.2L85.7,255.2z M86.2,255.2c-0.1,0-0.1,0-0.1-0.1S86.2,255.1,86.2,255.2L86.2,255.2z M83.5,253.8c0,0.1-0.1,0.1-0.2,0.1
			s-0.1-0.1-0.1-0.2S83.4,253.8,83.5,253.8L83.5,253.8z M90.7,257c-0.1,0.1-0.2,0.1-0.3,0.1c-0.1-0.1-0.2-0.2-0.2-0.3
			c0-0.1,0.1-0.2,0.2-0.2C90.6,256.6,90.7,256.8,90.7,257z M89.5,254.6L89.5,254.6c-0.2,0.1-0.4,0.1-0.6,0.2
			c-0.1,0.1-0.3,0.1-0.5,0.1l0,0l0,0l0,0l0,0c0-0.1,0-0.2,0-0.3s0-0.2,0.1-0.3c0.2-0.1,0.3,0.1,0.5,0.1s0-0.1,0.1-0.2
			C89.3,254.2,89.5,254.4,89.5,254.6L89.5,254.6z M83,251.5c0,0.1,0,0.1,0,0.2c-0.2,0.1-0.2,0-0.3-0.2
			C82.8,251.4,82.9,251.4,83,251.5z M32.6,167c0,0,0,0.1,0,0.2s-0.1,0.1-0.1,0c-0.1-0.2-0.1-0.3,0-0.5
			C32.4,166.9,32.6,166.9,32.6,167z M82.4,251.3L82.4,251.3c0,0.1,0,0.1-0.1,0.2l-0.7,0.1c-0.1-0.1,0-0.2,0-0.2
			C81.9,251.2,82.2,251.2,82.4,251.3L82.4,251.3z M34.1,167.2c0-0.1,0.1-0.1,0.1-0.1c0.1,0,0.1,0.1,0.1,0.1H34.1z M84,250.7
			c-0.2,0.1-0.3,0.1-0.5,0c-0.1,0-0.1-0.1-0.1-0.1s0.1-0.1,0.1,0H84C84,250.6,84,250.6,84,250.7z M75.2,241.9
			c-0.1,0-0.2-0.1-0.3-0.2c-0.1-0.1-0.1-0.3,0-0.4l0.6,0.1c0.2,0.1,0.3,0.2,0.3,0.4C75.7,241.9,75.4,242,75.2,241.9z M79.7,243.4
			L79.7,243.4l0.1,0.1c-0.1,0.1-0.2,0.2-0.3,0.2c-0.1,0-0.2-0.1-0.2-0.1c0-0.1,0.1-0.2,0.1-0.3c-0.1-0.2,0-0.3,0.1-0.4
			c0,0.1,0,0.3-0.1,0.4L79.7,243.4z M73.2,239.3c0.4,0.1,0.5,0.1,0.5,0.5c-0.1,0.1-0.2,0.2-0.3,0.1c0,0-0.1,0-0.1-0.1
			C73.2,239.7,73.1,239.5,73.2,239.3z M71,238.5L71,238.5L71,238.5C71.1,238.4,71,238.5,71,238.5L71,238.5l0.2,0.1
			c0.1,0.1,0,0.2-0.1,0.3s-0.2,0.1-0.2,0C70.8,238.8,71,238.7,71,238.5z M36.3,166.2c0.1-0.1,0.1-0.1,0.3,0v0.1l0,0
			c-0.1,0-0.1,0-0.2,0L36.3,166.2z M36.8,167.4L36.8,167.4L36.8,167.4z M73.7,243.5c0.2,0,0.2,0.1,0.3,0.2c0.1,0.1,0,0.2-0.1,0.3
			c0,0,0,0-0.1,0h-0.3C73.5,243.7,73.6,243.6,73.7,243.5z M75.7,244.7l0.1-0.1c0.2,0,0.2,0.1,0.2,0.2s-0.2,0.1-0.3,0.1
			C75.6,244.8,75.6,244.8,75.7,244.7L75.7,244.7z M82.1,248.2c0.1,0,0.2,0,0.2,0c0.1,0,0.2,0.2,0.3,0.3c0,0.1,0.1,0.3-0.2,0.4
			c-0.3-0.1-0.5-0.2-0.5-0.5L82.1,248.2z M35.1,166.9L35.1,166.9C35.2,166.9,35.2,166.9,35.1,166.9l0.1,0.1
			C35.2,167,35.1,167,35.1,166.9z M78.5,247.2L78.5,247.2c0-0.1,0.2-0.2,0.3-0.3C78.8,247.1,78.7,247.2,78.5,247.2L78.5,247.2z
			 M68.8,243.9c0,0.1,0,0.1-0.1,0.1S68.7,243.9,68.8,243.9z M37,169c-0.1-0.1,0-0.1,0-0.2C37.1,168.9,37.1,168.9,37,169z
			 M33.3,165.4L33.3,165.4c0.1,0,0.1,0.1,0.1,0.1s-0.1,0.1-0.1,0S33.3,165.4,33.3,165.4S33.4,165.4,33.3,165.4L33.3,165.4z
			 M36.1,170.2L36.1,170.2C36.2,170.2,36.1,170.2,36.1,170.2L36.1,170.2L36.1,170.2L36.1,170.2z M33.7,169.2c0.1,0,0.1,0,0.2,0
			c0,0.1,0,0.2-0.1,0.2C33.7,169.4,33.7,169.4,33.7,169.2L33.7,169.2z M89.7,259.5L89.7,259.5c-0.1,0.2-0.2,0.4-0.3,0.6
			c-0.2,0.1-0.4,0.1-0.6,0.1c-0.2-0.2-0.5-0.4-0.7-0.6v-0.2c0.1-0.1,0.2-0.2,0.3-0.2c0.1,0.2,0.2,0.4,0.4,0.6c0.1,0,0.2,0,0.3,0
			C89.3,259.7,89.5,259.6,89.7,259.5L89.7,259.5z M88.2,258.9c-0.1,0.1-0.2,0.1-0.3,0C88,258.8,88.1,258.8,88.2,258.9L88.2,258.9z
			 M85.4,257.6L85.4,257.6c0.1,0.1,0.1,0.3,0.1,0.4C85.3,257.9,85.3,257.8,85.4,257.6L85.4,257.6z M35,170.5c0-0.1,0.1-0.2,0.2-0.2
			v0.1L35,170.5L35,170.5L35,170.5z M85.9,281.5c0.2,0,0.3,0.1,0.4,0.3c0,0.1,0,0.1,0,0.2s-0.1,0-0.1,0l-0.3-0.3V281.5z M29.6,159.3
			c-0.1,0-0.1-0.1-0.1-0.2C29.6,159.2,29.6,159.2,29.6,159.3z M85.6,284c0-0.1,0.1-0.3,0.3-0.2s0.3,0.5,0.1,0.7h-0.2
			c-0.1,0-0.1-0.1-0.2-0.1C85.6,284.3,85.6,284.1,85.6,284z M83.3,280.3c0,0.1,0,0.2,0,0.3c-0.1-0.1-0.2-0.2-0.2-0.4
			C83.2,280.2,83.3,280.3,83.3,280.3L83.3,280.3z M103.3,291c0.1,0,0.1-0.1,0.2-0.1c0.4,0.1,0.7,0.3,0.9,0.6c0,0.3,0.2,0.6,0,0.9
			c-0.1,0-0.2,0-0.2,0c-0.2-0.3-0.5-0.5-0.9-0.7C103.4,291.4,103.4,291.2,103.3,291L103.3,291z M103.9,292.7
			c0.2,0.2,0.3,0.5,0.2,0.9c-0.2,0.3-0.5,0.3-0.8-0.1C103.5,293.2,103.6,292.8,103.9,292.7L103.9,292.7z M102.2,294.8
			c0.3,0.3,0.3,0.3,0,0.5C102.1,295.1,102.1,294.9,102.2,294.8L102.2,294.8z M110.2,245.4c0.1-0.1,0.2,0,0.3,0.1c0,0.1,0,0.1,0,0.2
			l-0.2,0.1C110.2,245.7,110.2,245.5,110.2,245.4L110.2,245.4z M105.6,251.1L105.6,251.1L105.6,251.1
			C105.7,251,105.6,251.1,105.6,251.1L105.6,251.1L105.6,251.1c0.1,0.2,0.1,0.3,0,0.4C105.5,251.3,105.6,251.2,105.6,251.1
			L105.6,251.1z M103.8,249L103.8,249c0-0.1,0-0.2,0.1-0.3c0.1,0,0.1,0,0.2,0.1S103.9,249,103.8,249L103.8,249c0,0.1,0,0.1-0.1,0.1
			S103.8,249.1,103.8,249z M104.1,250c0,0.1,0,0.1-0.1,0.1S104,250,104.1,250z M87.6,237.1C87.6,237.2,87.6,237.2,87.6,237.1
			c0.1,0.4,0.1,0.4-0.1,0.5l-0.1-0.1C87.4,237.3,87.4,237.3,87.6,237.1z M86,237.7L86,237.7c-0.1,0.1-0.1,0.1-0.2,0.1
			C85.8,237.7,85.9,237.7,86,237.7z M85.5,237L85.5,237C85.4,236.9,85.5,237,85.5,237L85.5,237z M86.5,239.2c0-0.1,0-0.2,0.2-0.2
			C86.7,239,86.6,239.1,86.5,239.2L86.5,239.2C86.4,239.2,86.5,239.2,86.5,239.2L86.5,239.2z M86.3,239.7L86.3,239.7
			C86.2,239.6,86.3,239.6,86.3,239.7L86.3,239.7z M82.5,237c0.1,0,0.3,0.1,0.3,0.2c0,0,0,0.1-0.1,0.1l-0.1,0.1h-0.1l-0.2-0.1
			C82.3,237.2,82.3,237.1,82.5,237L82.5,237z M120.8,250.6L120.8,250.6L120.8,250.6L120.8,250.6z M104,246.6c0.3,0,0.3,0.3,0.5,0.4
			s0,0.3-0.1,0.4s-0.3,0-0.4-0.1C103.8,247.1,103.8,246.8,104,246.6L104,246.6z M121.4,253.3L121.4,253.3L121.4,253.3L121.4,253.3z
			 M110.7,239.6C110.7,239.6,110.8,239.6,110.7,239.6c0.1,0.1,0.1,0.1,0.1,0.1C110.7,239.7,110.7,239.7,110.7,239.6L110.7,239.6z
			 M85.8,292.6c-0.1,0-0.2,0-0.2-0.1c-0.1-0.1-0.1-0.3-0.1-0.4s0.1-0.1,0.2-0.1c0.1,0.1,0.2,0.2,0.3,0.3
			C85.9,292.4,85.9,292.5,85.8,292.6L85.8,292.6z M85.7,292.7c0.1,0.2,0.1,0.3,0,0.5c-0.1,0.1-0.3,0.1-0.4,0l0,0
			c0-0.1,0-0.3,0.1-0.4C85.4,292.8,85.6,292.7,85.7,292.7L85.7,292.7z M113.5,239.5L113.5,239.5
			C113.4,239.4,113.5,239.5,113.5,239.5L113.5,239.5c0.1,0,0.1,0.1,0.2,0.2c0,0.1,0,0.2,0,0.3c-0.1,0-0.2,0-0.3-0.1s0-0.1,0-0.1
			S113.5,239.6,113.5,239.5L113.5,239.5z M57.9,217.8c0.1,0,0.2,0.1,0.3,0.1c0.1,0.1,0.1,0.1,0.1,0.2c0,0.1-0.1,0.1-0.2,0.2
			c-0.1,0-0.3-0.1-0.3-0.2C57.7,218,57.8,217.9,57.9,217.8z M57.5,217.4L57.5,217.4L57.5,217.4z M58.7,218.1c0,0.1,0,0.2,0,0.3
			c-0.1-0.1-0.2-0.2-0.2-0.3S58.6,218,58.7,218.1z M110.9,240.2L110.9,240.2c0.1,0.5,0.1,0.5-0.1,0.7l-0.1-0.1
			C110.7,240.4,110.7,240.4,110.9,240.2z M108.9,240.9L108.9,240.9c-0.1,0.1-0.2,0.1-0.3,0.1C108.7,240.9,108.7,240.9,108.9,240.9z
			 M108.3,240C108.3,240.1,108.3,240.1,108.3,240C108.1,239.9,108.2,240,108.3,240L108.3,240z M109.5,242.9c0-0.2,0-0.3,0.2-0.3
			C109.8,242.7,109.7,242.8,109.5,242.9v0.1C109.4,242.9,109.5,242.9,109.5,242.9z M109.3,243.5c0,0.1,0,0.1-0.1,0.1
			S109.2,243.5,109.3,243.5z M104.3,240.1c0.2,0,0.3,0.1,0.3,0.3c0,0.1,0,0.1-0.1,0.1l-0.1,0.2h-0.1c-0.1-0.1-0.2-0.1-0.2-0.2
			C104,240.3,104.1,240.1,104.3,240.1L104.3,240.1z M64.9,220.3L64.9,220.3L64.9,220.3z M70.7,209.2c0.1,0,0.2,0,0.2,0.1
			c0.1,0.1,0.1,0.2,0,0.3c-0.1,0-0.2,0-0.2,0C70.6,209.5,70.6,209.3,70.7,209.2z M68.3,226.5c-0.1,0-0.2,0-0.3,0
			c-0.1-0.1,0-0.1,0.2-0.2c0.1-0.1-0.1-0.1-0.1-0.2C68.3,226.1,68.4,226.2,68.3,226.5z M65.3,219.6L65.3,219.6L65.3,219.6
			C65.3,219.6,65.3,219.7,65.3,219.6L65.3,219.6z M94,264.8l-0.1,0.2c-0.1,0.1-0.3,0.1-0.4,0s-0.2-0.2-0.2-0.4
			c0-0.1,0.1-0.1,0.2-0.1C93.7,264.5,93.8,264.8,94,264.8z M71,223.7c0.3,0,0.3,0.3,0.4,0.4s0,0.3-0.1,0.4s-0.2,0-0.3-0.1
			C70.9,224.1,70.9,223.9,71,223.7z M31.1,169.3L31.1,169.3L31.1,169.3z M67.2,223.2c-0.1,0-0.1-0.1-0.1-0.2S67.3,223.1,67.2,223.2
			L67.2,223.2z M66.3,220.9L66.3,220.9C66.3,220.9,66.3,220.8,66.3,220.9L66.3,220.9C66.4,221,66.4,220.9,66.3,220.9L66.3,220.9z
			 M95.6,266.3c0,0.1-0.1,0.2-0.2,0.3h-0.2H95c0.1,0,0.1,0,0.2-0.1s0.1-0.3,0.3-0.3C95.5,266.1,95.5,266.2,95.6,266.3L95.6,266.3z
			 M81.7,256.6L81.7,256.6l0.2,0.1c0,0.1,0,0.1-0.1,0.2S81.7,256.8,81.7,256.6z M78.6,254.6c-0.2,0.1-0.2,0.1-0.5-0.1
			c0.1-0.1,0.2-0.2,0.3-0.1C78.5,254.4,78.6,254.5,78.6,254.6L78.6,254.6z M14.3,167.2v0.1h-0.1C14.2,167.3,14.2,167.2,14.3,167.2
			L14.3,167.2z M89.4,261.4c0.1,0.2,0.1,0.3-0.1,0.4s-0.1,0-0.4-0.1c0-0.1-0.1-0.3-0.1-0.5s0.2-0.1,0.3-0.1
			C89.2,261.2,89.3,261.3,89.4,261.4z M14.8,169.6c-0.1,0-0.2,0-0.2-0.1s0-0.1,0-0.2s0.1,0,0.2,0l0.1,0.2
			C14.9,169.6,14.9,169.6,14.8,169.6z M14.2,167.8L14.2,167.8L14.2,167.8z M14.9,168.2c0,0.1,0,0.2-0.1,0.2s-0.1,0-0.2-0.1
			c-0.1-0.1-0.1-0.2,0-0.3c0-0.1,0.1-0.1,0.2-0.1C14.9,168,14.9,168.1,14.9,168.2z M92.1,258.9l-0.2-0.1c-0.1,0-0.1,0.2-0.2,0.1
			s0.3-0.2,0-0.3l0.3-0.1c0-0.1,0-0.2,0-0.4l0.4,0.3c0,0.1,0,0.2,0,0.3C92.3,258.9,92.2,258.9,92.1,258.9z M88.2,257.2L88.2,257.2
			L88.2,257.2z M16.7,169.4c0,0-0.1,0-0.1-0.1S16.7,169.3,16.7,169.4z M91.2,257.5c0-0.2,0.1-0.2,0.2-0.2
			C91.4,257.4,91.4,257.4,91.2,257.5z M77,217.4c0.1,0,0.1,0.1,0.1,0.1C77,217.5,77,217.4,77,217.4L77,217.4z M79.1,215.2
			c-0.1,0-0.2,0-0.2-0.1c-0.1-0.1-0.1-0.3,0-0.4c0-0.1,0.1-0.1,0.2-0.1c0.1,0.1,0.2,0.1,0.3,0.2C79.3,215.1,79.2,215.2,79.1,215.2
			L79.1,215.2z M79,215.4c0.1,0.1,0.1,0.3,0,0.4c-0.1,0.1-0.2,0.1-0.4,0l0,0c0-0.1,0-0.2,0-0.3C78.7,215.3,78.9,215.3,79,215.4
			L79,215.4L79,215.4z M66.6,245.5L66.6,245.5L66.6,245.5v0.1C66.6,245.6,66.5,245.6,66.6,245.5L66.6,245.5L66.6,245.5
			c0-0.1,0-0.2,0.1-0.3s0.2-0.1,0.4-0.1c0.1,0.1,0.1,0.3,0,0.5H67C67,245.6,66.8,245.4,66.6,245.5z M19.1,169.8
			c-0.1-0.1,0-0.1,0-0.2S19.1,169.7,19.1,169.8z M17.1,165.6L17.1,165.6C17.2,165.7,17.1,165.6,17.1,165.6L17.1,165.6z M17.5,165.6
			c0.1-0.2,0.1-0.2,0.4-0.2v0.1l-0.1,0.1C17.7,165.7,17.6,165.7,17.5,165.6C17.5,165.7,17.5,165.7,17.5,165.6L17.5,165.6z
			 M18.8,167.8C18.8,167.8,18.8,167.7,18.8,167.8C18.9,167.8,18.8,167.8,18.8,167.8L18.8,167.8z M19,167.2L19,167.2l-0.2,0.2
			c-0.1,0-0.2-0.1-0.2-0.2c0-0.1,0-0.1,0-0.2c0.1,0,0.1-0.1,0.2-0.1S19,167,19,167C19,167.1,19,167.2,19,167.2L19,167.2z M19,166.6
			c-0.1,0-0.2,0-0.2-0.1c-0.1-0.1-0.1-0.1-0.1-0.2c0,0,0,0,0.1,0l0.1,0.2C18.8,166.5,18.9,166.6,19,166.6L19,166.6z M18.2,164.6
			l-0.3-0.1c0-0.1,0.1-0.1,0.2-0.1l0,0C18.2,164.4,18.3,164.5,18.2,164.6L18.2,164.6L18.2,164.6z M18.4,162.8
			c-0.1,0-0.1-0.1-0.1-0.2C18.3,162.6,18.3,162.7,18.4,162.8L18.4,162.8z M19.8,164.1c-0.1,0-0.1-0.1-0.1-0.1c0-0.1,0-0.1,0-0.1h0.1
			C19.9,164,19.9,164,19.8,164.1L19.8,164.1z M20.3,164.6L20.3,164.6L20.3,164.6C20.3,164.6,20.2,164.6,20.3,164.6L20.3,164.6z
			 M22.6,166c0,0.1-0.1,0.1-0.1,0.1V166C22.5,165.9,22.5,165.9,22.6,166z M23.6,166.9c-0.1,0-0.1,0-0.2-0.1s0.1-0.1,0.2,0
			S23.6,166.8,23.6,166.9L23.6,166.9z M25,168.9l-0.1-0.1l0,0C24.9,168.8,24.9,168.8,25,168.9L25,168.9z M54.4,236.1
			c-0.1-0.2-0.1-0.4,0-0.6c0.1-0.1,0.2-0.2,0.3-0.2c0.2,0,0.2,0.1,0.4,0.2c0.1,0.2,0,0.4-0.1,0.6C54.8,236.2,54.6,236.2,54.4,236.1z
			 M54.1,237L54.1,237L54.1,237z M24.2,166.3L24.2,166.3L24.2,166.3L24.2,166.3C24.2,166.2,24.3,166.3,24.2,166.3z M24.6,166.3
			c-0.1,0-0.1-0.1-0.1-0.1c0.1,0,0.2,0,0.3,0C24.7,166.2,24.7,166.3,24.6,166.3L24.6,166.3z M26.1,168.2v0.1c0,0.1-0.1,0.1-0.2,0.2
			s0,0,0,0c0-0.1,0-0.2,0-0.3l-0.1-0.1c0-0.1,0-0.1,0.1-0.1s0.1,0,0.1,0.1C26,168.1,26,168.2,26.1,168.2L26.1,168.2z M27.2,168.5
			L27.2,168.5L27.2,168.5C27.1,168.5,27.1,168.5,27.2,168.5L27.2,168.5z M54.3,228.6L54.3,228.6c-0.1,0-0.2-0.1-0.4-0.2
			c0.1-0.3,0.1-0.6,0.2-0.9s0.2,0,0.3,0.1C54.5,227.9,54.4,228.3,54.3,228.6L54.3,228.6z M53.9,228.8c0.1,0.2,0,0.3-0.1,0.4l0,0
			c-0.1,0-0.2,0-0.2-0.1S53.7,228.8,53.9,228.8L53.9,228.8z M28.4,167.6c-0.1-0.1-0.1-0.2,0-0.3h0.1
			C28.6,167.6,28.5,167.5,28.4,167.6z M27.9,164.4L27.9,164.4C27.9,164.6,27.9,164.5,27.9,164.4L27.9,164.4z M27.6,164.6
			c0,0.1-0.1,0.1,0,0.2C27.5,164.7,27.5,164.6,27.6,164.6L27.6,164.6L27.6,164.6z M28,165.9L28,165.9C28.1,165.9,28.1,166,28,165.9
			L28,165.9z M29.2,167c0,0.2-0.1,0.4-0.2,0.5h-0.1h-0.1v-0.1c0-0.1,0.1-0.2,0.2-0.3c0-0.1,0-0.2,0-0.2S29.2,166.9,29.2,167
			L29.2,167z M29.9,166.9c0,0.1-0.1,0-0.1,0.1s-0.1-0.1-0.1-0.1s-0.1-0.2-0.2-0.2c0.1-0.1,0.1-0.1,0.3,0v0.1
			C29.8,166.8,29.9,166.8,29.9,166.9L29.9,166.9z M28.6,163c-0.1,0.1-0.1,0.1-0.2,0s0,0,0-0.1v-0.2C28.5,162.8,28.5,162.9,28.6,163z
			 M30.5,167.1c0,0.1-0.1,0.1-0.1,0.2c-0.1,0-0.1,0-0.2-0.1c0-0.1,0-0.1,0-0.2l0.1-0.1C30.5,166.9,30.5,166.9,30.5,167.1L30.5,167.1
			z M30,166.3L30,166.3z M29,164.2h-0.4c0.2-0.1,0.4-0.2,0.6-0.2C29.1,164.1,29.1,164.1,29,164.2L29,164.2z M29.2,164L29.2,164
			L29.2,164z M30.4,166h-0.2c0.1-0.2,0.1-0.3,0.3-0.3C30.6,165.8,30.5,165.8,30.4,166L30.4,166z M30.6,165.1c0-0.1,0-0.1,0-0.2
			c0-0.1,0.1-0.1,0.1-0.2l0,0C30.7,165,30.7,165,30.6,165.1L30.6,165.1z M54.4,230.9c0-0.2,0-0.5,0.1-0.6s0.1-0.1,0.2-0.1
			c0,0.1,0,0.1,0,0.2C54.7,230.6,54.6,230.8,54.4,230.9L54.4,230.9z M25.2,164.9C25.2,164.9,25.2,164.8,25.2,164.9
			c-0.1-0.1-0.1-0.1-0.1-0.1C25.2,164.8,25.3,164.8,25.2,164.9L25.2,164.9z M57.9,229.8c-0.2,0-0.4,0-0.4-0.4
			c0.2-0.3,0.4-0.6,0.9-0.5c0,0.1,0.1,0.2,0.1,0.3s0,0.2,0,0.3C58.3,229.7,58.1,229.8,57.9,229.8L57.9,229.8z M54.4,234.8
			c0.1-0.1,0.3-0.1,0.4-0.2c0,0.2-0.2,0.4-0.4,0.5C54.3,235,54.3,234.9,54.4,234.8L54.4,234.8z M68.9,248.4c0-0.1,0-0.1,0-0.2
			c0.6-0.3,0.6-0.3,0.9,0c0,0.1,0,0.2-0.1,0.2C69.3,248.7,69.3,248.7,68.9,248.4L68.9,248.4z M75.4,218.5v0.1
			c-0.1,0.1-0.2,0.1-0.2,0C75.2,218.5,75.3,218.5,75.4,218.5L75.4,218.5z M74.8,217.7C74.8,217.8,74.8,217.8,74.8,217.7
			C74.6,217.8,74.8,217.7,74.8,217.7L74.8,217.7z M73,248.8c-0.2,0.1-0.4,0.1-0.5-0.1C72.7,248.6,72.9,248.6,73,248.8l0.1-0.1
			C73.2,248.9,73.1,248.9,73,248.8L73,248.8z M74,248.8c0.1,0,0.1,0,0.1,0.1S74,248.9,74,248.8L74,248.8z M71.2,217.8
			c0.2,0,0.3,0.1,0.3,0.3c0,0,0,0.1-0.1,0.1l-0.1,0.1c-0.1,0-0.1,0-0.1,0s-0.1-0.1-0.2-0.2C71,218,71.1,217.9,71.2,217.8L71.2,217.8
			z"/>
		<g>
			<g>
				<g>
					<path class="st1" d="M184.8,277.3c-0.1-0.4-0.4-0.7-0.3-1c0.8-1.5,1.3-3.3,3.3-4.2c1.4,0,3-0.4,4.1,0.6c-0.1,0.4,0,0.9-0.2,1
						c-1.8,0.9-2.8,2.4-4,3.7C186.5,277.4,185.6,277.4,184.8,277.3L184.8,277.3z M193.2,275.2c1.3-0.7,2.8-0.9,4.2-0.6
						c1.3,1.2,1,2.5-1,4C195,277.6,193.5,276.9,193.2,275.2L193.2,275.2z M202,284.8c1.8-1.1,1.8-1.1,2.4,0.1
						C203.7,285.3,202.8,285.2,202,284.8L202,284.8z"/>
				</g>
			</g>
		</g>
		<g>
			<g>
				<defs>
					<circle id="SVGID_1_" cx="167.3" cy="153.6" r="142.2"/>
				</defs>
				<clipPath id="SVGID_2_">
					<use xlink:href="#SVGID_1_"  style="overflow:visible;"/>
				</clipPath>
				<g class="st5">
					<path class="st4" d="M112.7,154.4c0.1,0,0.2,0,0.3,0.1c12.1,28.5,20.8,58.3,25.8,88.9c-1.9-47.6,10-103,10.1-103.6
						c0-0.1,0.1-0.2,0.2-0.2c0.1,0,0.2,0.1,0.2,0.2c6.1,40.5,1.1,81.4-3.2,105.5c2.5-8.7,7.2-24.2,14.4-44.2
						c13.6-37.9,28.6-68.8,28.8-69.1c0-0.1,0.1-0.1,0.2-0.1c0.1,0,0.2,0.1,0.2,0.2c-3.6,37.5-16.5,72.2-26.7,94.7
						c-4,8.8-7.9,16.4-11.2,22.6c12.4-18.3,37.4-50.3,84.8-96.2c0.1-0.1,0.2-0.1,0.3,0l0,0c0.1,0.1,0.1,0.2,0,0.3
						c-0.5,0.7-42.7,66-83.4,103.8c46.1-33,113.2-60.9,114-61.3c0.1,0,0.2,0,0.3,0.1c0.1,0.1,0.1,0.2,0,0.3
						c-29.3,25.9-65.9,45.1-92.2,56.9c43.4-12.4,92.2-14.5,92.8-14.5c0.1,0,0.2,0.1,0.2,0.2c0,0.1,0,0.2-0.1,0.2
						c-0.3,0.1-27.1,13.6-58.2,20.1c-16.9,3.5-35.7,5.5-49.3,6.6c42.9,0.4,96.3,12,97,12.1c0.1,0,0.2,0.1,0.2,0.2s-0.1,0.2-0.2,0.2
						c-27.4,4.1-55.3,3.6-82.4-1.7c-4.8-0.9-9.2-1.9-13.2-2.9c26.2,12.9,56.7,37.9,57.1,38.3l0,0c0.1,0.1,0.1,0.2,0.1,0.3
						c0,0.1-0.1,0.1-0.2,0.1c-21.1-3.5-48.7-22.5-64.8-34.8c16.4,16.9,25.5,38.2,25.6,38.5c0,0.1,0,0.2-0.1,0.3
						c-0.1,0.1-0.2,0.1-0.3,0l0,0c-26-23.3-36.1-43.9-38.2-48.5l-45.7,57.8c0,0-0.1,0.1-0.2,0.1s-0.1,0-0.2-0.1l-3-2.5
						c-0.1-0.1-0.1-0.2,0-0.3c0-0.1,5.4-7.8,26.4-30.9c8.8-9.7,16.3-18.2,22-24.9h-0.1l-0.5-0.2c-6.7-1.8-27.9-8.7-56.8-28.5l0,0
						c-0.1-0.1-0.1-0.2-0.1-0.3c0.1-0.1,0.2-0.1,0.3-0.1c0.3,0.1,23.1,6.2,41.4,16.1c-12.2-11.3-28.1-29-39.8-52.5
						c0-0.1,0-0.2,0.1-0.3s0.2-0.1,0.3,0c0.4,0.3,28.6,26.8,46.5,50c-14.2-34.1-19.6-95.9-19.7-96.7
						C112.5,154.6,112.6,154.5,112.7,154.4z"/>
					<path class="st6" d="M-2.3,21.4C8.5,38,7.6,165.7,61.2,149c28.6-8.9,21.2-39.1,38.6-49.6s46.8,0.6,56.5-15.7
						c7.8-13,9.8-23,17.5-29.5c8.4-7.2,22.6-10.5,30.7-11c15.4-1,31.9-26.7,32-26.8c0.3-9.6-38.4-23-41.3-32.2
						c-0.1,0.1-72.1-46.1-81.5-57.4C106.4-70.1-11.6,25.6-2.3,21.4z M152.8,30.4L152.8,30.4L152.8,30.4z M154.7,31.5
						c0-0.2-0.1-0.4-0.1-0.6c0.2-0.1,0.3,0,0.5,0.1c0,0.2,0.1,0.4-0.1,0.6C154.8,31.7,154.7,31.7,154.7,31.5
						C154.7,31.6,154.7,31.6,154.7,31.5L154.7,31.5z M171.3,24.2c0-0.1,0-0.2,0.1-0.2c0.2-0.1,0.3,0,0.4,0.1c0.1,0.1,0.1,0.2,0,0.3
						C171.6,24.4,171.4,24.4,171.3,24.2L171.3,24.2z M165.1,29.1h-0.2c0-0.2,0-0.2,0.2-0.3S165.2,29.1,165.1,29.1L165.1,29.1z
						 M166.3,24.8c0.1,0.2-0.1,0.2-0.2,0.4S166,25.1,166,25S166.2,24.8,166.3,24.8L166.3,24.8z M165.8,25.1l-0.1,0.1
						c-0.2,0-0.2,0-0.2-0.2C165.6,25,165.8,25,165.8,25.1L165.8,25.1z M178.7,17.3L178.7,17.3C178.7,17.4,178.7,17.3,178.7,17.3
						C178.6,17.3,178.6,17.3,178.7,17.3L178.7,17.3z M178.3,17.8c0,0.2-0.2,0.4-0.3,0.5s0.1,0.2-0.1,0.3c-0.1,0.1-0.3,0.2-0.5,0.1
						c-0.1-0.1-0.2-0.2-0.3-0.4c0-0.2,0.1-0.4,0.2-0.6l0.4-0.3h0.3C178.3,17.6,178.3,17.7,178.3,17.8L178.3,17.8z M179.1,16.9
						L179.1,16.9L179.1,16.9C179.1,16.9,179,16.9,179.1,16.9S179.1,16.9,179.1,16.9L179.1,16.9z M167.1,23c0.1,0.1,0.1,0.3,0,0.5
						c-0.2,0.1-0.4,0.1-0.6,0c-0.2-0.1-0.2-0.3-0.2-0.5C166.6,22.8,166.9,22.9,167.1,23L167.1,23z M160.5,25.9
						c0.1,0.1,0.1,0.3,0.1,0.4c-0.1,0.1-0.2,0.1-0.3-0.2c-0.1-0.1-0.2,0.1-0.3,0.1C160,25.9,160,25.9,160.5,25.9L160.5,25.9z
						 M151.9,30L151.9,30L151.9,30C151.9,29.9,152,30,151.9,30z M38,107.9c0.1,0.3,0.2,0.4,0.2,0.5c0,0.3-0.2,0.7-0.5,0.8
						c-0.3,0.2-0.7,0.1-1-0.1c-0.1-0.2,0-0.4,0-0.6C37.1,108.1,37.6,108.3,38,107.9z M165.4,18.5L165.4,18.5L165.4,18.5z
						 M156.8,22.7c0-0.3,0.4-0.4,0.4-0.6c0.2,0,0.3,0,0.4,0.1s0,0.3-0.1,0.4C157.3,22.8,157,22.9,156.8,22.7L156.8,22.7z M167,18
						L167,18L167,18z M143.9,32c0.2-0.1,0.4,0,0.6-0.1s0.3-0.2,0.5-0.1s0.1,0.1,0,0.2c-0.1,0.1-0.3,0.3-0.4,0.5
						c-0.2,0.1-0.4,0.2-0.6,0.1c-0.1-0.1-0.2-0.2-0.2-0.3L143.9,32z M156.3,27.4c-0.1,0.1-0.1,0.2-0.3,0.1
						C156,27.4,156.1,27.3,156.3,27.4L156.3,27.4L156.3,27.4z M166.3,22L166.3,22L166.3,22z M153.5,28.6v0.1
						C153.5,28.7,153.4,28.7,153.5,28.6v-0.1C153.6,28.5,153.5,28.6,153.5,28.6z M174,17.7c-0.1,0.1-0.2,0.1-0.2,0s0-0.1,0-0.2
						c0,0,0-0.1,0.1-0.1C174.1,17.5,174,17.6,174,17.7z M157.4,21.3h-0.2c0.1-0.3,0.1-0.3,0.3-0.3C157.6,21.1,157.6,21.2,157.4,21.3
						L157.4,21.3z M112.5,42.8c0.1,0.2,0.1,0.3,0.1,0.5c-0.2,0.1-0.2,0.1-0.3-0.3c-0.2-0.1-0.2,0.2-0.3,0.1
						C112,42.7,112.1,42.7,112.5,42.8z M43.5,107c0.2,0.2,0.3,0.5,0.2,0.8l-0.4,0.3l-0.2,0.5c0.1-0.3,0.1-0.4,0.2-0.5
						c-0.2-0.3-0.5-0.7-0.3-1.1C43.1,106.9,43.3,106.9,43.5,107z M1.9,120.7c0.1-0.1,0.2-0.2,0.2-0.3c0.1,0,0.2-0.1,0.3-0.1
						c0.3,0,0.3,0.2,0.2,0.4C2.3,121,2.1,120.9,1.9,120.7z M-7.2,124c-0.1,0.7-0.1,0.7-0.9,0.8c-0.1-0.3-0.1-0.6,0.2-0.9
						C-7.8,123.8-7.4,123.8-7.2,124z M61.2,88.4c0.3-0.1,0.5-0.1,0.8,0.1c0.1,0.2,0.1,0.3,0,0.5c-0.3,0.2-0.6,0.1-0.8-0.2
						c0,0-0.1-0.1-0.1-0.2L61.2,88.4z M23.7,112.2c0.4,0.2,0.8,0.3,0.7,0.7c-0.1,0.2-0.1,0.2-0.9,0.6l-1.1-0.5
						c0-0.2,0.1-0.4,0.3-0.7L23.7,112.2z M49.7,127.4c0,0.2,0,0.4-0.2,0.5s-0.2,0.1-0.5,0c-0.1-0.1,0-0.2,0-0.4l0.4-0.3
						C49.5,127.2,49.6,127.3,49.7,127.4L49.7,127.4z M64,88.7L64,88.7L64,88.7L64,88.7z M46.3,127.2c0.2,0,0.4,0.1,0.5,0.2
						c0,0.2-0.1,0.3-0.2,0.4c-0.2,0.2-0.4,0.2-0.6,0.1c-0.1-0.1-0.2-0.3-0.2-0.4C46,127.4,46.1,127.3,46.3,127.2L46.3,127.2z
						 M22.9,102.7l-0.5,0.3c-0.1,0.3,0.2,0.5-0.1,0.8c-0.7,0.2,0.1-0.9-0.7-0.4c0.1-0.4,0.2-0.7,0.3-0.9l-0.7-0.6l1.3-0.3
						c0.2,0.1,0.4,0.2,0.6,0.3C23.2,102.1,22.9,102.4,22.9,102.7z M13,108.1L13,108.1L13,108.1L13,108.1z M49,123.1
						c0,0.1,0,0.2-0.2,0.3C48.8,123.2,48.8,123.1,49,123.1L49,123.1z M18.5,102.2c-0.4-0.2-0.2-0.4-0.1-0.7
						C18.7,101.7,18.7,101.7,18.5,102.2z M148.6,15.4c0-0.1,0.1-0.1,0.2-0.1C148.8,15.3,148.7,15.4,148.6,15.4L148.6,15.4z
						 M166.9-28h-0.1c0-0.1,0-0.2,0-0.3c0.2-0.1,0.4-0.1,0.4,0.1C167.1-28.2,167-28.1,166.9-28z M145.9,12.9c0,0.1,0,0.2-0.1,0.3
						s-0.3,0.1-0.5,0.1c-0.1,0-0.1-0.1-0.1-0.2c0.1-0.1,0.2-0.3,0.3-0.4C145.6,12.7,145.8,12.7,145.9,12.9L145.9,12.9z M146,12.9
						c0.2-0.1,0.4-0.1,0.6,0c0.1,0.1,0.1,0.3,0,0.4l0,0c-0.1,0-0.3,0-0.4-0.1C146,13.3,145.9,13.1,146,12.9L146,12.9L146,12.9z
						 M148.4,12.3L148.4,12.3L148.4,12.3C148.3,12.3,148.4,12.3,148.4,12.3L148.4,12.3c0-0.1,0.1-0.2,0.2-0.2c0.1-0.1,0.2-0.1,0.3,0
						c0,0.1,0,0.3-0.1,0.4h-0.1C148.7,12.5,148.6,12.2,148.4,12.3L148.4,12.3z M49.7,117.6c-0.2,0.2-0.3,0.1-0.4,0.1
						C49.5,117.5,49.6,117.6,49.7,117.6z M40.3,122.5C40.2,122.5,40.2,122.4,40.3,122.5C40.2,122.4,40.3,122.4,40.3,122.5z
						 M40.3,121.5c-0.5-0.2-0.5-0.3-0.4-0.8c0.1-0.1,0.2-0.1,0.3-0.1l0.2,0.1c0.1,0.2,0.1,0.4,0.1,0.6
						C40.5,121.4,40.4,121.5,40.3,121.5L40.3,121.5z M45.2,118.5C45.1,118.5,45.1,118.4,45.2,118.5
						C45.1,118.4,45.3,118.4,45.2,118.5L45.2,118.5z M43.8,118.1L43.8,118.1l0.4,0.5c-0.1,0.2-0.2,0.5-0.5,0.6c-0.1,0-0.3,0-0.4-0.1
						c-0.1-0.1-0.2-0.2-0.2-0.4c0-0.2,0.1-0.4,0.3-0.6H43.8z M42.5,118.3c0.1,0.2-0.1,0.4-0.2,0.6c-0.1,0.1-0.3,0.2-0.5,0.2
						c0-0.1,0-0.1,0-0.2l0.4-0.3C42.4,118.4,42.3,118.2,42.5,118.3L42.5,118.3z M38,120.1c0,0.2-0.1,0.4-0.2,0.7
						c-0.2-0.1-0.3-0.3-0.2-0.5l0,0c0-0.2,0.2-0.4,0.3-0.4C38,120,38,120.1,38,120.1z M33.8,119.9c-0.1,0.2-0.3,0.2-0.5,0.3
						C33.4,120,33.6,119.9,33.8,119.9L33.8,119.9z M36.8,116.5c0,0.1-0.1,0.2-0.3,0.2c-0.1,0-0.2,0-0.3-0.1c0-0.1,0-0.2,0.1-0.3
						c0.1-0.1,0.3-0.1,0.4,0C36.7,116.4,36.7,116.4,36.8,116.5L36.8,116.5z M37.7,115.4C37.8,115.4,37.8,115.4,37.7,115.4
						 M37.8,115.5C37.7,115.5,37.7,115.4,37.8,115.5L37.8,115.5z M40.7,109.9c0.1,0,0.1,0.2,0.2,0.2s-0.2,0.1-0.2,0.1
						S40.5,110,40.7,109.9L40.7,109.9z M139.4-17c-0.2,0.2-0.5,0.2-0.6,0c0-0.1,0-0.1,0-0.2c0.2-0.2,0.3-0.5,0.6-0.4
						C139.5-17.4,139.5-17.2,139.4-17z M42.7,107.5c0,0.2,0,0.2-0.2,0.4c-0.3-0.2-0.3-0.2,0-0.5C42.6,107.3,42.6,107.4,42.7,107.5z
						 M47.2,104.2c0,0.1-0.1,0.2-0.2,0.1l0,0C46.9,104.3,47,104.2,47.2,104.2C47.1,104.2,47.2,104.2,47.2,104.2z M129.9-16.8
						c0-0.2,0.1-0.4,0.2-0.6c0.1-0.1,0.2-0.1,0.4-0.1s0.2,0.2,0.3,0.3c0,0.2-0.1,0.4-0.3,0.5C130.2-16.5,130-16.6,129.9-16.8
						L129.9-16.8z M129.2-16L129.2-16L129.2-16z M41.3,106C41.3,106,41.3,106.1,41.3,106c-0.2,0.1-0.2,0.1-0.2,0c0,0,0-0.1,0.1-0.1
						C41.2,105.9,41.3,106,41.3,106z M41.2,105.2c0,0.1-0.1,0.3-0.2,0.3c-0.1-0.2,0-0.4,0-0.6C41.2,104.8,41.3,105,41.2,105.2
						C41.3,105.2,41.2,105.2,41.2,105.2L41.2,105.2z M132.2,28.4l0.2-0.1c0.2,0,0.3,0.2,0.4,0.3s0,0.1-0.1,0.1c-0.2,0-0.4,0-0.6,0
						L132,29c-0.1-0.1-0.3-0.1-0.3-0.2s0-0.2,0.1-0.2L132.2,28.4z M132.8,26v0.1l-0.1,0.1c0,0-0.1,0-0.1-0.1l0,0
						C132.7,26.1,132.8,26.1,132.8,26L132.8,26z M132.5-24.2L132.5-24.2c-0.2,0-0.2-0.1-0.3-0.3l0.5-0.8c0.2-0.1,0.2,0.1,0.3,0.2
						C132.9-24.8,132.8-24.5,132.5-24.2L132.5-24.2z M132.1-24.2c0,0.2-0.1,0.3-0.3,0.4c-0.1,0-0.2-0.1-0.2-0.1
						C131.8-24.2,131.9-24.2,132.1-24.2L132.1-24.2z M130.8,23.3c-0.3,0.2-0.4,0.2-0.6,0c0-0.1,0-0.2,0.1-0.3
						C130.6,23,130.6,23.3,130.8,23.3L130.8,23.3z M120-17.6c-0.1-0.1,0-0.2,0.1-0.2S120.2-17.7,120-17.6
						C119.9-17.5,120-17.6,120-17.6z M120.9-17.3c0.2-0.3,0.5-0.2,0.6-0.4c0,0.4-0.2,0.7-0.5,0.7c-0.1,0-0.1,0-0.1-0.1
						C120.9-17.1,120.9-17.2,120.9-17.3L120.9-17.3z M127.2,24.3c0,0.1-0.1,0.1-0.1,0.1l0,0C127,24.4,127,24.3,127.2,24.3
						C127.2,24.3,127.2,24.2,127.2,24.3L127.2,24.3z M129.4,21.6c0.4,0,0.8,0.2,1.2,0.4c0,0.1,0,0.2,0,0.2c0,0.1,0,0.1,0,0.2
						c-0.1,0-0.1,0.1-0.2,0c-0.3-0.1-0.5-0.2-0.7-0.4l-0.6-0.1C129,21.7,129.2,21.6,129.4,21.6L129.4,21.6z M129,20.1
						c0.1,0.1,0.1,0.2,0.2,0.3c-0.1,0.1-0.2,0.2-0.2,0.3c-0.2,0.1-0.3,0.2-0.5,0.4c-0.2-0.3-0.2-0.3,0-0.7c0.1-0.1,0.2-0.1,0.2,0
						C128.8,20.3,128.9,20.1,129,20.1z M115.4-16.3c0.3,0,0.3,0,0.3,0.5c0,0.1,0,0.1-0.1,0.2c-0.1,0.2-0.3,0.3-0.5,0.5
						C115.2-15.6,115.5-15.9,115.4-16.3z M129.4,18.7c0.2,0,0.3,0.1,0.4,0.2c0,0.2-0.1,0.3-0.2,0.4c-0.1,0.1-0.3,0.1-0.5,0
						c-0.1-0.1-0.2-0.2-0.2-0.3C129,18.8,129.2,18.7,129.4,18.7L129.4,18.7z M127.8,20L127.8,20L127.8,20z M117.3-19.4
						c0.3,0.3,0.6,0.6,0.9,0.9c-0.7-0.1-1.3-0.4-1.7-0.9C116.9-19.7,117.2-19.5,117.3-19.4z M116.4-19.5L116.4-19.5L116.4-19.5
						L116.4-19.5z M127,18.9c0,0.1,0,0.3,0,0.5c-0.4-0.1-0.6-0.2-0.7-0.6C126.6,18.6,126.7,18.9,127,18.9z M116.1-24.8
						c-0.1,0.2-0.3,0.2-0.4,0.3c-0.2,0.1-0.4,0.1-0.7,0c0,0,0,0,0-0.1C115.9-25,115.9-25,116.1-24.8z M109.6-12.8
						c0.1,0.1,0.3,0.3,0.2,0.6c-0.1,0.2-0.4,0.3-0.6,0.4c0-0.1-0.1-0.2-0.1-0.2l0.2-0.1C109.3-12.1,109.4-12.7,109.6-12.8
						L109.6-12.8z M117.1,17.9L117.1,17.9l-0.1-0.1c0.1-0.1,0.1,0,0.2,0l0,0c0.1-0.2,0.2-0.3,0.4-0.3l0,0c0-0.1,0.1-0.1,0.2-0.1l0,0
						l0,0l0,0l0,0c-0.1,0.1-0.1,0.1-0.2,0.1l0,0c-0.1,0.2-0.2,0.3-0.4,0.3l0,0C117.2,17.9,117.2,17.9,117.1,17.9L117.1,17.9l0.2,0.1
						l0.1-0.1c0,0.1,0,0.1-0.1,0.1c-0.1,0.2-0.3,0.2-0.5,0.1l0,0l-0.1,0.1c0-0.1,0-0.1,0.1-0.1l0,0L117.1,17.9L117.1,17.9z
						 M116.2,18.1c0,0.1-0.2,0.2-0.3,0.1l0,0c-0.1,0.1-0.1,0.1-0.2,0s0.1,0,0.2,0l0,0c0.1-0.1,0.1-0.3-0.1-0.5
						C116.2,17.8,116.2,17.9,116.2,18.1L116.2,18.1z M114.2,14.7c0.1-0.2,0.2-0.2,0.2-0.2c0.2,0.1,0.4,0.3,0.5,0.4
						c0,0.4,0,0.4-0.3,0.6C114.6,15.3,114.4,15,114.2,14.7L114.2,14.7z M98.2-9.3c0-0.1,0.1-0.1,0.1-0.2c0.1-0.1,0.2-0.1,0.4-0.3
						c0.1,0.6,0.1,0.6-0.3,0.8l-0.1-0.1C98.2-9.2,98.2-9.2,98.2-9.3L98.2-9.3z M109.3-29.9c-0.1,0.1-0.2,0.1-0.3,0.1
						c-0.1-0.1-0.1-0.3,0-0.4C109.2-30.3,109.2-30.1,109.3-29.9L109.3-29.9z M101.7-19.2c0.3,0,0.5,0.1,0.7,0.3c0,0.2,0,0.3,0,0.5
						c-0.3,0.1-0.5,0.5-0.8,0.8c-0.2-0.4-0.3-0.9-0.2-1.3C101.4-19.1,101.5-19.2,101.7-19.2L101.7-19.2z M101.3-19.3
						c-0.1,0.2-0.2,0.3-0.4,0.3c-0.2,0-0.3-0.1-0.4-0.2c0-0.1,0-0.1,0-0.2c0.1-0.3,0.3-0.5,0.6-0.4S101.2-19.7,101.3-19.3
						L101.3-19.3z M98.7-16.6c0,0.1-0.1,0.2-0.2,0.2s-0.2,0-0.3,0l0,0h-0.1l0,0l0,0c0-0.2-0.2-0.2-0.3-0.4s0-0.1,0-0.1
						c0.1-0.1,0.2-0.2,0.4-0.2C98.3-16.9,98.5-16.7,98.7-16.6L98.7-16.6z M99.2-20.5c-0.1-0.1-0.1-0.1,0-0.2l0,0c0,0,0.1,0,0.2,0
						s0.1,0.1,0,0.2l0,0C99.3-20.5,99.2-20.5,99.2-20.5L99.2-20.5z M93.4-20.3L93.4-20.3L93.4-20.3L93.4-20.3z M93.4-21.1
						c0,0.1,0,0.2-0.1,0.2S93.2-21.1,93.4-21.1L93.4-21.1z M91.4-17c0.2,0,0.2,0.1,0.2,0.2s-0.2,0.1-0.2,0.1S91.4-16.9,91.4-17z
						 M95.7-27.8c0.1,0.1,0.2,0.3,0.2,0.5c-0.1,0.2-0.3,0.3-0.5,0.3s-0.3-0.2-0.3-0.3C95.2-27.6,95.4-27.8,95.7-27.8L95.7-27.8z
						 M92.2-25.8l0.1,0.1c0.1,0.2,0,0.5,0.2,0.7s0.2,0.5,0.2,0.7l0,0v0.1c0,0,0,0,0-0.1l0,0c-0.1,0-0.3,0-0.4,0
						c-0.2,0-0.4,0-0.5-0.2s0.1-0.4,0.1-0.7l-0.3-0.1C91.7-25.6,91.9-25.8,92.2-25.8L92.2-25.8z M88-16.1c0.1-0.1,0.2-0.1,0.2,0
						c0.1,0.2,0,0.4-0.2,0.5C87.9-15.8,87.9-16,88-16.1z M49.2,99.1h0.2c0,0.1,0.1,0.1,0.1,0.2c-0.2,0.1-0.5,0.2-0.7,0.1
						C49,99.4,49,99.2,49.2,99.1z M87.7-15.4L87.7-15.4c0-0.1,0.2-0.1,0.4,0.1c0,0.3,0.1,0.6,0.1,1c-0.2,0.2-0.2,0-0.4,0
						C87.7-14.7,87.7-15,87.7-15.4z M49.3,97c-0.1,0-0.1-0.1-0.1-0.2s0.1-0.1,0.2-0.1C49.4,96.8,49.4,96.8,49.3,97z M86.8-17.6
						c0.1,0.2,0.2,0.5,0.1,0.7c0,0.1-0.1,0.2-0.2,0.1s-0.1-0.1-0.1-0.1c0-0.2,0-0.4,0-0.7H86.8z M74.3-4.4c0,0.2-0.1,0.3-0.3,0.4
						c-0.2,0.1-0.4,0.2-0.6,0.1c0-0.3,0.1-0.6,0.1-0.8c0.1-0.2,0.3-0.4,0.6-0.4C74.4-5,74.4-4.7,74.3-4.4z M76.3-11
						C76.3-11.1,76.3-11.1,76.3-11l0.2-0.1c0.2,0.1,0.3,0.3,0.3,0.4c0,0.1-0.1,0.2-0.2,0.2s-0.3-0.1-0.4-0.1c-0.2,0.2-0.4,0-0.7-0.1
						c0.2-0.1,0.4,0,0.6,0.1C76.3-10.8,76.3-10.9,76.3-11L76.3-11z M70.6-1.3C70.7-2,70.8-2,71.4-2.1c0.2,0.1,0.2,0.3,0.2,0.5
						c0,0.1-0.1,0.1-0.1,0.2C71.2-1.2,70.9-1.1,70.6-1.3z M69.6,2L69.6,2L69.6,2C69.5,1.9,69.5,2,69.6,2L69.6,2
						c0-0.1,0.1-0.2,0.2-0.2c0.1-0.1,0.3,0,0.4,0.1s0.1,0.2,0,0.3l0,0C69.9,2.2,69.8,2,69.6,2z M47.8,93.6c-0.1-0.2-0.1-0.2,0-0.4
						c0,0,0.1-0.1,0.2,0l0,0c0,0.1,0,0.2,0,0.2C47.9,93.6,47.9,93.6,47.8,93.6z M49.5,92.9C49.5,92.9,49.6,92.9,49.5,92.9
						C49.6,92.9,49.5,93,49.5,92.9L49.5,92.9z M76.7-2.2c0-0.2,0.2-0.3,0.2-0.4c0.1-0.1,0.3,0,0.4,0.1c0,0,0,0,0,0.1s0,0.3-0.1,0.4
						C77-1.9,76.9-2,76.7-2.2z M78.4-5.1c-0.1,0-0.1-0.1-0.2-0.2c0-0.2,0.2-0.2,0.3-0.2s0.2,0.2,0.1,0.4C78.6-5.1,78.5-5.1,78.4-5.1
						z M83.3-14.7c0-0.1-0.1-0.2-0.1-0.3c0.1-0.2,0.2-0.4,0.4-0.4c0.2-0.1,0.4-0.1,0.6,0.2c-0.1,0.4-0.2,0.8-0.7,0.8
						C83.4-14.5,83.3-14.6,83.3-14.7z M48.8,95.4C48.8,95.4,48.8,95.3,48.8,95.4l0.2-0.2c0,0,0.1,0,0.1,0.1S49,95.4,48.8,95.4z
						 M81.9-9.4C81.9-9.4,81.8-9.4,81.9-9.4c-0.3-0.1-0.3-0.3-0.4-0.4C81.8-9.8,81.9-9.7,81.9-9.4L81.9-9.4z M77.6,5
						c0.1,0,0.2,0,0.2,0.1S77.6,5.1,77.6,5z M51.8,92.5c-0.1,0.1-0.2,0.1-0.3,0.1C51.7,92.4,51.7,92.4,51.8,92.5z M46.7,98.1
						L46.7,98.1c0-0.1,0.1-0.2,0.2-0.2c0,0,0.1,0.1,0,0.2C46.8,98.1,46.7,98.1,46.7,98.1z M53.6,93.8L53.6,93.8L53.6,93.8
						C53.6,93.7,53.6,93.7,53.6,93.8C53.6,93.9,53.6,93.8,53.6,93.8z M52.4,97.3c0-0.1,0-0.2,0-0.2c0.1,0,0.3,0.1,0.3,0.2
						C52.6,97.4,52.6,97.4,52.4,97.3z M99.5-26.4L99.5-26.4C99.5-26.5,99.5-26.5,99.5-26.4L99.5-26.4c0.3,0.1,0.6,0.2,0.9,0.4
						c0.2,0.3,0.2,0.6,0.1,0.9c-0.2,0.4-0.5,0.7-0.9,1L99.3-24c-0.2-0.1-0.3-0.3-0.3-0.5c0.3-0.2,0.6-0.3,0.9-0.6
						c0.1-0.1,0-0.3-0.1-0.4C99.7-25.8,99.6-26.1,99.5-26.4L99.5-26.4z M98.6-24.3c0.1,0.1,0.1,0.3,0,0.5
						C98.5-23.9,98.5-24.1,98.6-24.3z M96.9-20.1c0,0,0,0-0.1-0.1c0.2-0.1,0.4-0.1,0.6-0.1C97.3-20,97.2-19.9,96.9-20.1z M54.1,95.5
						c-0.1,0-0.2-0.1-0.2-0.2l0.1-0.1L54.1,95.5L54.1,95.5L54.1,95.5z M131.9-21.9c0-0.2,0.2-0.5,0.4-0.6c0.1,0,0.2-0.1,0.2,0
						s0,0.1,0,0.2c-0.1,0.2-0.3,0.3-0.4,0.5L131.9-21.9z M38,103.8c0,0.1-0.1,0.2-0.2,0.2l0,0C37.8,103.9,37.9,103.8,38,103.8z
						 M135.6-21.7c-0.2-0.1-0.4-0.2-0.3-0.5c0.3-0.2,0.6-0.4,1-0.2c0,0.1,0,0.2-0.1,0.3c0,0.1-0.1,0.2-0.1,0.3
						C136-21.6,135.8-21.6,135.6-21.7z M130.4-18.1c0.2,0,0.3,0,0.5,0c-0.1,0.2-0.3,0.3-0.6,0.3C130.2-17.9,130.2-18,130.4-18.1z
						 M145.1-48c-0.1-0.1-0.1-0.2-0.1-0.3c0.1-0.6,0.4-1.1,0.8-1.4c0.4-0.2,0.9-0.2,1.3,0c0,0.1,0,0.3,0,0.3c-0.4,0.4-0.7,0.8-1,1.3
						L145.1-48z M147.5-49c0.4-0.3,0.8-0.4,1.2-0.4c0.4,0.3,0.4,0.7-0.1,1.2C148.1-48.4,147.6-48.5,147.5-49z M150.6-46.5
						c0.5-0.4,0.5-0.4,0.7-0.1C151.1-46.4,150.8-46.4,150.6-46.5L150.6-46.5z M160.4-18.5c-0.2-0.2-0.1-0.3,0.1-0.5h0.2
						c0,0.1,0.1,0.1,0.1,0.2C160.8-18.6,160.6-18.5,160.4-18.5L160.4-18.5z M168.9-12.1h-0.2C168.8-12.2,168.9-12.1,168.9-12.1
						L168.9-12.1c0.2-0.1,0.4-0.2,0.5,0C169.3-12,169.1-12,168.9-12.1z M166-9.3L166-9.3c-0.2,0-0.3,0-0.4-0.1c0-0.1,0-0.2,0.1-0.2
						S165.9-9.4,166-9.3L166-9.3L166-9.3c0.1,0,0.2,0,0.2,0.1S166-9.2,166-9.3z M167.4-9.7c0.1,0,0.1,0.1,0.1,0.1
						S167.3-9.6,167.4-9.7L167.4-9.7z M149.3,15.1l0.1-0.1c0.5-0.1,0.5-0.1,0.7,0.2l-0.1,0.1C149.6,15.3,149.6,15.3,149.3,15.1
						L149.3,15.1z M150.2,17.4h0.1c0.1,0.1,0.1,0.2,0,0.3C150.2,17.6,150.2,17.5,150.2,17.4L150.2,17.4z M149.2,18.1
						c0.1,0,0.1,0.1,0.1,0.1S149.1,18.2,149.2,18.1L149.2,18.1z M152.3,16.6c-0.2,0-0.3,0-0.4-0.2C152.1,16.3,152.3,16.4,152.3,16.6
						h0.1C152.4,16.7,152.4,16.6,152.3,16.6L152.3,16.6z M153.1,16.8c0.1,0,0.1,0,0,0.1S153,16.9,153.1,16.8L153.1,16.8z
						 M149.4,22.6c0-0.2,0.1-0.4,0.3-0.4l0.2,0.1l0.2,0.1c0,0.1,0,0.1,0,0.2l-0.2,0.2C149.6,22.9,149.5,22.8,149.4,22.6L149.4,22.6z
						 M167.5-34.2h-0.1H167.5L167.5-34.2z M162.4-9.4c0-0.4,0.5-0.5,0.5-0.8c0.3-0.1,0.4-0.1,0.6,0.1s0,0.4-0.1,0.6
						C163.1-9.2,162.7-9.2,162.4-9.4z M171.3-35.2L171.3-35.2L171.3-35.2L171.3-35.2z M151.8-19c0-0.1,0.1-0.1,0.2-0.1
						C152-18.9,151.9-18.9,151.8-19z M148.2-22.3c0,0.1,0,0.3-0.1,0.4c-0.2,0.1-0.4,0.2-0.6,0.1c-0.1,0-0.2-0.2-0.1-0.3
						c0.1-0.2,0.2-0.3,0.4-0.5C147.9-22.5,148.1-22.4,148.2-22.3L148.2-22.3z M148.4-22.2c0.2-0.1,0.5-0.1,0.7,0s0.2,0.4,0,0.6l0,0
						c-0.2,0-0.4,0-0.5-0.1C148.4-21.7,148.3-22,148.4-22.2z M151.6-23.1L151.6-23.1v0.1C151.4-22.9,151.6-23,151.6-23.1L151.6-23.1
						L151.6-23.1c0-0.1,0.1-0.2,0.2-0.3c0.1-0.1,0.3-0.1,0.4,0c0,0.2,0,0.4-0.1,0.5c-0.1,0-0.1,0-0.1,0S151.7-23.1,151.6-23.1z
						 M122.4,59.6c0-0.2,0.1-0.4,0.2-0.5s0.2-0.1,0.3-0.1c0.2,0,0.2,0.2,0.2,0.3c0,0.2-0.1,0.4-0.3,0.5
						C122.7,59.8,122.5,59.7,122.4,59.6z M121.8,60.2L121.8,60.2L121.8,60.2z M122.8,58.4c0.1,0,0.3,0,0.4,0
						c-0.1,0.2-0.3,0.3-0.5,0.3C122.7,58.6,122.7,58.5,122.8,58.4L122.8,58.4z M152.7-19.3l0.1-0.1c0.7-0.1,0.7-0.1,0.9,0.3
						l-0.2,0.2C153-19,153-19,152.7-19.3L152.7-19.3z M153.8-16.3h0.2c0.1,0.1,0.1,0.3,0,0.4C153.8-16,153.8-16.1,153.8-16.3
						L153.8-16.3z M152.5-15.3c0.1,0,0.1,0.1,0.1,0.2S152.5-15.3,152.5-15.3L152.5-15.3z M156.6-17.3c-0.2,0-0.4,0-0.5-0.3
						C156.3-17.7,156.5-17.6,156.6-17.3h0.2C156.7-17.3,156.7-17.4,156.6-17.3L156.6-17.3z M157.6-17c0.1,0,0.1,0.1,0.1,0.2
						S157.5-17,157.6-17L157.6-17z M152.8-9.4c0-0.3,0.2-0.5,0.4-0.5l0.2,0.1c0.1,0.1,0.2,0.1,0.2,0.2c0,0.1,0,0.1-0.1,0.2
						c-0.1,0.1-0.2,0.2-0.3,0.3C153.1-9.2,152.9-9.2,152.8-9.4L152.8-9.4z M125.8,49.2L125.8,49.2L125.8,49.2z M109.2,41.2
						c0-0.1,0-0.2,0.1-0.3c0.2-0.1,0.3,0,0.4,0.1s0.1,0.2,0,0.3C109.5,41.4,109.3,41.3,109.2,41.2L109.2,41.2z M134.6,43.9
						c0.1,0.2,0.1,0.3,0.1,0.5c-0.2,0.1-0.2,0.1-0.3-0.3c-0.1-0.1-0.2,0.2-0.3,0.1C134.1,43.8,134.2,43.8,134.6,43.9L134.6,43.9z
						 M124.7,48.7L124.7,48.7C124.6,48.6,124.6,48.6,124.7,48.7C124.8,48.5,124.8,48.6,124.7,48.7L124.7,48.7z M107-33l0.3,0.1
						c0.1,0.2,0.1,0.4,0.1,0.5c-0.1,0.2-0.3,0.3-0.5,0.3c-0.1,0-0.2-0.2-0.2-0.3C106.7-32.6,107-32.7,107-33z M130.4,40.1
						c0-0.4,0.4-0.5,0.5-0.7c0.2-0.1,0.4-0.1,0.5,0.1s0,0.3-0.1,0.5C131,40.3,130.7,40.3,130.4,40.1L130.4,40.1z M52.6,101.3
						L52.6,101.3L52.6,101.3z M129.8,45.6c0,0.1-0.2,0.2-0.3,0.1l0,0C129.5,45.6,129.7,45.5,129.8,45.6L129.8,45.6z M126.6,47
						L126.6,47C126.6,47.1,126.4,47.1,126.6,47L126.6,47C126.7,46.9,126.6,47,126.6,47z M109.1-35.4c0.2,0,0.3,0.1,0.4,0.3
						c0,0.1,0,0.2-0.1,0.3c0,0,0,0.1,0.1,0.3l-0.1-0.3c-0.2-0.1-0.4-0.1-0.5-0.4C108.9-35.3,109-35.3,109.1-35.4z M95.6-14.6
						c0-0.1,0-0.1,0-0.2c0-0.1,0.1-0.1,0.1-0.2c0.1-0.1,0.2,0,0.2,0.1S95.8-14.6,95.6-14.6z M92.8-9.9C93-9.5,93-9.5,92.7-9.2
						c-0.2-0.1-0.3-0.3-0.2-0.4C92.5-9.8,92.6-9.9,92.8-9.9z M50.3,126c0.1,0,0.2,0,0.2,0v0.1C50.5,126.2,50.4,126.2,50.3,126
						C50.3,126.1,50.3,126.1,50.3,126L50.3,126z M102.2-26c0.2-0.1,0.4-0.2,0.6,0.1s0,0.2-0.2,0.6l-0.7,0.2
						c-0.1-0.1-0.2-0.3-0.1-0.4L102.2-26z M53.8,125c0,0.1,0,0.2-0.1,0.3c-0.1,0.1-0.1,0.1-0.3,0s0-0.1,0-0.2l0.2-0.2
						C53.8,124.9,53.8,124.9,53.8,125z M51.1,126.1L51.1,126.1L51.1,126.1z M51.7,124.9c0.1,0,0.3,0.1,0.3,0.2s0,0.2-0.1,0.3
						c-0.1,0.1-0.2,0.1-0.4,0.1c-0.1-0.1-0.1-0.2-0.2-0.3C51.5,125.1,51.6,125,51.7,124.9L51.7,124.9z M98.5-29.9
						c0,0.1-0.1,0.2-0.1,0.3s0.2,0.2,0.2,0.4c-0.2,0.4-0.3-0.4-0.5,0.1c-0.1-0.2-0.1-0.4-0.2-0.5h-0.5c0.2-0.3,0.3-0.4,0.4-0.6
						c0.1,0,0.3,0,0.4-0.1C98.4-30.3,98.4-30,98.5-29.9z M96.1-24L96.1-24L96.1-24L96.1-24z M53.4,122.3c0,0.1,0,0.1-0.1,0.2
						C53.3,122.4,53.3,122.3,53.4,122.3z M96.4-28.5c-0.2,0.1-0.3-0.1-0.3-0.3C96.3-28.9,96.3-28.9,96.4-28.5z M120.8,31.5
						c0-0.1,0.1-0.1,0.2-0.1C121,31.5,120.9,31.5,120.8,31.5z M117.6,28.5c0,0.1,0,0.2-0.1,0.3c-0.2,0.1-0.4,0.1-0.6,0.1
						c-0.1,0-0.2-0.1-0.1-0.2c0.1-0.2,0.2-0.3,0.3-0.4C117.3,28.3,117.5,28.4,117.6,28.5L117.6,28.5z M117.8,28.6
						c0.2-0.1,0.4-0.1,0.7,0c0.1,0.1,0.2,0.3,0,0.5l0,0c-0.2,0-0.3,0-0.5,0C117.8,29,117.7,28.8,117.8,28.6L117.8,28.6z M162.6,45.4
						L162.6,45.4l0.2-0.1C162.8,45.5,162.7,45.4,162.6,45.4L162.6,45.4L162.6,45.4c-0.2,0.1-0.4,0-0.5-0.1s-0.2-0.3-0.2-0.5
						c0.2-0.1,0.5-0.2,0.7-0.1c0,0.1,0.1,0.2,0.1,0.2S162.5,45.2,162.6,45.4L162.6,45.4z M53.9,118.8c-0.1,0.1-0.2,0-0.2,0
						C53.7,118.7,53.8,118.8,53.9,118.8z M47.9,121.9C47.8,121.9,47.8,121.9,47.9,121.9C48,121.8,47.9,121.9,47.9,121.9L47.9,121.9z
						 M47.9,121.3c-0.3-0.1-0.3-0.2-0.3-0.5c0.1-0.1,0.1-0.1,0.2-0.1l0.2,0.1c0,0.1,0.1,0.2,0,0.4C48,121.2,47.9,121.3,47.9,121.3
						L47.9,121.3z M51,119.3C51,119.3,50.9,119.3,51,119.3C51.1,119.2,51,119.3,51,119.3z M50.1,119.1L50.1,119.1l0.3,0.3
						c-0.1,0.2-0.2,0.3-0.3,0.4c-0.1,0-0.2,0-0.3,0c-0.1-0.1-0.1-0.2-0.1-0.3c0-0.1,0.1-0.3,0.2-0.4H50.1z M49.3,119.2
						c0,0.1,0,0.2-0.1,0.4c-0.1,0.1-0.2,0.1-0.3,0.2v-0.1l0.3-0.2C49.2,119.3,49.2,119.2,49.3,119.2z M46.3,120.4
						c0,0.1-0.1,0.3-0.2,0.5c-0.1-0.1-0.2-0.2-0.1-0.3c0-0.1,0.1-0.2,0.2-0.3C46.4,120.3,46.4,120.4,46.3,120.4z M43.6,120.2
						c-0.1,0.1-0.2,0.1-0.3,0.2C43.4,120.3,43.5,120.2,43.6,120.2z M45.6,118.1c0,0.1-0.1,0.1-0.2,0.2c-0.1,0-0.1,0-0.2-0.1
						c0-0.1,0-0.1,0-0.2C45.3,117.9,45.4,117.9,45.6,118.1C45.5,118,45.5,118,45.6,118.1z M46.2,117.4L46.2,117.4L46.2,117.4
						L46.2,117.4L46.2,117.4z M48.1,113.8C48.2,113.8,48.2,113.9,48.1,113.8C48.2,113.9,48.1,114,48.1,113.8
						C48.1,113.8,48,113.9,48.1,113.8z M49.4,112.3c0,0.1,0,0.1-0.1,0.2c-0.2-0.1-0.2-0.1,0-0.3C49.3,112.2,49.3,112.3,49.4,112.3z
						 M52.2,110.2c0,0.1-0.1,0.1-0.2,0.1l0,0C52.1,110.2,52.2,110.2,52.2,110.2z M149.4,63.7c-0.3,0.1-0.6,0.1-0.9,0
						c-0.2-0.1-0.3-0.2-0.4-0.4c0-0.3,0.2-0.4,0.3-0.5c0.3-0.1,0.6-0.1,0.9,0.2C149.5,63.2,149.5,63.5,149.4,63.7z M150.7,64.2
						L150.7,64.2L150.7,64.2L150.7,64.2z M48.5,111.4L48.5,111.4C48.5,111.5,48.4,111.4,48.5,111.4
						C48.4,111.4,48.4,111.4,48.5,111.4C48.5,111.3,48.5,111.3,48.5,111.4z M48.5,110.9c0,0.1,0,0.2-0.1,0.2l0,0
						c-0.1-0.1,0-0.3,0-0.4C48.4,110.7,48.5,110.8,48.5,110.9L48.5,110.9z M51.3,108.6C51.3,108.6,51.4,108.6,51.3,108.6
						c0.2-0.1,0.3,0.1,0.4,0.1s0,0.1-0.1,0.1s-0.3,0-0.4,0l-0.1,0.2c-0.1,0-0.2-0.1-0.2-0.1c0-0.1,0-0.1,0.1-0.2L51.3,108.6z
						 M51.6,107L51.6,107C51.6,107.1,51.6,107.1,51.6,107C51.6,107.2,51.6,107.2,51.6,107C51.7,107,51.6,107,51.6,107L51.6,107z
						 M138.4,64.4C138.4,64.4,138.5,64.4,138.4,64.4c0.1,0.3,0,0.4-0.2,0.5l-1.3-0.2c-0.2-0.3,0-0.3,0.1-0.5
						C137.5,64.1,137.9,64.2,138.4,64.4L138.4,64.4z M138.7,64.8c0.2-0.1,0.5,0,0.6,0.2c0.1,0.1,0,0.2-0.1,0.3
						C138.9,65.3,138.7,65.2,138.7,64.8L138.7,64.8z M50.3,105.2c-0.2,0.1-0.3,0.1-0.4,0c0-0.1,0-0.1,0-0.2
						C50.1,105,50.1,105.2,50.3,105.2z M45.6,106.1C45.6,106,45.7,106,45.6,106.1C45.7,106,45.7,106.1,45.6,106.1
						C45.6,106.2,45.6,106.1,45.6,106.1z M45.8,106.5c0.2-0.1,0.2,0.1,0.4,0C46,106.6,45.9,106.7,45.8,106.5L45.8,106.5L45.8,106.5z
						 M47.9,105.9L47.9,105.9C47.7,105.8,47.8,105.9,47.9,105.9C47.8,105.8,47.9,105.8,47.9,105.9z M49.3,104.1
						c0.3,0,0.5,0.1,0.8,0.3c0,0,0,0.1,0,0.2v0.1H50c-0.2,0-0.3-0.1-0.5-0.2l-0.4-0.1C49.1,104.1,49.2,104.1,49.3,104.1z M49,103.1
						c0.1,0,0.1,0.1,0.1,0.2s-0.1,0.1-0.2,0.2l-0.3,0.2c-0.1-0.2-0.1-0.2,0-0.5c0,0,0.1,0,0.2,0C48.9,103.2,48.9,103.1,49,103.1
						L49,103.1z M43.4,105.1c0.1,0.1,0.1,0.1,0,0.3c0,0,0,0-0.1,0H43C43.1,105.3,43.3,105.3,43.4,105.1L43.4,105.1z M49.3,102.1
						c0.1,0,0.2,0.1,0.2,0.2s-0.1,0.2-0.2,0.3c-0.1,0-0.2,0-0.3,0c-0.1-0.1-0.1-0.1-0.1-0.2C49,102.2,49.2,102.1,49.3,102.1
						L49.3,102.1z M48.2,103L48.2,103L48.2,103z M45.1,104.5c0,0.2,0,0.4,0.1,0.7c-0.2-0.3-0.3-0.6-0.4-0.9
						C45.1,104.3,45.1,104.4,45.1,104.5L45.1,104.5z M44.8,104.2L44.8,104.2L44.8,104.2z M47.7,102.2c0,0.1,0,0.2,0,0.3
						c-0.2-0.1-0.4-0.2-0.4-0.4C47.4,102.1,47.5,102.2,47.7,102.2L47.7,102.2z M46.3,102.1c-0.1,0-0.2,0-0.3,0s-0.2-0.1-0.3-0.2l0,0
						C46.3,102,46.3,102,46.3,102.1L46.3,102.1z M141.7,64c-0.3,0.1-0.7,0-1-0.2c-0.1-0.1-0.2-0.2-0.1-0.3s0.2-0.1,0.2,0
						c0.3,0.1,0.6,0.2,0.9,0.2C141.7,63.8,141.7,63.9,141.7,64z M46.4,110c0,0.1-0.1,0.1-0.2,0.1S46.3,110,46.4,110z M140,59
						c0,0.3,0,0.6-0.5,0.6c-0.4-0.3-0.9-0.6-0.8-1.2c0.1-0.1,0.3-0.1,0.5-0.1c0.1,0,0.3,0,0.4,0C139.9,58.4,140,58.7,140,59z
						 M147.5,63.9c-0.1-0.2-0.2-0.4-0.3-0.6c0.3,0,0.6,0.3,0.7,0.5C147.8,64,147.6,64,147.5,63.9L147.5,63.9z M166.9,42h-0.2
						c-0.5-0.8-0.5-0.8-0.1-1.3l0.3,0.1C167.1,41.3,167.1,41.3,166.9,42L166.9,42z M122.7,33.9h0.2c0.1,0.1,0.1,0.2,0,0.3
						C122.7,34.1,122.6,34,122.7,33.9L122.7,33.9z M121.5,34.7c0.1,0,0.1,0.1,0.1,0.2S121.4,34.8,121.5,34.7L121.5,34.7z
						 M167.2,35.8c0.2,0.3,0.2,0.5-0.1,0.8C167,36.3,167,36,167.2,35.8l-0.1-0.2C167.3,35.6,167.2,35.7,167.2,35.8L167.2,35.8z
						 M167.1,34.4c0-0.1,0-0.2,0.2-0.2S167.2,34.4,167.1,34.4L167.1,34.4z M121.8,40c0-0.2,0.2-0.4,0.4-0.5c0.1,0,0.1,0.1,0.2,0.1
						s0.2,0.1,0.2,0.2c0,0.1,0,0.1,0,0.2c-0.1,0.1-0.2,0.2-0.2,0.3C122,40.3,121.8,40.2,121.8,40z"/>
					<path class="st0" d="M20.2,87.3C2.4,230.6,78.3,322.3,149.5,360s60-49.4,60-49.4s-29.8-48.7-85.7-108.7S20.2,87.3,20.2,87.3z"
						/>
					<path class="st1" d="M162.6,246.5L139,298.4c-6.9-7.7-13.4-15.7-19.4-24.1l20.6-54.3l-1.2-1.4l-20.6,54.1
						c-1.1-1.6-2.2-3.1-3.3-4.7l18.4-55.5l-1.3-1.4l-18.3,55.2c-3.7-5.3-7.5-10.8-11.3-16.4c0,0,0-0.1-0.1-0.1
						c-1.7-2.4-3.3-4.9-5-7.4l19.3-48l-1.2-1.3l-19.1,47.6c-5.6-8.4-11.2-17.2-16.8-26.2c0.1-0.1,0.1-0.2,0.2-0.3l14.2-44.6
						l-1.3-1.4l-14.1,44.5c-1.8-2.9-3.5-5.8-5.3-8.7l12.1-43.8l-1.3-1.4l-12,43.2c-1.7-2.8-3.3-5.7-5-8.6c0-0.2-0.1-0.3-0.2-0.4
						c-1.5-2.6-2.9-5.2-4.3-7.8c0-0.2-0.1-0.3-0.2-0.4c-3-5.5-6-11-8.8-16.6L65.4,138l-1.2-1.4l-11.5,29.6c-3.2-6.3-6.2-12.6-9.1-19
						l8.9-23.7l-1.2-1.4l-9,22.9c-0.8-1.9-1.7-3.7-2.5-5.6l0,0c-1.7-3.8-3.3-7.7-4.8-11.5l6.2-16.8c-0.4-0.5-0.8-0.9-1.3-1.4
						l-5.8,15.9c-4.7-11.8-8.7-23.9-12.1-36.1l-1.8-2c-0.1,0.4-0.1,0.8-0.1,1.2c2,7.3,4.2,14.6,6.7,21.8l-8.5-3.2
						c0,0.6-0.1,1.2-0.1,1.8l9.3,3.5c3.1,8.8,6.5,17.4,10.2,26l-20-2.8c0,0.6,0,1.2,0,1.7l20.8,2.9c6.5,15,13.8,29.6,21.6,43.8
						l-38.5-6l0.3,1.8l39.2,6.1c1.2,2.2,2.4,4.3,3.6,6.4l-40.9-2.9c0.1,0.6,0.2,1.2,0.4,1.8l41.6,2.9c11.1,19.4,22.9,38,34.5,55.1
						L44,248.9l0.8,1.7l56.7,0.6c5.6,8.2,11.1,16.2,16.5,23.7c1.9,2.6,3.8,5.2,5.7,7.7l-59.4,1l1.2,1.7l59.5-1
						c15.2,19.4,32.4,35.7,50.5,52.9c0.2,0.2,0.4,0.3,0.7,0.2c0.2,0,0.4-0.1,0.5-0.3c0.3-0.4,0.3-0.9-0.1-1.2
						c-12.7-12-25-23.6-36.4-36.2l23.5-51.8L162.6,246.5z"/>
					<path class="st2" d="M204.9,139.9c0.8-8.9,17.3-10.9,21-19.5c3.4-8-0.2-14.5,3.1-22.5c6.3-15.1,30.5-20,41-33.6
						c8.1-10.3,6.8-24,14.6-34.5c13.3-17.6,46.8-19.4,58.8-37.6c5.7-8.7,5-19.1,8.7-28.5c2.2-5.6,6-10.7,9.7-15.8
						c-16.3,7.6-33.1,13.7-50.5,18.3c-9.8,2.6-20.6,5.1-27,11.9c-3.6,3.8-5.5,8.6-8.5,12.7C267.8,1.6,252.6,7,239,12.9
						S211.1,27.6,209,40c-0.8,4.7,0.3,9.4-0.3,14.1c-1.2,10.5-10.3,19.3-18,28s-14.6,19.4-10.9,29.4c2.4,6.4,9,12.3,6.6,18.8
						c-1.4,3.9-6,6.8-7.2,10.7c-2.9,9.2,9.5,19.1,10.4,26.6C190.6,158.7,203.2,159.1,204.9,139.9z"/>
					<path class="st3" d="M341.5-36.9L341.5-36.9c-0.3-0.4-0.9-0.6-1.5-0.3c-28.5,12.9-54.6,30.3-77.4,51.7l-36,4.9
						c-1.2,0.7-2.4,1.5-3.5,2.2l37.3-5.1c-8.2,7.9-15.9,16.3-23,25.2l0,0c-2,2.5-4,5.1-5.9,7.7C222.7,61.3,215,74,208.6,87.2
						c-7.9,2.4-18.2,5.9-27.6,9.1c-0.3,0.7-0.6,1.5-0.9,2.2c9.1-3.1,19.3-6.6,27.4-9.1c-0.6,1.3-1.2,2.7-1.8,4
						c-10.4,4-19.6,8-26.9,11.4c0,0.7,0,1.3,0,2c7-3.3,15.8-7.2,25.9-11.1c-9.5,21.7-14.9,45-16,68.7c0.5,1,0.8,2.1,1,3.2
						c0.1-1.3,0.5-2.5,1.2-3.6c0.5-11.4,2.1-22.7,4.6-33.8l8.3,15.7c0.3-1.1,0.5-2.1,0.7-3.2l-8.3-15.6c2.8-11.2,6.6-22.2,11.3-32.8
						c0-0.1,0.1-0.1,0.1-0.2c0.9-2,1.8-4,2.7-5.9c0,0,0.1-0.1,0.1-0.2c6.4-13.3,14.1-26,22.9-37.8c1.5-2,3-3.9,4.5-5.9l8.9,36.9
						l1.9-1.1l-9.1-37.8c7.5-9.4,15.7-18.2,24.5-26.5l0.1-0.1c22.7-21.3,48.6-38.6,76.9-51.5C341.4-35.9,341.7-36.4,341.5-36.9
						C341.5-36.8,341.5-36.8,341.5-36.9z"/>
					<rect x="21.2" y="7.7" class="st7" width="293" height="292.8"/>
					<g class="st8">
						<rect x="21.4" y="8.6" width="304.1" height="289"/>
					</g>
					<path class="st2" d="M141.4,174C163.9,89.5,125.8,28.2,86.2-0.2s-40,24.7-40,24.7S60,56.1,88.7,96.8S141.4,174,141.4,174z"/>
					<path class="st1" d="M69,66.8l18.4-29.2c3.5,5.2,6.8,10.5,9.7,16.1L80.3,84.5l0.6,1l16.8-30.8l1.6,3.1L83.7,89.6
						c0.2,0.3,0.4,0.6,0.7,1l15.5-31.7c1.8,3.5,3.6,7.1,5.4,10.8v0.1c0.8,1.6,1.6,3.2,2.4,4.9l-15.5,27.2l0.6,0.9l15.4-27
						c2.7,5.5,5.3,11.2,7.9,17.1c-0.1,0-0.1,0.1-0.1,0.2l-12.2,25.6l0.7,1L116.7,94c0.8,1.9,1.6,3.8,2.4,5.7l-10.9,25.2l0.7,1
						l10.7-24.9c0.8,1.8,1.5,3.7,2.3,5.6c0,0.1,0,0.2,0.1,0.3c0.7,1.7,1.3,3.3,2,5c0,0.1,0,0.2,0.1,0.3c1.3,3.5,2.6,7.1,3.9,10.7
						l-9.6,17.2l0.6,0.9l9.3-16.8c1.4,4,2.7,8.1,3.9,12.1l-7.3,13.5l0.6,0.9l7.1-13c0.4,1.2,0.7,2.4,1,3.6l0,0
						c0.7,2.4,1.3,4.9,1.9,7.3l-5,9.5l0.6,1l4.8-9.1c1.8,7.5,3.3,15.1,4.3,22.7c0.6,0.9,0.9,1.3,0.9,1.3c0.1-0.2,0.1-0.5,0.2-0.7
						c-0.6-4.6-1.3-9.1-2.2-13.7l4.8,2.6c0.1-0.4,0.1-0.7,0.2-1.1l-5.3-2.9c-1.1-5.5-2.5-11-4-16.4l11.8,3.3c0-0.4,0.1-0.7,0.1-1
						l-12.2-3.5c-2.7-9.5-5.9-18.9-9.4-28.1l22.6,6.7v-1.1l-23-6.9c-0.5-1.4-1.1-2.8-1.6-4.2l24.3,5.1c0-0.4-0.1-0.7-0.1-1.1
						l-24.8-5.2c-5.1-12.6-10.6-24.7-16.2-35.9l33.8,5L140,74l-34-5c-2.7-5.4-5.3-10.6-7.9-15.6c-0.9-1.7-1.8-3.4-2.8-5.1l35.7,4.3
						c-0.2-0.4-0.4-0.8-0.6-1.1l-35.8-4.3c-7.5-12.9-16.5-24.1-26-35.9c-0.1-0.1-0.2-0.2-0.4-0.2c-0.1,0-0.2,0.1-0.3,0.1
						c-0.2,0.2-0.2,0.5-0.1,0.7c6.6,8.3,13,16.2,18.8,24.7L68.4,65.8L69,66.8z"/>
					<path class="st0" d="M460.1,287.2l-19.6-44.9c7.1-19,11-32.3,13.4-55.4c3.1-31.4-37.2-81.5-144.2-81.5
						c-59.6,0-65.8,3.1-65.8,3.1S233.2,95.2,222,80.3c-5.5-7.3-11.6-14.6-18.8-15.7c-4.7-0.7,0.1,11.9-9.4,12.5
						c-34.5,2.3-108.4,9.7-103.5,56.4c6.3,59.6,119.1,34.5,122.3,112.9c0.8,21-12.5,43.9-12.5,43.9h28.2c0,0,13.4-13.4,22.3-25.3
						l16.1,22.2H291l-16.3-37.3c33.5-4.1,101-0.4,101-0.4s25.1,25.1,18.8,40.7h28.2c1.8-5.1,3.6-9.9,5.2-14.3l8.1,11.2L460.1,287.2
						L460.1,287.2z M184.2,111.6c-3.5,0-6.3-2.8-6.3-6.3s2.8-6.3,6.3-6.3s6.3,2.8,6.3,6.3S187.7,111.6,184.2,111.6L184.2,111.6z"/>
				</g>
			</g>
		</g>
		<path class="st1" d="M285.1,236.2l-32.8,11.9c-3,1.1-4.5,4.3-3.4,7.3c0.3,0.9,0.9,1.8,1.7,2.4l26.7,22.5c2.4,2,6,1.7,8-0.7
			c0.6-0.8,1.1-1.7,1.3-2.7l6.1-34.4c0.6-3.1-1.5-6.1-4.6-6.6C287.1,235.8,286.1,235.9,285.1,236.2z"/>
	</g>
</g>
</svg>
