<?xml version="1.0" encoding="utf-8"?>
<!-- Generator: Adobe Illustrator 24.0.3, SVG Export Plug-In . SVG Version: 6.00 Build 0)  -->
<svg version="1.1" id="Layer_1" xmlns="http://www.w3.org/2000/svg" xmlns:xlink="http://www.w3.org/1999/xlink" x="0px" y="0px"
	 viewBox="0 0 1920 1080" style="enable-background:new 0 0 1920 1080;" xml:space="preserve">
<style type="text/css">
	.st0{fill:#636363;}
	.st1{fill:#999999;}
	.st2{opacity:0.6;fill:#7FFFD4;enable-background:new    ;}
	.st3{opacity:0.6;}
	.st4{fill:#7FFFD4;}
	.st5{opacity:0.7;fill:#636363;}
</style>
<rect x="-22.2" y="-11.6" class="st0" width="1960.1" height="1102.5"/>
<path class="st1" d="M832.1,84.2c0.4-21.8,5.2-44,21.8-60.5c29.4-29,76.7-28.7,105.7,0.7s28.7,76.7-0.7,105.7
	c-16.8,16.5-39.1,20.2-60.9,21.1c-24.2,0.9-42.7,14.9-46.3,29.8c-1.9,8.4-6,16.1-12,22.1c-16.9,16.8-44.1,16.6-60.9-0.3
	c-16.8-16.9-16.6-44.1,0.3-60.9c5.7-6.4,13.4-10.4,21.8-11.6C817.6,129.1,831.7,103.6,832.1,84.2z"/>
<path class="st2" d="M165.8,123.8c-0.5,26-6.2,52.6-26,72.4c-34.3,35.6-90.8,36.5-126.2,2.2S-23,107.6,11.3,72.2c1-1,1.9-2.1,3-3
	C34.3,49.4,61,45,87.1,43.9c28.9-1.1,51-17.8,55.3-35.6c2.2-10,7.1-19.1,14.3-26.4c20.2-19.8,52.7-19.7,72.7,0.5
	C249.2,2.6,249,35,228.9,55c-6.8,7.5-16,12.4-26,13.8C183.1,70.1,166.3,100.7,165.8,123.8z"/>
<path class="st2" d="M165.8,1025.3c-0.5,26-6.2,52.6-26,72.4c-34.3,35.6-90.8,36.5-126.2,2.2s-36.6-90.8-2.3-126.2c1-1,1.9-2.1,3-3
	c20-19.8,46.7-24.2,72.8-25.3c28.9-1.1,51-17.8,55.3-35.6c2.2-10,7.1-19.1,14.3-26.4c20.2-19.8,52.7-19.7,72.7,0.5
	c19.8,20.2,19.6,52.6-0.5,72.6c-6.8,7.5-16,12.4-26,13.8C183.1,971.6,166.3,1002.2,165.8,1025.3z"/>
<path class="st2" d="M1572.3,812.3c-0.5,26-6.2,52.6-26,72.4c-34.3,35.6-90.8,36.5-126.2,2.2s-36.6-90.8-2.3-126.2c1-1,1.9-2.1,3-3
	c20-19.8,46.7-24.2,72.8-25.3c28.9-1.1,51-17.8,55.3-35.6c2.2-10,7.1-19.1,14.3-26.4c20.2-19.8,52.7-19.7,72.7,0.5
	c19.8,20.2,19.6,52.6-0.5,72.6c-6.8,7.5-16,12.4-26,13.8C1589.6,758.6,1572.8,789.2,1572.3,812.3z"/>
<path class="st2" d="M1138.2,448.3l-142.5,51.5c-12.8,4.7-19.4,18.8-14.9,31.6c1.5,4.2,4,7.8,7.3,10.6l115.9,97.7
	c10.5,8.8,26.1,7.5,34.9-3c2.8-3.3,4.7-7.3,5.5-11.6l26.7-149.2c2.3-13.5-6.5-26.2-19.9-28.7
	C1146.6,446.5,1142.3,446.8,1138.2,448.3z"/>
<path class="st1" d="M1621.4-20.1l-142.5,51.5c-12.8,4.7-19.4,18.8-14.9,31.6c1.5,4.2,4,7.8,7.3,10.6l115.9,97.7
	c10.5,8.8,26.1,7.5,34.9-3c2.8-3.3,4.7-7.3,5.5-11.6l26.7-149.2c2.3-13.5-6.5-26.2-19.9-28.7C1629.9-21.9,1625.6-21.6,1621.4-20.1z"
	/>
<path class="st1" d="M622.6,661.7l-142.5,51.5c-12.8,4.7-19.4,18.8-14.9,31.6c1.5,4.2,4,7.8,7.3,10.6l115.9,97.7
	c10.5,8.8,26.1,7.5,34.9-3c2.8-3.3,4.7-7.3,5.5-11.6l26.7-149.2c2.3-13.5-6.5-26.2-19.9-28.7C631.1,659.9,626.8,660.2,622.6,661.7z"
	/>
<g class="st3">
	<path class="st1" d="M1434.2,344.3l128.5,0.6c12.6,0,22.9,10.4,22.8,23l-0.2,48.3c0,12.6-10.4,22.9-23,22.8l-128.3-0.6
		c-12.6,0-22.9-10.4-22.8-23l0.2-48.3C1411.3,354.5,1421.6,344.2,1434.2,344.3z"/>
	<path class="st1" d="M1585.5,367.8l-0.6,128.5c0,12.6-10.4,22.9-23,22.8l-48.3-0.2c-12.6,0-22.9-10.4-22.8-23l0.6-128.5
		c0-12.6,10.4-22.9,23-22.8l48.3,0.2C1575.3,344.8,1585.6,355.1,1585.5,367.8z"/>
</g>
<g class="st3">
	<path class="st1" d="M233.4,621.1l-129-0.2c-12.8,0-23.1-10.3-23.1-23.1v-48.6c0-12.8,10.3-23.1,23.1-23.1l129,0.2
		c12.8,0,23.1,10.3,23.1,23.1V598C256.4,610.8,246.1,621.1,233.4,621.1z"/>
	<path class="st1" d="M81.2,598.1l0.2-129c0-12.8,10.3-23.1,23.1-23.1H153c12.8,0,23.1,10.3,23.1,23.1l-0.2,129
		c0,12.8-10.3,23.1-23.1,23.1h-48.6C91.5,621.1,81.2,610.8,81.2,598.1z"/>
</g>
<g class="st3">
	<path class="st4" d="M541,314.3l115.9,0.1c11.5,0,20.7,9.3,20.7,20.7v43.6c0,11.5-9.3,20.7-20.7,20.7L541,399.3
		c-11.5,0-20.7-9.3-20.7-20.7V335C520.3,323.6,529.5,314.3,541,314.3z"/>
	<path class="st4" d="M677.7,335.1L677.6,451c0,11.5-9.3,20.7-20.7,20.7h-43.6c-11.5,0-20.7-9.3-20.7-20.7l0.1-115.9
		c0-11.5,9.3-20.7,20.7-20.7H657C668.5,314.3,677.7,323.6,677.7,335.1z"/>
</g>
<g class="st3">
	<path class="st4" d="M914.7,867l115.9,0.1c11.5,0,20.7,9.3,20.7,20.7v43.6c0,11.5-9.3,20.7-20.7,20.7L914.7,952
		c-11.5,0-20.7-9.3-20.7-20.7v-43.6C894,876.3,903.2,867,914.7,867z"/>
	<path class="st4" d="M1051.4,887.8l-0.1,115.9c0,11.5-9.3,20.7-20.7,20.7H987c-11.5,0-20.7-9.3-20.7-20.7l0.1-115.9
		c0-11.5,9.3-20.7,20.7-20.7h43.6C1042.2,867,1051.4,876.3,1051.4,887.8z"/>
</g>
<path class="st4" d="M1861.9,242.6c0.5-25.6,6.1-51.7,25.6-71.1c35-33.6,90.6-32.5,124.2,2.5c33,34.2,32.7,88.6-0.8,122.5
	c-19.7,19.4-45.9,23.8-71.6,24.8c-28.4,1.1-50.2,17.3-54.4,35c-2,9.8-7,18.9-14.1,25.9c-19.8,19.7-51.9,19.4-71.4-0.5
	c-19.5-19.8-19.4-51.9,0.5-71.4c6.7-7.3,15.8-12.2,25.6-13.6C1844.9,295.3,1861.4,265.3,1861.9,242.6z"/>
<path class="st4" d="M1822,906.1c0.5-25.6,6.1-51.7,25.6-71.1c35-33.6,90.6-32.5,124.2,2.5c33,34.2,32.7,88.6-0.8,122.5
	c-19.7,19.4-45.9,23.8-71.6,24.8c-28.4,1.1-50.2,17.3-54.4,35c-2,9.8-7,18.9-14.1,25.9c-19.8,19.7-51.9,19.4-71.4-0.5
	c-19.5-19.8-19.4-51.9,0.5-71.4c6.7-7.3,15.8-12.2,25.6-13.6C1805,958.8,1821.5,928.8,1822,906.1z"/>
<rect x="-20.1" y="-19.4" class="st5" width="1960.1" height="1110.6"/>
</svg>
