<?xml version="1.0" encoding="utf-8"?>
<!-- Generator: Adobe Illustrator 24.0.3, SVG Export Plug-In . SVG Version: 6.00 Build 0)  -->
<svg version="1.1" id="Layer_1" xmlns="http://www.w3.org/2000/svg" xmlns:xlink="http://www.w3.org/1999/xlink" x="0px" y="0px"
	 viewBox="0 0 1920 1080" style="enable-background:new 0 0 1920 1080;" xml:space="preserve">
<style type="text/css">
	.st0{fill:#999999;}
	.st1{opacity:0.6;fill:#7FFFD4;enable-background:new    ;}
	.st2{opacity:0.6;}
	.st3{fill:#7FFFD4;}
	.st4{fill:#FFFFFF;}
	.st5{opacity:0.6;fill:#272727;enable-background:new    ;}
	.st6{clip-path:url(#SVGID_2_);}
	.st7{fill:#666666;}
	.st8{fill:#B3B3B3;}
	.st9{fill:#333333;}
</style>
<rect x="-22.2" y="-11.6" width="1960.1" height="1102.5"/>
<path class="st0" d="M832.1,84.2c0.4-21.8,5.2-44,21.8-60.5c29.4-29,76.7-28.7,105.7,0.7s28.7,76.7-0.7,105.7
	c-16.8,16.5-39.1,20.2-60.9,21.1c-24.2,0.9-42.7,14.9-46.3,29.8c-1.9,8.4-6,16.1-12,22.1c-16.9,16.8-44.1,16.6-60.9-0.3
	c-16.8-16.9-16.6-44.1,0.3-60.9c5.7-6.4,13.4-10.4,21.8-11.6C817.6,129.1,831.7,103.6,832.1,84.2z"/>
<path class="st1" d="M165.8,123.8c-0.5,26-6.2,52.6-26,72.4c-34.3,35.6-90.8,36.5-126.2,2.2S-23,107.6,11.3,72.2c1-1,1.9-2.1,3-3
	C34.3,49.4,61,45,87.1,43.9c28.9-1.1,51-17.8,55.3-35.6c2.2-10,7.1-19.1,14.3-26.4c20.2-19.8,52.7-19.7,72.7,0.5
	C249.2,2.6,249,35,228.9,55c-6.8,7.5-16,12.4-26,13.8C183.1,70.1,166.3,100.7,165.8,123.8z"/>
<path class="st1" d="M319.9,933.6l-142.5,51.5c-12.8,4.7-19.4,18.8-14.9,31.6c1.5,4.2,4,7.8,7.3,10.6l115.9,97.7
	c10.5,8.8,26.1,7.5,34.9-3c2.8-3.3,4.7-7.3,5.5-11.6l26.7-149.2c2.3-13.5-6.5-26.2-19.9-28.7C328.4,931.8,324,932.1,319.9,933.6z"/>
<path class="st0" d="M1621.4-20.1l-142.5,51.5c-12.8,4.7-19.4,18.8-14.9,31.6c1.5,4.2,4,7.8,7.3,10.6l115.9,97.7
	c10.5,8.8,26.1,7.5,34.9-3c2.8-3.3,4.7-7.3,5.5-11.6l26.7-149.2c2.3-13.5-6.5-26.2-19.9-28.7C1629.9-21.9,1625.6-21.6,1621.4-20.1z"
	/>
<g class="st2">
	<path class="st0" d="M1203.8,945.1l128.5,0.6c12.6,0,22.9,10.4,22.8,23l-0.2,48.3c0,12.6-10.4,22.9-23,22.8l-128.3-0.6
		c-12.6,0-22.9-10.4-22.8-23l0.2-48.3C1180.9,955.3,1191.2,945,1203.8,945.1z"/>
	<path class="st0" d="M1355.1,968.7l-0.6,128.5c0,12.6-10.4,22.9-23,22.8l-48.3-0.2c-12.6,0-22.9-10.4-22.8-23l0.6-128.5
		c0-12.6,10.4-22.9,23-22.8l48.3,0.2C1344.9,945.6,1355.2,955.9,1355.1,968.7z"/>
</g>
<g class="st2">
	<path class="st3" d="M795.4,885.2L679.5,885c-11.5,0-20.7-9.3-20.7-20.7v-43.6c0-11.5,9.3-20.7,20.7-20.7l115.9,0.1
		c11.5,0,20.7,9.3,20.7,20.7v43.6C816.1,875.9,806.8,885.2,795.4,885.2z"/>
	<path class="st3" d="M658.6,864.4l0.1-115.9c0-11.5,9.3-20.7,20.7-20.7H723c11.5,0,20.7,9.3,20.7,20.7l-0.1,115.9
		c0,11.5-9.3,20.7-20.7,20.7h-43.6C667.9,885.2,658.6,875.9,658.6,864.4z"/>
</g>
<path class="st3" d="M1861.9,242.6c0.5-25.6,6.1-51.7,25.6-71.1c35-33.6,90.6-32.5,124.2,2.5c33,34.2,32.7,88.6-0.8,122.5
	c-19.7,19.4-45.9,23.8-71.6,24.8c-28.4,1.1-50.2,17.3-54.4,35c-2,9.8-7,18.9-14.1,25.9c-19.8,19.7-51.9,19.4-71.4-0.5
	c-19.5-19.8-19.4-51.9,0.5-71.4c6.7-7.3,15.8-12.2,25.6-13.6C1844.9,295.3,1861.4,265.3,1861.9,242.6z"/>
<path class="st4" d="M1505.5,467.5c0.1-0.1,0.3-0.1,0.4,0c26.7,27.3,50.2,57.6,70,90.3c-23.6-52.8-34.5-119.2-34.6-120
	c0-0.1,0.1-0.2,0.2-0.3c0.1-0.1,0.2-0.1,0.3,0c25.3,43.2,37.8,90.9,43.6,119.6c-1-10.7-2.4-29.8-3-54.9c-0.7-29.4,0.2-58.8,2.6-88.2
	c0-0.1,0.1-0.2,0.2-0.2l0,0c0.1,0,0.2,0.1,0.3,0.2c12.7,43.4,13.2,87.1,11.3,116c-0.7,11.3-1.8,21.3-3,29.5
	c6.3-25,21.1-70.2,55.6-139.2c0.1-0.1,0.2-0.2,0.3-0.1l0,0c0.1,0,0.2,0.2,0.2,0.3c-0.2,1-20.2,89.8-50.7,147.2
	c38.9-54.1,104.7-110.1,105.4-110.7c0.1-0.1,0.3-0.1,0.4,0s0.1,0.2,0,0.3c-22.5,39.8-56.6,75.1-81.9,97.9
	c44.9-29.9,101-50.2,101.7-50.5c0.1-0.1,0.2-0.1,0.3,0c0.1,0.1,0.1,0.2,0,0.3c-17.8,17-37.6,31.7-58.9,44
	c-17.7,9.6-35.9,18.1-54.6,25.6c50-15.3,117.7-22,118.5-22.2c0.1,0,0.3,0,0.3,0.2c0,0.1,0,0.3-0.1,0.3
	c-30.5,14.8-63.2,24.5-96.8,28.5c-6.1,0.8-11.6,1.2-16.7,1.6c36.5,5.2,83.2,22.2,83.8,22.2l0,0c0.1,0,0.2,0.1,0.2,0.3
	c0,0.1-0.1,0.2-0.2,0.2c-26.1,3.9-66.7-7.3-91.1-15.2c17.4,8.8,33.3,20.2,47.3,33.8c0.1,0.1,0.1,0.2,0,0.3s-0.2,0.1-0.3,0l0,0
	c-40.8-16.7-61.7-35.9-66.2-40.4l-27.4,81.7c0,0.1-0.1,0.1-0.1,0.1h-0.2l-4.6-1.7c-0.1-0.1-0.2-0.2-0.2-0.3c0,0,2.8-10.7,16.9-44.5
	c5.9-14.1,10.8-26.4,14.5-36.1l0,0h-0.7c-8.6,0.4-36.4,0.5-79-11.1l0,0c-0.1,0-0.2-0.2-0.2-0.3s0.1-0.2,0.2-0.2
	c18.6-0.9,37.2,0.1,55.6,2.8c-25.7-10.6-49.4-25.5-70.3-43.9c-0.1-0.1-0.1-0.2,0-0.3s0.2-0.1,0.3,0c0.6,0.3,45.4,19.5,76.6,38.9
	c-31.8-33-65.9-100.4-66.3-101.2C1505.3,467.8,1505.4,467.6,1505.5,467.5L1505.5,467.5z"/>
<rect x="-18.9" y="-11.3" class="st5" width="1959.6" height="1108.3"/>
<g>
	<g>
		<g>
			<defs>
				<path id="SVGID_1_" d="M1336,695.4c-73.3-1.6-148.4-17.9-203.8-74.3c-98.5-98.2-98.7-257.7-0.5-356.3
					c98.2-98.5,257.7-98.7,356.3-0.5c1.2,1.2,2.5,2.5,3.7,3.8c55.5,56.5,67.8,132.1,70.5,205.5c3,81.5,49.5,144.1,99.9,156.1
					c27.2,6.5,53.4,19.1,74.4,40.5c56.1,57.1,55.3,148.9-1.8,205s-148.9,55.3-205-1.8l0,0c-20.6-20.9-37-46.2-38.8-73.6
					C1487.3,744.5,1401.2,696.7,1336,695.4z"/>
			</defs>
			<clipPath id="SVGID_2_">
				<use xlink:href="#SVGID_1_"  style="overflow:visible;"/>
			</clipPath>
			<g class="st6">
				<path class="st7" d="M1382.3,490.9c-203.7,35-297.8,177-319.9,290.1c-22.1,113,92.6,61.7,92.6,61.7s54.3-61,113.4-162.5
					S1382.3,490.9,1382.3,490.9z"/>
				<path class="st8" d="M1223.2,751.9l-80.9-10.8c7.6-12.7,15.9-24.9,24.8-36.6l82.9,5.8l1.4-2.3l-82.6-5.7
					c1.7-2.2,3.4-4.4,5.1-6.5l83.7,2.2c0.4-0.8,0.9-1.6,1.4-2.3l-83-2.2c5.7-7.3,11.7-14.7,17.9-22.3l0,0l8.1-9.9l73.7,6.5l1.3-2.3
					l-73.2-6.5c9.3-11.2,18.9-22.5,28.9-33.8c0.1,0,0.3,0,0.4,0l67,0.9c0.4-0.8,0.9-1.6,1.4-2.3l-66.8-1c3.2-3.6,6.5-7.2,9.8-10.8
					l64.9-1.5l1.4-2.4l-64.1,1.5c3.2-3.5,6.4-6.9,9.7-10.4c0.2-0.1,0.4-0.3,0.5-0.5c3-3,6-6.1,8.8-9.2c0.2-0.1,0.4-0.3,0.5-0.5
					c6.2-6.4,12.6-12.7,19.1-19l46.3,3.6l1.4-2.3l-45.4-3.5c7.3-6.9,14.7-13.7,22.3-20.4l36.1,2.4l1.4-2.3l-35-2.4l6.7-5.7l0,0
					c4.5-3.8,9.1-7.6,13.7-11.3l25.5,1.4l1.4-2.3l-24.1-1.3c14.3-11.3,29.1-21.9,44.5-31.7l2-3.2l-1.8,0.3
					c-9.2,5.8-18.2,11.8-27.1,18.3l0.9-12.9l-2.5,0.6l-0.9,14.2c-10.7,7.8-21.2,16.1-31.4,24.7l-4.5-28.6l-2.4,0.8l4.6,29.7
					c-17.9,15.1-34.9,31.2-51.1,47.8l-7.7-55.2l-2.3,1.2l7.9,56.2c-2.5,2.5-4.9,5.1-7.3,7.6l-13-57.2l-2.2,1.3l13.2,58.1
					c-22,23.3-42.5,47.1-61.2,70.1l-22.5-77.4l-2,1.9l22.7,77.9c-9,11.1-17.5,21.9-25.7,32.4c-3,3.6-5.5,7.3-8.2,11l-26-81
					c-0.6,0.8-1.2,1.6-1.8,2.4l26,81.1c-20.3,28.9-35.5,59.2-51.5,91.1c-0.2,0.3-0.2,0.7,0,1c0.1,0.3,0.3,0.5,0.6,0.6
					c0.6,0.2,1.3,0,1.6-0.6c11.2-22.3,22-43.9,34.5-64.8l80.7,10.8C1222.2,753.4,1222.7,752.7,1223.2,751.9z"/>
				<path class="st0" d="M1889.8,1016.7c-6.9-61.1,173.6-415.2,1.2-443.5c-92-15.1-113.5,79.3-176.6,84.2
					c-63.1,5-129.5-67-179.1-35.3c-39.9,25.4-59.3,50.3-89.9,57.8c-33.6,8.3-77.4-2.4-100.7-12.2c-44.4-18.7-126,29.9-126.3,29.9
					c-14.3,26.2,74.7,117.5,70,147c0.5,0,136.3,228.8,146.7,273.3C1459.7,1119.7,1921.5,1018.1,1889.8,1016.7z M1470.9,775.3
					L1470.9,775.3L1470.9,775.3z M1467.3,769.7c-0.1,0.6-0.3,1.1-0.5,1.7c-0.7,0-0.9-0.4-1.2-0.9c0.3-0.6,0.4-1.3,1.3-1.6
					C1467.6,768.6,1467.3,769.4,1467.3,769.7z M1410.8,766.8c-0.1,0.3-0.3,0.5-0.7,0.5c-0.6,0-0.7-0.4-0.9-0.7
					c-0.2-0.2,0.2-0.6,0.5-0.7C1410.2,766,1410.7,766.3,1410.8,766.8z M1434.9,761.7l0.5,0.4c-0.4,0.5-0.4,0.5-1,0.4
					C1434.3,762.1,1434.5,761.9,1434.9,761.7L1434.9,761.7z M1425.6,772.2c0-0.6,0.6-0.5,1-0.8c0.4,0.3,0.2,0.5,0.2,0.8
					C1426.5,772.5,1426,772.5,1425.6,772.2L1425.6,772.2z M1427.3,772l0.4-0.3c0.6,0.1,0.6,0.5,0.3,0.9
					C1427.7,773,1427.5,772.4,1427.3,772L1427.3,772z M1380.5,775.7L1380.5,775.7c0-0.1,0.2-0.1,0.2,0.1
					C1380.6,775.9,1380.7,775.8,1380.5,775.7L1380.5,775.7z M1382.3,774.9c0.3-0.6,1.1-0.7,1.6-1s0-0.7,0.6-0.9s1.2-0.1,1.6,0.3
					c0.3,0.4,0.3,0.9,0.2,1.3c-0.4,0.5-0.9,1-1.5,1.3l-1.5,0.4l-0.9-0.4C1382.2,775.7,1382.1,775.3,1382.3,774.9L1382.3,774.9z
					 M1378.9,776.4L1378.9,776.4h0.2c0.2,0,0.2,0.1,0,0.2C1378.8,776.7,1378.9,776.4,1378.9,776.4L1378.9,776.4z M1420.9,776.2
					c-0.1-0.5,0.2-1,0.7-1.2c0.6,0,1.2,0.3,1.5,0.8s0.2,1.1-0.2,1.5C1422,777.3,1421.3,776.9,1420.9,776.2L1420.9,776.2z
					 M1443.4,777.4c0-0.5,0.1-0.9,0.4-1.3c0.5,0,0.5,0,0.4,1c0.3,0.4,0.7-0.2,1,0.1C1444.7,778,1444.4,778,1443.4,777.4
					L1443.4,777.4z M1472.7,777.7c0.1,0.1,0.1,0.2,0.1,0.3h-0.1C1472.5,778,1472.5,777.8,1472.7,777.7L1472.7,777.7z M1898.3,719.8
					c0-0.9,0-1.4,0-1.8c0.6-0.9,1.5-1.5,2.6-1.6c1.2-0.1,2.2,0.7,2.6,1.8c0,0.7-0.4,1.2-0.9,1.6
					C1901.1,720.6,1899.8,719.4,1898.3,719.8L1898.3,719.8z M1419.3,791.3L1419.3,791.3L1419.3,791.3L1419.3,791.3z M1449.2,791.3
					c-0.5,0.9-1.6,0.5-1.9,1c-0.6,0-1-0.3-1.2-0.8s0.3-0.8,0.8-1.1C1447.8,790.2,1448.7,790.5,1449.2,791.3L1449.2,791.3z
					 M1414.3,790.2L1414.3,790.2L1414.3,790.2z M1497.9,783.5c-0.8,0-1.1-0.6-1.7-0.7c-0.6-0.1-1.1,0-1.6-0.2s0-0.5,0.3-0.6
					s1.2-0.5,1.8-0.8c0.6-0.2,1.3,0,1.7,0.5c0.2,0.3,0.2,0.7,0.1,1.3C1498.4,783.2,1498.1,783.4,1497.9,783.5L1497.9,783.5z
					 M1456.9,779c0.2-0.2,0.5-0.3,0.8-0.1l0.1,0.1C1457.5,779.4,1457.2,779.4,1456.9,779z M1421.5,780.2L1421.5,780.2L1421.5,780.2
					L1421.5,780.2z M1466.4,779.5c0,0,0.1-0.3,0.3-0.3C1466.7,779.3,1466.9,779.3,1466.4,779.5l-0.1,0.3
					C1465.9,779.6,1466.3,779.6,1466.4,779.5L1466.4,779.5z M1394.1,781.3c0.2-0.1,0.5,0,0.6,0.2c0,0.2-0.1,0.3-0.2,0.5
					c0,0-0.2,0-0.4,0.2C1394,782.4,1394,781.6,1394.1,781.3L1394.1,781.3z M1445.3,794.3l0.6,0.4c-0.5,0.7-0.5,0.7-1.3,0.4
					C1444.5,794.6,1444.8,794.3,1445.3,794.3z M1600.1,797.3c0-0.5,0.1-1,0.4-1.5c0.6,0,0.6,0,0.5,1.2c0.3,0.4,0.8-0.2,1.1,0.2
					C1601.6,798,1601.3,798.1,1600.1,797.3z M1881.8,714.9c-0.3-0.9-0.1-1.9,0.6-2.7l1.5-0.3l1.2-1l-1.1,1.1c0,1.2,0.4,2.4-0.7,3.4
					C1882.6,715.6,1882,715.3,1881.8,714.9L1881.8,714.9z M2016.5,734.8c-0.3,0.2-0.7,0.3-1,0.4c-0.3,0-0.7,0-1,0
					c-0.7-0.5-0.6-1,0-1.5C2015.8,733.2,2016.2,733.9,2016.5,734.8L2016.5,734.8z M2046.4,738.4c1.4-1.9,1.4-1.9,3.7-1
					c0,1-0.7,1.9-1.7,2.1C2047.6,739.7,2046.8,739.2,2046.4,738.4L2046.4,738.4z M1806.5,742.1c-1.1,0-1.5-0.7-1.9-1.4
					c-0.4-0.6,0.2-0.9,0.7-1.3c1.5,0,2.2,0.8,2.1,2.2C1807.2,741.7,1806.9,741.9,1806.5,742.1z M1943.9,728.1c-1-1-1.8-1.9-0.9-3
					c0.7-0.5,0.7-0.5,3.3-0.3l2.5,3c-0.3,0.7-0.8,1.1-1.9,1.6L1943.9,728.1z M1892.7,649.6c0.2-0.6,0.6-1,1.2-1.3
					c0.6,0,0.6,0,1.3,0.5c0,0.4-0.2,0.6-0.4,1l-1.5,0.3C1893,650,1892.9,649.7,1892.7,649.6L1892.7,649.6L1892.7,649.6z M1799,737
					h0.3l-0.2,0.3L1799,737z M1902.1,654.5c-0.6-0.2-1-0.8-1.1-1.4c0.2-0.5,0.7-0.8,1.1-1c0.6-0.2,1.4-0.1,1.8,0.4
					c0.2,0.5,0.2,1,0,1.5C1903.4,654.4,1902.8,654.6,1902.1,654.5z M1933.1,755.5h1.8c0.6-0.6,0.2-1.6,1.3-2
					c2.3,0.3-1.5,2.4,1.4,2.3l-2.1,2.1c0.3,0.7,0.5,1.5,1,2.7l-4-0.9c-0.4-0.6-0.8-1.3-1.2-1.8
					C1931.5,756.6,1932.7,756.3,1933.1,755.5z M1968,754v0.3h-0.2L1968,754z M1888.8,662.2c0-0.4,0.4-0.5,1-0.6
					c-0.2,0.7-0.4,1-1,0.7V662.2z M1944.7,762.8c1,1,0,1.5-0.8,2.1c-0.7-0.9-0.7-0.9,0.8-1.9V762.8z M1461.5,823.1
					c-0.2,0.2-0.4,0.2-0.5,0C1461.1,823,1461.3,823,1461.5,823.1L1461.5,823.1z M1350.3,918.4c0,0,0.4,0.2,0.4,0.3
					c0,0.3-0.1,0.6-0.3,0.8c-0.7,0-1.3-0.2-1-1C1349.4,918.4,1350,918.4,1350.3,918.4z M1465.6,834c0.1-0.3,0.4-0.6,0.7-0.6
					c0.5-0.1,1,0.1,1.4,0.4c0.2,0.2,0.2,0.5,0,0.8c-0.4,0.3-0.8,0.5-1.3,0.6C1466,834.9,1465.8,834.5,1465.6,834z M1465.3,833.6
					c-0.6,0-1.1-0.3-1.5-0.8c-0.2-0.5,0-1.1,0.5-1.3h0.1c0.4,0.1,0.8,0.4,1.1,0.7C1465.8,832.6,1465.7,833.2,1465.3,833.6z
					 M1457.6,832.2L1457.6,832.2c0.1-0.1,0.1-0.2,0.2-0.3C1458.1,832.1,1457.8,832.1,1457.6,832.2L1457.6,832.2L1457.6,832.2
					c-0.1,0.2-0.4,0.4-0.7,0.4c-0.3,0-0.7-0.2-0.8-0.5c0-0.4,0.4-0.7,0.8-0.9s0.2,0.1,0.3,0.2S1457.2,832,1457.6,832.2L1457.6,832.2
					z M1879.2,676.5c0.7-0.2,0.8,0.2,1.1,0.4C1879.7,677.2,1879.6,676.9,1879.2,676.5L1879.2,676.5z M1912.1,676.1
					c0.2,0.1,0.2,0.3,0,0.5S1912,676.3,1912.1,676.1L1912.1,676.1z M1910.6,679.1c1.1,1.1,1.1,1.5,0,2.7c-0.4,0.1-0.8,0-1.1-0.2
					l-0.5-0.7c0-0.6,0.2-1.2,0.5-1.7c0.3-0.3,0.8-0.5,1.2-0.3L1910.6,679.1z M1892.7,680.7c0.2,0.2,0.2,0.3,0,0.4
					c0-0.4,0-0.4,0.2-0.6L1892.7,680.7z M1896.1,683.7l-0.2-0.3l-0.3-1.6c0.6-0.6,1.3-0.9,2.1-1c0.4,0.1,0.8,0.4,1,0.7
					c0.2,0.4,0.2,0.9,0,1.4c-0.4,0.6-1,1-1.7,1.1L1896.1,683.7z M1899.8,685c0-0.7,0.7-1,1.3-1.3c0.6-0.2,1.2-0.2,1.8,0
					c0.1,0.2,0,0.4-0.2,0.5c0,0,0,0-0.1,0c-0.5,0-1,0.2-1.6,0.4c-0.5,0.1-0.4,0.6-1,0.4L1899.8,685z M1915.2,686.1
					c0.5-0.5,1-1,1.6-1.7c0.5,0.4,0.5,1.2,0.1,1.6c0,0,0,0-0.1,0.1c-0.3,0.5-0.9,0.8-1.5,0.7c-0.3-0.4-0.1-0.7,0.1-0.8L1915.2,686.1
					z M1926.6,692.8c0.6-0.5,1-0.2,1.6,0c-0.4,0.2-1,0.2-1.4,0H1926.6z M1913.5,698c0.3-0.3,0.7-0.4,1.1-0.3
					c0.4,0.1,0.6,0.4,0.7,0.7c0,0.4-0.3,0.6-0.7,0.7c-0.5-0.1-0.9-0.3-1.2-0.6C1913.6,698.2,1913.6,698.1,1913.5,698L1913.5,698z
					 M1909.3,699.6c-0.2,0-0.2-0.3,0-0.4l0,0c0.5,0.1,0.4,0.2,0.2,0.4H1909.3z M1893.6,710.7c-0.3-0.3,0-0.6,0-0.8
					c0.2-0.2,0.5-0.2,0.7,0C1894.4,710.5,1894.2,710.7,1893.6,710.7z M1442.2,925.8c0.7-0.2,1.5,0.3,1.7,1c0,0.2-0.2,0.4-0.3,0.4
					c-0.7,0.3-1.5,1-2.4,0.2c0.1-0.6,0.5-1.2,1-1.4L1442.2,925.8z M1884.8,714.2c0-0.5,0.2-0.5,1.1-0.7c0.4,0.9,0.4,0.9-0.6,1.5
					c-0.5,0.1-0.6-0.1-0.5-0.5V714.2z M1867.6,717.1c0.2-0.3,0.6-0.3,0.8-0.1l0.1,0.1c-0.2,0.3-0.5,0.4-0.8,0.3c0,0-0.1,0-0.1-0.1
					V717.1z M1468.9,938.8c-0.3,0.6-0.8,1-1.4,1.3c-0.4,0.1-0.8,0.1-1.2-0.1c-0.5-0.4-0.2-0.9-0.3-1.3c0.3-0.6,0.9-1,1.6-1
					C1468.3,937.7,1468.8,938.1,1468.9,938.8z M1471.9,937.7L1471.9,937.7L1471.9,937.7L1471.9,937.7z M1886.4,720.5
					c0,0,0.2,0,0.3-0.2c0.1-0.2,0.4,0.2,0.3,0.4c-0.1,0.1-0.2,0.2-0.4,0.2C1886.5,720.9,1886.4,720.7,1886.4,720.5z M1885.5,722.9
					c0.2-0.4,0.6-0.6,1-0.5c0,0.7-0.6,1.2-0.8,1.8c-0.4-0.3-0.6-0.8-0.3-1.2C1885.5,723,1885.5,722.9,1885.5,722.9z M1525.2,809.5
					h-0.7c-0.5-0.4-0.5-1.1-0.8-1.6s0.2-0.2,0.4-0.1c0.5,0.4,1.1,0.6,1.7,0.7l0.9-0.4c0.2,0.3,0.6,0.6,0.6,1.1s-0.4,0.4-0.7,0.4
					L1525.2,809.5z M1520.3,815.5c0,0,0-0.2,0-0.3c0.1-0.1,0.2-0.2,0.4-0.2c0.1,0.1,0.2,0.2,0.1,0.4l-0.1,0.1
					C1520.7,815.5,1520.5,815.5,1520.3,815.5L1520.3,815.5z M1451.2,955.6h0.3c0.3,0.3,0.2,0.6,0,1.2l-2.5,1.5
					c-0.8-0.1-0.4-0.6-0.5-1C1449.1,956.5,1450.1,955.9,1451.2,955.6z M1452.3,956c0.2-0.5,0.8-0.8,1.3-0.6l0,0
					c0.3,0.2,0.4,0.4,0.3,0.7S1452.9,956.6,1452.3,956L1452.3,956z M1522.1,825.6c1-0.2,1.4,0,1.6,0.7c0,0.4-0.3,0.7-0.7,0.8
					C1522.2,827,1522.7,826.2,1522.1,825.6L1522.1,825.6z M1495.2,954.7c0,0.4-0.2,0.5-0.6,0.5c-0.3,0-0.3-0.6,0.2-0.8
					c-0.1,0,0.2,0.2,0.2,0.3H1495.2z M1493.3,952.5c-0.9,0.7-1.5-0.2-2.3,0c0.7-1.1,1.5-1.6,2.4-1.2c0,0.1,0.2,0.2,0.1,0.3
					s-0.3,0.7-0.4,1L1493.3,952.5z M1533.5,828c0.1-0.1,0.3-0.2,0.5,0l0,0c0.2,0,0.1,0.3,0,0.4
					C1533.7,828.4,1533.5,828.3,1533.5,828L1533.5,828z M1523.9,832.6c-1.3-0.6-1.8-1.7-2.7-2.7c0-0.2,0-0.5,0.2-0.7
					c0.1-0.1,0.2-0.3,0.4-0.4c0.3,0,0.4,0,0.5,0c0.7,0.5,1.2,1.2,1.4,2l1.5,1c-0.4,0.9-0.9,0.9-1.5,0.8L1523.9,832.6z M1522.8,837.2
					c-0.3-0.4,0-0.7,0-1.2c0.3-0.2,0.7-0.3,1.1-0.4c0.6,0,1.3-0.2,1.9-0.3c0,1,0,1-1,2.1c-0.3,0.1-0.6,0-0.7-0.3
					c-0.6,0-1,0.4-1.5,0.2L1522.8,837.2z M1510,957.6c-1-0.5-1-0.5-0.3-1.8c0.1-0.1,0.3-0.3,0.4-0.4l2-0.7c-0.7,1.3-2.2,1.7-2.3,3
					L1510,957.6z M1519.7,840.7c-0.4-0.3-0.7-0.7-0.7-1.2c0.2-0.5,0.7-0.8,1.3-0.7c0.5,0,1,0.2,1.3,0.6c0.2,0.4,0.2,0.8,0,1.1
					C1521,840.8,1520.3,840.9,1519.7,840.7z M1526,839.2L1526,839.2L1526,839.2z M1500.2,963.5c-0.4-1.1-0.8-2.4-1.3-3.9
					c1.7,1.2,2.9,3,3.6,5C1500.8,964.8,1500.4,964.2,1500.2,963.5L1500.2,963.5z M1502.6,965.2L1502.6,965.2L1502.6,965.2z
					 M1526.8,843.5l0.7-1.2c0.8,0.9,1.5,1.6,0.9,2.7C1527.3,844.8,1527.3,844,1526.8,843.5L1526.8,843.5z M1496,980.2
					c0.5-0.3,1.1-0.4,1.6-0.2c0.7,0,1.4,0.3,1.9,0.8c0,0,0,0.2,0,0.3C1496.3,981,1496.3,981,1496,980.2L1496,980.2z M1530.7,955.9
					c-0.2-0.6-0.5-1.2,0.2-1.9c0.7-0.4,1.5-0.4,2.3-0.2c0,0.3,0,0.6,0,0.8h-0.9C1531.6,955,1531.6,955.9,1530.7,955.9L1530.7,955.9z
					 M1552.7,860L1552.7,860l0.3,0.5c-0.4,0.2-0.4,0-0.6-0.2l0,0c-0.4,0.4-1.1,0.5-1.6,0.3l0,0c-0.2,0.1-0.4,0.1-0.6,0l0,0
					c0.2-0.1,0.4-0.1,0.6,0l0,0c0.4-0.5,1.1-0.6,1.6-0.2l0,0L1552.7,860L1552.7,860c-0.3-0.1-0.4-0.3-0.6-0.5h-0.4
					c0-0.4,0.2,0,0.4,0c0.5-0.3,1.2-0.1,1.5,0.4l0,0c0.1,0,0.2,0,0.3,0c0,0.4-0.2,0.1-0.3,0l0,0l-1,0.3L1552.7,860z M1555.4,860.7
					c0.3-0.2,0.7-0.2,1,0l0,0c0.3,0,0.5,0,0.6,0.3s-0.4,0-0.6-0.3l0,0c-0.4,0.3-0.6,0.8-0.4,1.3
					C1555.2,861.7,1555.1,861.3,1555.4,860.7z M1556.3,873c-0.5,0.4-0.7,0.3-0.9,0c-0.5-0.6-0.8-1.4-0.9-2.2
					c0.5-1.2,0.6-1.2,1.7-1.1C1556,870.8,1556.1,871.9,1556.3,873z M1567.5,962c-0.1,0.1-0.3,0.2-0.5,0.3l-1.4,0.2
					c0.7-1.8,0.7-1.8,2-1.6c0,0.2,0,0.3,0,0.5C1567.6,961.7,1567.5,961.9,1567.5,962z M1507.9,1003.9c0.5-0.1,0.7,0,1,0
					c0.1,0.5-0.1,0.9-0.5,1.2c-1,0.1-0.7-0.4-0.5-1.1V1003.9z M1544,984.8c-0.8-0.3-1.2-1-1.6-1.8c0.3-0.5,0.5-1,0.8-1.5
					c1.1,0.2,2.1-0.7,3.3-1.2c0,1.4-0.4,2.8-1.2,4C1545,984.7,1544.4,984.9,1544,984.8L1544,984.8z M1544.9,985.6
					c0.5-0.3,1.1-0.4,1.7-0.3c0.5,0.2,0.8,0.6,0.9,1.2c0,0.2,0,0.4-0.2,0.5c-0.9,0.8-1.5,0.8-2.2,0.3s-0.5-0.5-0.1-1.6L1544.9,985.6
					z M1556.1,981.6c0.2-0.2,0.5-0.3,0.7-0.2c0.3,0.2,0.6,0.4,0.9,0.6l0,0c-0.4,0.6,0.2,1,0,1.5c0,0,0,0.2-0.2,0.2
					c-0.4,0.2-0.9,0.2-1.4,0c0.2-0.6,0.1-1.3-0.1-1.9L1556.1,981.6z M1549.3,991.7c0.1,0.2,0.1,0.5-0.2,0.6h-0.1c-0.1,0-0.4,0-0.4,0
					c-0.1-0.2-0.1-0.4,0.1-0.6c0,0,0.1-0.1,0.2-0.1C1549,991.5,1549.2,991.7,1549.3,991.7L1549.3,991.7z M1565.8,999.3L1565.8,999.3
					L1565.8,999.3L1565.8,999.3z M1564.6,1001.7c0-0.4,0.2-0.5,0.6-0.4S1565,1001.9,1564.6,1001.7L1564.6,1001.7z M1575.5,992.7
					c-0.5-0.1-0.2-0.5,0-0.9c0.3-0.2,0.6-0.2,0.8,0c-0.1,0.8-0.5,1-0.9,1.1L1575.5,992.7z M1548.6,1016.6c-0.3-0.5-0.2-1.1,0.1-1.5
					c0.5-0.4,1.2-0.5,1.8-0.3c0.6,0.3,0.5,0.8,0.6,1.3c-0.6,0.9-1.7,1.2-2.6,0.9L1548.6,1016.6z M1561.2,1016.1
					c0-0.1-0.2-0.4-0.1-0.5c0.1-0.7,0.6-1.4,0.3-2.2c-0.2-0.8,0-1.6,0.5-2.2l0,0c0-0.1,0-0.3,0-0.2s0,0,0,0.2l0,0
					c0.4,0.2,0.7,0.4,1.1,0.6c0.5,0.2,0.9,0.6,1,1.1c0,0.8-0.9,1.1-1.1,1.8l0.8,0.8c-1,1-1.7,1.4-2.6,1L1561.2,1016.1z M1586.4,995
					c-0.3,0.1-0.6-0.1-0.7-0.3c0-0.7,0.5-1,1.3-1c0.3,0.5,0.2,1.2-0.2,1.5c-0.2,0.1-0.3,0.2-0.5,0.2L1586.4,995z M1855.1,728.5
					l-0.6-0.4c0-0.2,0-0.4,0-0.5c0.8-0.1,1.6,0.2,2.1,0.8c-0.7,0.2-1.1,0.6-1.6,0.5L1855.1,728.5z M1588.1,993.6c0,0-0.1,0-0.2,0
					s-0.6-0.4-0.9-0.9l1-2.8c0.7-0.4,0.7,0.3,1,0.5C1589.1,991.5,1588.7,992.6,1588.1,993.6z M1851.5,734.6c0.2,0.2,0.2,0.6,0,0.8
					s-0.4,0.3-0.7,0C1851.1,734.8,1851.1,734.8,1851.5,734.6z M1587.6,1001.2c0-0.8,0.3-1.5,0.8-2.1c0.3-0.2,0.5-0.3,0.8-0.1
					s0,0.4,0,0.5c-0.3,0.6-0.6,1.2-0.9,1.9L1587.6,1001.2z M1640.7,981.7c0.3-0.4,0.8-0.6,1.3-0.7c0.7-0.1,1.4,0.1,1.9,0.6l-1.4,2.1
					c-0.6,0.5-1.5,0.7-2.3,0.3C1639.8,983.2,1640,982.3,1640.7,981.7L1640.7,981.7z M1625.7,997.4c-0.1,0.1-0.1,0.1-0.2,0.2h-0.5
					c-0.3-0.5-0.4-1.1-0.4-1.7c0.3-0.4,0.6-0.5,0.8-0.4c0.3,0.3,0.6,0.6,0.9,0.9c1-0.2,1.2,0.5,1.7,1.2c-0.7-0.1-1.3-0.5-1.7-1.1
					C1626.2,996.7,1626,997.1,1625.7,997.4L1625.7,997.4z M1655.2,978.3c-1.2,1.7-1.3,1.8-3,1c-0.3-0.5-0.3-1.1,0-1.6
					c0.2,0,0.4-0.3,0.5-0.3C1653.8,977.4,1654.8,977.3,1655.2,978.3L1655.2,978.3z M1662.6,970.5L1662.6,970.5h0.5
					C1663.1,971,1662.8,970.6,1662.6,970.5L1662.6,970.5l-0.7,0.4c-0.5,0-0.9-0.3-1-0.8c-0.1-0.4,0.1-0.8,0.4-0.9l0,0
					c0.7,0.2,0.9,0.9,1.3,1.4L1662.6,970.5z M1851.1,745.9c0,0.6,0,0.6-0.4,1.1c-0.1,0.1-0.3,0-0.4-0.1v-0.1c0-0.3,0.1-0.5,0.3-0.7
					L1851.1,745.9z M1845.4,745.5c0,0-0.2,0,0-0.2S1845.5,745.4,1845.4,745.5L1845.4,745.5z M1637.1,972.2c-0.2,0.6-0.8,0.5-1.2,0.7
					c-0.5,0-0.9-0.3-0.9-0.8c0-0.1,0-0.2,0-0.3l0.7-1C1636.6,970.9,1636.8,971.6,1637.1,972.2L1637.1,972.2z M1628.1,977.9
					c0.1,0.2,0.3,0.5,0.4,0.7c-0.4,0.6-0.8,0.4-1.2,0.2c-0.4-0.2-0.2-0.8,0.2-1.3c0.3,0.1,0.5,0.3,0.8,0.4L1628.1,977.9z
					 M1601.4,997.8c0,0.4-0.2,0.7-0.3,1c-0.4,0.5-1.1,0.7-1.7,0.5c-0.7,0-1.3-0.2-1.2-1.4c0.9-0.9,1.7-1.8,3-1.3
					c0.1,0.4,0.3,0.7,0.3,1.1L1601.4,997.8z M1850.5,739.6c0.1,0.1,0.1,0.2,0,0.2h-0.4c-0.1,0-0.2-0.2-0.1-0.3s0.5-0.1,0.7,0.1
					H1850.5z M1612.6,985c0,0,0.2,0,0.3,0c0.5,0.4,0.2,1.1,0.3,1.7c-0.9-0.4-1-0.9-0.7-1.6L1612.6,985z M1644.5,951
					c-0.3,0-0.4,0-0.3-0.4C1644.4,950.1,1644.7,950.7,1644.5,951L1644.5,951z M1838.4,743.5c0.4-0.2,0.6,0,1,0.3
					C1838.6,744,1838.6,744,1838.4,743.5z M1860.3,735.2c0,0.1,0,0.2,0,0.3c-0.2,0.1-0.3,0.1-0.5,0c0-0.2,0-0.4,0.2-0.6
					C1860.1,734.9,1860.2,735,1860.3,735.2z M1835.1,737.3c0,0.1-0.1,0.2-0.2,0.2c0,0,0,0-0.1,0c0-0.1,0-0.1,0-0.2c0,0,0,0,0-0.1
					L1835.1,737.3z M1843.4,729.4c0,0.3-0.1,0.5-0.4,0.7c-0.4-0.2-0.7-0.5-0.7-1C1843,728.8,1843,728.8,1843.4,729.4L1843.4,729.4z
					 M1540,1007.8c0,0.1,0,0.2,0,0.2V1007.8c-0.8-0.8-1.5-1.6-2-2.5c-0.1-0.9,0.2-1.9,0.8-2.6c1.2-0.7,2.5-1.2,3.8-1.6l0.9,0.3
					c0.3,0.5,0.4,1.1,0.2,1.7c-1,0.2-2.1,0-3.2,0.4c-0.4,0.3-0.5,0.8-0.4,1.3C1540.3,1005.8,1540.3,1006.8,1540,1007.8L1540,1007.8z
					 M1545.3,1003.1c-0.1-0.5,0.1-1.1,0.5-1.4C1546.2,1002.3,1546.1,1002.7,1545.3,1003.1z M1556,993.9c0,0,0,0.2,0,0.4
					c-0.6,0-1.2-0.2-1.6-0.6C1555.1,993,1555.5,993,1556,993.9L1556,993.9z M1836.1,732c0.4,0.1,0.6,0.6,0.4,0.9l0,0
					c-0.1,0.1-0.3,0.1-0.4,0c-0.1-0.2-0.2-0.4-0.2-0.7l0,0L1836.1,732z M1456.2,950.2c-0.5,0.6-1.1,1-1.9,1.1c-0.3,0-0.6,0-0.7-0.4
					s0.2-0.3,0.3-0.4c0.1-0.1,1.2-0.5,1.8-0.8L1456.2,950.2z M1892.4,731.2c0.2-0.2,0.6-0.3,0.9,0l0,0
					C1893.1,731.4,1892.7,731.4,1892.4,731.2L1892.4,731.2z M1446.1,944.3c0.4,0.5,0.8,1,0,1.8c-1.2,0-2.4,0.3-3-1
					c0.2-0.3,0.4-0.6,0.6-0.9c0.3-0.2,0.5-0.4,0.8-0.6C1445.1,943.6,1445.7,943.8,1446.1,944.3z M1465.8,941.7
					c-0.5-0.1-0.9-0.3-1.3-0.6c0.6-0.3,1.4-0.3,2,0c0.1,0.4-0.2,0.7-0.5,0.6H1465.8z M1383.2,1004.4c0,0.4,0.1,0.8,0,0.9
					c-1,1.4-2.5,2.4-4.2,2.8c-1.3-0.4-2.8-0.5-3.5-1.8c0.1-0.3,0.3-0.7,0.5-0.7c1.7-0.5,3.3-1.2,4.7-2.2L1383.2,1004.4z
					 M1375,1003.8c-1.4,0.2-2.8,0-4-0.7c-0.8-1.5-0.2-2.5,2.1-3.3C1374.1,1001.1,1375.2,1002.2,1375,1003.8L1375,1003.8z
					 M1369.8,992.6c-1.9,0.5-1.9,0.5-2.2-0.8C1368.5,991.7,1369.3,991.9,1369.8,992.6L1369.8,992.6z M1381.5,901.1
					c0.2,0.7-0.3,0.9-0.9,1.2l-0.7-0.3c0-0.2,0-0.5,0-0.7C1380.2,900.8,1380.9,900.7,1381.5,901.1
					C1381.5,901,1381.5,901,1381.5,901.1L1381.5,901.1z M1366.8,871.2L1366.8,871.2l0.4,0.2C1366.8,871.7,1366.9,871.4,1366.8,871.2
					L1366.8,871.2L1366.8,871.2c-0.7,0-1.3,0-1.5-0.8C1366.2,870.3,1366.5,870.8,1366.8,871.2L1366.8,871.2z M1378.9,867.5
					L1378.9,867.5c0.5,0.1,0.9,0.5,1.1,0.9c-0.2,0.4-0.4,0.5-0.7,0.4S1378.9,867.9,1378.9,867.5L1378.9,867.5L1378.9,867.5
					c-0.3,0-0.6-0.3-0.4-0.7C1379,867,1378.9,867.3,1378.9,867.5L1378.9,867.5z M1374.4,866.8c-0.3,0-0.3-0.3,0-0.5
					C1374.6,866.1,1374.6,866.7,1374.4,866.8L1374.4,866.8z M1459.2,823l-0.4,0.2c-1.6-0.6-1.6-0.6-1.6-1.6l0.6-0.2
					C1458.9,821.9,1458.9,821.9,1459.2,823L1459.2,823z M1460,815.4l-0.4-0.2c0-0.3,0.1-0.7,0.4-0.8
					C1460.4,814.7,1460.2,815,1460,815.4L1460,815.4z M1463.7,814.7c-0.2,0-0.2-0.3,0-0.4C1463.9,814.2,1464,814.6,1463.7,814.7
					L1463.7,814.7z M1452.9,814.7c0.5,0.2,0.9,0.4,0.7,1.1C1453.1,815.7,1452.8,815.3,1452.9,814.7l-0.4-0.1
					C1452.8,814.3,1452.8,814.6,1452.9,814.7L1452.9,814.7z M1451.2,813c-0.2-0.1-0.2-0.3,0-0.4
					C1451.4,812.5,1451.4,812.8,1451.2,813L1451.2,813z M1469.4,802c-0.3,0.6-0.9,0.8-1.5,0.6c-0.1-0.1-0.3-0.3-0.4-0.4
					c0-0.2-0.2-0.5-0.3-0.7c0.1-0.1,0.2-0.3,0.4-0.4c0.3-0.2,0.7-0.3,0.9-0.4C1469.2,800.9,1469.5,801.3,1469.4,802L1469.4,802z
					 M1339.9,934.7l0.3,0.1L1339.9,934.7L1339.9,934.7z M1388.8,872.8c-0.7,1.2-2,0.7-2.6,1.4c-0.8-0.2-1.3-0.4-1.5-1
					s0.4-1.1,1.1-1.5C1386.9,871.3,1388.1,871.8,1388.8,872.8L1388.8,872.8z M1327.9,932.2h-0.3l0.2-0.2L1327.9,932.2z
					 M1404.9,914.3c-0.1,0.2-0.4,0.3-0.6,0.1c-0.1,0-0.1-0.1-0.1-0.1c0.1-0.2,0.4-0.3,0.6-0.2
					C1404.8,914.1,1404.9,914.2,1404.9,914.3L1404.9,914.3z M1410.2,928.5c0.2-0.4,0.5-0.7,0.9-0.8c0.7-0.1,1.3,0.1,1.8,0.6
					c0.2,0.3,0.2,0.7,0,1c-0.5,0.4-1.1,0.7-1.7,0.8C1410.7,929.6,1410.4,929,1410.2,928.5L1410.2,928.5z M1409.8,927.9
					c-0.8,0-1.5-0.4-2-1.1c-0.3-0.6,0-1.4,0.7-1.6c0,0,0.1,0,0.2-0.1c0.6,0.2,1,0.5,1.4,0.9C1410.4,926.6,1410.3,927.4,1409.8,927.9
					L1409.8,927.9z M1399.8,926L1399.8,926l0.4-0.3c0.3,0.3,0,0.3-0.2,0.3l0,0l0,0c-0.2,0.3-0.6,0.5-1,0.5c-0.5,0-0.9-0.3-1.1-0.7
					c0-0.6,0.5-0.8,1.1-1.1c0.5-0.3,0.3,0.2,0.4,0.3S1399.3,925.8,1399.8,926L1399.8,926z M1596.1,736.8c-0.3,0.5-0.8,0.9-1.3,1.2
					c-0.3,0.2-0.7,0.2-1.1,0c-0.4-0.3-0.2-0.8-0.2-1.2c0.2-0.6,0.8-0.9,1.5-0.9C1595.5,735.9,1596,736.2,1596.1,736.8L1596.1,736.8z
					 M1598.7,735.9L1598.7,735.9L1598.7,735.9z M1593.3,739.4c-0.4-0.1-0.8-0.3-1.2-0.5c0.5-0.3,1.2-0.3,1.8,0
					C1594,739.2,1593.7,739.4,1593.3,739.4L1593.3,739.4z M1401.8,914.1l-0.5,0.3c-2-0.7-2-0.7-2-2l0.7-0.3
					C1401.5,912.6,1401.5,912.6,1401.8,914.1L1401.8,914.1z M1402.8,904.2l-0.4-0.2c-0.1-0.5,0.2-0.9,0.6-1.1
					C1403.4,903.2,1403.2,903.6,1402.8,904.2L1402.8,904.2z M1407.8,903.4c-0.3-0.2-0.2-0.4,0-0.5
					C1408,902.6,1408.1,903.1,1407.8,903.4L1407.8,903.4z M1393.6,903.2c0.7,0.2,1.2,0.6,1,1.4
					C1393.9,904.5,1393.5,903.9,1393.6,903.2l-0.4-0.2C1393.5,902.6,1393.5,903,1393.6,903.2L1393.6,903.2z M1391.4,900.9
					c-0.2-0.2-0.3-0.4,0-0.5C1391.7,900.2,1391.7,900.7,1391.4,900.9L1391.4,900.9z M1415.2,886.6c-0.4,0.7-1.2,1.1-2,0.8
					c-0.2-0.2-0.3-0.4-0.5-0.6c-0.2-0.3-0.3-0.6-0.4-0.9c0.2-0.2,0.3-0.4,0.4-0.4c0.4-0.2,0.8-0.4,1.2-0.5
					C1414.9,885.2,1415.3,885.7,1415.2,886.6L1415.2,886.6z M1572.3,761.1L1572.3,761.1L1572.3,761.1z M1607.2,806.5
					c-0.1,0.3-0.4,0.6-0.7,0.6c-0.7,0-0.8-0.5-1.1-0.8c0-0.4,0.2-0.7,0.6-0.9C1606.6,805.5,1607.1,805.9,1607.2,806.5L1607.2,806.5z
					 M1540.2,763.5c0-0.5,0.1-1,0.4-1.5c0.6,0,0.6,0,0.5,1.2c0.3,0.4,0.8-0.2,1.1,0.1C1541.6,764.2,1541.3,764.2,1540.2,763.5
					L1540.2,763.5z M1574.4,763.9c0.1,0.1,0.1,0.2,0.1,0.3h-0.1C1574.2,764.1,1574.2,764,1574.4,763.9L1574.4,763.9z M1509.9,1015.8
					l-0.6-0.8c-0.1-0.6,0.2-1.2,0.6-1.6c0.5-0.4,1.2-0.5,1.8-0.1c0.2,0.3,0.3,0.7,0.1,1C1511.4,1015.1,1510.4,1015,1509.9,1015.8
					L1509.9,1015.8z M1546.8,779.8c-0.7,1-1.8,0.6-2.3,1.2c-0.7,0-1.2-0.4-1.3-0.9c-0.1-0.5,0.4-1,1-1.3
					C1545.2,778.4,1546.3,778.9,1546.8,779.8L1546.8,779.8z M1848.6,718.2L1848.6,718.2L1848.6,718.2z M1556.1,765.4
					c0.2-0.3,0.6-0.3,0.9-0.1l0.1,0.1C1556.6,765.7,1556.3,765.7,1556.1,765.4L1556.1,765.4z M1567.2,766c0,0,0.2-0.3,0.3-0.3
					s0.3,0-0.2,0.4c-0.1,0.1-0.2,0.2-0.3,0.3c-0.4-0.3-0.1-0.3,0-0.4H1567.2z M1501,1019.4c-0.5-0.3-0.7-0.8-0.7-1.4l0.5-0.7
					l0.2-0.9c0,0.3,0,0.6,0,0.9c0.4,0.5,1.1,0.9,0.9,1.8c-0.2,0.3-0.7,0.4-1,0.2L1501,1019.4z M1567.3,980.3
					c-0.1,0.2-0.2,0.4-0.3,0.5c0,0.1-0.3,0.2-0.5,0.3c-0.1,0.1-0.6-0.2-0.5-0.7c0.1-0.4,0.8-0.5,1.2-0.2L1567.3,980.3z
					 M1581.7,971.3c0-1.3,0-1.3,1.3-1.8c0.4,0.4,0.4,1.1,0,1.5s-1,0.5-1.5,0.1L1581.7,971.3z M1889.2,652.5c-0.3,0-0.4-0.2-0.5-0.4
					s0-0.2,0.2-0.4c0.2-0.1,0.6,0.2,0.6,0.6L1889.2,652.5z M1533,1003.1c-0.8,0-1.5-0.2-1.5-1s0-0.5,1.3-1.3l2.1,0.4
					c0.1,0.5,0,1-0.3,1.4L1533,1003.1z M1878.2,650.2c0.1-0.4,0.4-0.7,0.7-0.8c0.4,0,0.4,0,0.9,0.3s0,0.4-0.3,0.7l-1,0.2
					C1878.4,650.6,1878.2,650.4,1878.2,650.2z M1887.2,651L1887.2,651L1887.2,651z M1883.9,653.3c-0.4-0.2-0.6-0.5-0.7-0.9
					c0.2-0.3,0.4-0.5,0.7-0.6c0.4-0.2,0.9-0.1,1.2,0.2c0.1,0.3,0.1,0.7,0,1C1884.7,653.3,1884.3,653.4,1883.9,653.3L1883.9,653.3z
					 M1537.9,1019l0.7-0.7c0-0.5-0.5-0.8-0.2-1.3c1.1-0.7,0.2,1.6,1.4,0.5c0,0.7,0,1.2,0,1.7l1.4,0.8l-2.1,1
					c-0.4-0.2-0.8-0.3-1.2-0.4C1537.6,1020.1,1538,1019.5,1537.9,1019z M1552.7,1006L1552.7,1006L1552.7,1006z M1875.4,658.3
					c0-0.2,0.2-0.4,0.6-0.4C1876,658.3,1875.8,658.5,1875.4,658.3L1875.4,658.3z M1545.6,1018.2c0.8,0,0.5,0.7,0.4,1.2
					C1545.4,1019.2,1545.4,1019.2,1545.6,1018.2z M1561.3,817c-0.1,0.2-0.3,0.2-0.5,0.1c-0.1,0-0.1-0.1-0.1-0.1
					C1560.8,816.8,1561,816.8,1561.3,817C1561.3,816.9,1561.3,817,1561.3,817L1561.3,817z M1566.1,829.8c0.1-0.4,0.4-0.6,0.8-0.7
					c0.6-0.1,1.2,0.1,1.6,0.5c0.2,0.3,0.2,0.6,0,0.9c-0.4,0.4-1,0.6-1.5,0.7C1566.6,830.8,1566.3,830.3,1566.1,829.8z M1565.7,829.2
					c-0.7,0-1.4-0.4-1.8-1c-0.3-0.6,0-1.2,0.6-1.5h0.1c0.5,0.1,0.9,0.4,1.3,0.8C1566.3,828.1,1566.2,828.8,1565.7,829.2z
					 M1464.4,720L1464.4,720L1464.4,720h-0.5C1464.1,719.4,1464.3,719.8,1464.4,720L1464.4,720c0.6,0.1,1,0.5,1.2,1
					c0.2,0.6,0.1,1.3-0.3,1.8c-0.7,0.2-1.4-0.2-2-0.8c0-0.2,0-0.5,0.2-0.6C1463.7,721.3,1464.5,720.8,1464.4,720z M1869.2,667.4
					c0.4,0,0.5,0,0.7,0.2C1869.6,667.9,1869.5,667.7,1869.2,667.4z M1890.4,667.2c0,0,0,0.2,0,0.3S1890.1,667.3,1890.4,667.2
					L1890.4,667.2z M1889.4,669c0.7,0.7,0.7,1,0,1.8c-0.2,0.1-0.5,0.1-0.7,0l-0.3-0.5c0-0.4,0.1-0.7,0.4-1
					C1889,669.1,1889.2,669,1889.4,669L1889.4,669z M1878,670c0,0,0,0.2,0,0.3C1878,670.4,1877.9,670.1,1878,670L1878,670z
					 M1880.2,672v-0.2c0-0.3,0-0.7,0-1c0.4-0.4,0.8-0.6,1.3-0.6c0.3,0.1,0.5,0.2,0.7,0.5c0.1,0.3,0.1,0.6,0,0.9
					c-0.2,0.4-0.7,0.6-1.1,0.7L1880.2,672z M1882.5,672.8c0-0.4,0.5-0.6,0.8-0.8c0.4-0.1,0.8-0.1,1.1,0c0.1,0.1,0.1,0.2,0,0.3
					l-1,0.2C1883.1,672.6,1883,672.9,1882.5,672.8L1882.5,672.8z M1892.4,673.5l1-1.1c0.3,0.3,0.3,0.8,0,1.1l0,0
					c-0.3,0.3-0.5,0.5-1,0.4C1892.1,673.9,1892.4,673.6,1892.4,673.5L1892.4,673.5z M1899.7,677.8c0.4-0.3,0.7-0.2,1,0
					C1900.5,678,1900.1,678,1899.7,677.8L1899.7,677.8z M1891.3,681.1c0.2-0.2,0.4-0.3,0.7-0.2c0.2,0.1,0.4,0.2,0.5,0.5
					c0,0.2-0.2,0.4-0.4,0.5c-0.3,0-0.6-0.2-0.8-0.4C1891.3,681.4,1891.3,681.2,1891.3,681.1L1891.3,681.1z M1888.7,682.2
					c0,0,0-0.2,0-0.3l0,0C1888.7,681.9,1888.8,682.1,1888.7,682.2L1888.7,682.2z M1878.5,689.4c-0.2-0.2,0-0.4,0-0.5s0.4,0,0.5,0
					C1879.1,688.8,1878.9,689.4,1878.5,689.4L1878.5,689.4z M1872.8,691.8c0-0.3,0-0.4,0.7-0.5c0.3,0.6,0.3,0.6-0.4,1
					C1872.8,692.2,1872.8,692,1872.8,691.8L1872.8,691.8z M1861.9,693.6c0.1-0.2,0.3-0.2,0.5-0.1c0,0,0,0,0.1,0.1
					C1862.3,693.7,1862.1,693.7,1861.9,693.6L1861.9,693.6L1861.9,693.6z M1526.8,687.6c0.9,0.1,1.8,0.5,2.4,1.2
					c0.4,0.4,0.6,1,0.5,1.6c-0.2,0.8-1,0.8-1.5,1.1c-1,0-1.9-0.6-2.2-1.6c-0.3-0.9,0-1.9,0.8-2.4L1526.8,687.6z M1523.8,684.6h0.2
					v0.2L1523.8,684.6z M1873.9,695.7c0,0,0.1,0,0.2-0.1s0.2,0.1,0.2,0.3s-0.1,0-0.2,0S1873.8,695.7,1873.9,695.7z M1873.3,697.2
					c0.1-0.2,0.4-0.4,0.7-0.3c0,0.4-0.4,0.7-0.5,1.2c-0.3-0.2-0.4-0.5-0.3-0.8C1873.2,697.2,1873.3,697.2,1873.3,697.2L1873.3,697.2
					z M1862.5,699.7h-0.5c-0.4-0.3-0.3-0.7-0.5-1s0,0,0.2,0c0.3,0.2,0.7,0.4,1.1,0.5l0.6-0.3c0,0.2,0.4,0.4,0.4,0.7
					c-0.1,0.2-0.2,0.3-0.4,0.3L1862.5,699.7z M1859.2,703.5c0,0,0-0.1,0-0.2c0.1,0,0.2,0,0.2,0s0,0.2,0,0.3
					C1859.5,703.7,1859.3,703.5,1859.2,703.5L1859.2,703.5z M1558.3,701.3c0-0.1,0-0.3,0-0.4c0.1-0.6,0.7-0.6,1.5-0.8l3.3,2.4
					c0.2,1.1-0.6,0.9-1,1.1C1560.6,703.3,1559.3,702.4,1558.3,701.3L1558.3,701.3z M1558.3,699.6c-0.8,0.1-1.4-0.5-1.5-1.3l0,0
					c0-0.4,0.3-0.7,0.7-0.7c1,0.3,1,1,0.7,2H1558.3z M1860.5,710.4c0.7,0,0.9,0,1.1,0.4c0,0.2-0.2,0.5-0.4,0.5
					c-0.7-0.2-0.5-0.7-0.7-1.1V710.4z M1874.7,714.5c0,0-0.2,0-0.4,0c-0.1,0,0-0.3,0.3-0.2s-0.1,0.1-0.1,0.1L1874.7,714.5z
					 M1874.7,713.1c-0.5,0-0.5-0.5-0.9-0.7c0.6-0.2,1-0.1,1.3,0.3v0.1L1874.7,713.1z M1868.1,711.9c0.1-0.1,0.2-0.1,0.3,0l0,0
					c0,0,0,0.2,0,0.3s-0.5-0.2-0.5-0.4L1868.1,711.9z M1861.7,714.9c-0.7-0.4-1.4-1.1-1.8-1.8c0,0,0-0.3,0-0.4
					c0.1-0.1,0.2-0.2,0.2-0.3c0.2,0,0.3,0,0.4,0c0.4,0.3,0.8,0.8,1,1.3l1,0.7c-0.2,0.6-0.5,0.6-0.9,0.5H1861.7z M1861,717.9
					c-0.2-0.3,0-0.5,0-0.8c0.2-0.1,0.5-0.2,0.7-0.3c0.4-0.1,0.9-0.2,1.3-0.2c0,0.7,0,0.7-0.6,1.4c-0.2,0.1-0.4,0-0.5-0.2
					c-0.5,0.1-0.8,0.3-1.1,0.2L1861,717.9z M1879.5,720.1c-0.2-0.5-0.2-0.5,0.4-0.8h0.3l1,0.3c-0.8,0.4-1.5,0-1.9,0.6L1879.5,720.1z
					 M1859,720.1c-0.3-0.2-0.4-0.5-0.4-0.8c0.2-0.3,0.5-0.5,0.8-0.5s0.7,0.1,0.9,0.4c0.1,0.2,0.1,0.5,0,0.7
					c-0.3,0.4-0.9,0.6-1.4,0.4L1859,720.1z M1863.2,719.1L1863.2,719.1L1863.2,719.1z M1874,719.1c0.2-0.6,0.4-1.1,0.7-1.9
					c0.2,1,0.2,2-0.2,3c-0.9-0.1-0.8-0.6-0.7-0.8L1874,719.1z M1874.3,720.5L1874.3,720.5L1874.3,720.5z M1863.7,721.9l0.5-0.8
					c0.6,0.6,1,1.1,0.6,1.8c-0.9,0.2-0.9-0.3-1.3-0.7L1863.7,721.9z M1867.1,724.2c0.4,0,0.5,0.2,0.7,0.4c0.3,0.2,0.4,0.6,0.5,0.9
					l0,0c-1.5-0.7-1.5-0.7-1.4-1L1867.1,724.2z M1548.7,697.4c1,0.3,1.9,0.9,2.4,1.8c0,0.4,0.2,0.8,0,1.1s-0.5,0-0.7-0.2
					c-0.7-0.6-1.4-1.3-2-1.9L1548.7,697.4z M1878,702.2c0.1-0.2,0.4-0.2,0.5,0l0,0c-0.3,0.4-0.5,0.4-0.7,0.3L1878,702.2z
					 M1546.6,713.9c0.4-0.9,0.8-1.6,2.3-1c0.8,1.5,1.7,3,0.4,4.5c-0.5-0.1-1-0.2-1.4-0.3c-0.4-0.2-0.8-0.5-1.2-0.7
					C1546.2,715.6,1546.1,714.7,1546.6,713.9z M1532.4,690c0.1,0.7,0.1,1.4,0,2.1c-0.8-0.6-1.3-1.5-1.2-2.5
					C1531.6,689.1,1532.2,689.3,1532.4,690L1532.4,690z M1448,723.9c0.2,0.2,0.4,0.4,0.7,0.5c0,3,0,3-1.5,3.7l-0.8-0.7
					C1446.3,725.1,1446.3,725.1,1448,723.9z M1559.6,807.9l-0.4-0.2c0-0.4,0.2-0.8,0.5-1C1560,807.1,1559.8,807.5,1559.6,807.9
					L1559.6,807.9z M1564,807.2c-0.2-0.2-0.2-0.3,0-0.5S1564.2,807,1564,807.2L1564,807.2z M1438.5,740.5c0-1,0-1.9,1.3-2
					C1440,739.4,1439.5,740.2,1438.5,740.5l0.1,0.7C1437.7,740.9,1438.2,740.7,1438.5,740.5L1438.5,740.5z M1436.7,744.6
					c0,0.4-0.3,0.5-0.7,0.2C1436,744.4,1436.2,744.3,1436.7,744.6L1436.7,744.6z M1570.5,792.1c-0.3,0.7-1.1,1-1.8,0.7
					c-0.2-0.2-0.3-0.3-0.4-0.5c-0.1-0.3-0.3-0.5-0.4-0.8c0.2-0.2,0.3-0.4,0.4-0.4c0.4-0.2,0.7-0.3,1.1-0.5
					C1570.5,790.9,1570.7,791.3,1570.5,792.1z"/>
				<path class="st4" d="M778.3,311.5c38.5,40.7,101,397.1,242,323.2c75.2-39.4,39.1-119.7,82.4-158
					c43.2-38.2,130.8-22.2,149.6-72.4c14.9-40.3,15.6-69,33.7-91.3c19.9-24.4,57.7-40.6,79.9-46.2c42.5-10.7,75.2-90.7,75.5-90.9
					c-4-26.9-118.8-44.5-131.5-68.7c-0.3,0.4-224.5-91.7-256.4-118.5C1034.8,1.1,754.5,327.9,778.3,311.5z M1215.2,257.7
					L1215.2,257.7L1215.2,257.7z M1220.9,259.8c-0.2-0.5-0.4-1-0.5-1.5c0.5-0.4,0.9,0,1.4,0c0,0.6,0.5,1.2,0,1.9
					C1221.3,260.2,1220.9,260,1220.9,259.8L1220.9,259.8z M1263.6,231c-0.1-0.3,0-0.6,0.2-0.7c0.3-0.2,0.7-0.2,1,0
					c0.2,0.2,0.2,0.6,0,0.8C1264.4,231.2,1263.9,231.2,1263.6,231L1263.6,231z M1248.8,247.9h-0.6c0-0.7,0-0.7,0.6-0.8
					S1249,247.6,1248.8,247.9L1248.8,247.9z M1249.9,235.2c0.4,0.4-0.2,0.7-0.3,1.1s-0.4-0.2-0.5-0.4
					C1249,235.7,1249.4,235.1,1249.9,235.2L1249.9,235.2z M1248.7,236.3v0.4c-0.5,0.2-0.7,0-0.7-0.4
					C1248.2,236.1,1248.5,236.1,1248.7,236.3L1248.7,236.3z M1280.7,207.8c0,0,0,0,0,0.2s-0.2,0-0.2,0c0-0.1,0-0.1,0-0.2H1280.7z
					 M1279.8,209.4c0,0.6-0.4,1.1-0.6,1.6s0.3,0.5,0,1s-0.8,0.7-1.3,0.7c-0.4-0.1-0.7-0.5-0.9-0.9c0-0.6,0.1-1.2,0.4-1.7l0.8-1.1
					l0.8-0.2C1279.7,208.7,1279.8,209.2,1279.8,209.4L1279.8,209.4z M1281.5,206.4L1281.5,206.4v0.1c-0.2,0-0.2,0-0.1,0
					C1281.4,206.6,1281.5,206.5,1281.5,206.4L1281.5,206.4z M1251.1,229.7c0.4,0.3,0.4,0.9,0.2,1.3c-0.4,0.3-1,0.4-1.5,0.3
					c-0.5-0.2-0.8-0.7-0.7-1.2C1249.6,229.5,1250.4,229.4,1251.1,229.7z M1234,241.2c0.3,0.3,0.4,0.7,0.4,1.1
					c-0.4,0.3-0.4,0.3-0.8-0.5c-0.4-0.2-0.4,0.5-0.8,0.4C1232.9,241.3,1232.9,241.2,1234,241.2L1234,241.2z M1212.6,257l-0.3-0.1
					l0,0C1212.6,256.5,1212.6,256.7,1212.6,257L1212.6,257z M934.7,532.1c0.5,0.7,0.7,1,0.9,1.3c0.1,1-0.3,1.9-1,2.6
					c-0.9,0.7-2.1,0.7-3,0c-0.4-0.5-0.3-1.1-0.2-1.7C932.3,533,933.9,533.2,934.7,532.1L934.7,532.1z M1244,217.7L1244,217.7
					L1244,217.7L1244,217.7z M1222.2,234c0-1,0.8-1.3,0.9-1.9c0.5-0.2,0.9-0.3,1.3,0s0.2,0.8,0,1.3
					C1223.9,234.1,1223,234.4,1222.2,234L1222.2,234z M1248.3,215.7L1248.3,215.7L1248.3,215.7z M1191.1,266.4
					c0.5-0.5,1.1-0.2,1.6-0.4s0.7-0.7,1.3-0.7s0.3,0.3,0.1,0.6l-0.8,1.5c-0.4,0.4-1,0.7-1.6,0.5c-0.4,0-0.5-0.4-0.8-0.8
					C1190.5,266.7,1191.1,266.6,1191.1,266.4z M1223.3,247.3c0,0.3-0.3,0.5-0.6,0.4C1222.3,247.6,1223,247.2,1223.3,247.3z
					 M1248.4,227.1L1248.4,227.1L1248.4,227.1z M1216.1,252.1c0,0,0,0.3,0,0.4S1215.9,252.5,1216.1,252.1c0.3-0.4,0-0.2,0-0.3
					S1216.2,252,1216.1,252.1L1216.1,252.1z M1267.8,211.3c-0.2,0.1-0.4,0.1-0.6,0c0-0.1,0-0.3,0-0.4c0-0.1,0.1-0.2,0.1-0.3
					C1267.7,210.6,1267.7,211,1267.8,211.3L1267.8,211.3z M1223.5,229.9h-0.6c0-0.8,0-0.8,0.7-1
					C1223.9,229.1,1223.7,229.5,1223.5,229.9L1223.5,229.9z M1109.2,312.5c0.3,0.4,0.5,0.8,0.5,1.3c-0.4,0.4-0.5,0.3-1-0.6
					c-0.5-0.2-0.4,0.6-0.9,0.4C1107.7,312.7,1107.9,312.5,1109.2,312.5z M949.5,526.6c0.7,0.5,1.1,1.4,1,2.3l-0.9,1
					c0,0.2,0,0.4-0.4,1.4c0.2-1,0.2-1.2,0.2-1.4c-0.7-0.9-1.7-1.6-1.3-3C948.5,526.6,949,526.5,949.5,526.6z M840.5,586
					c0.2-0.3,0.3-0.6,0.6-0.8c0.2-0.2,0.5-0.4,0.8-0.5c0.7,0,1,0.3,0.8,1C841.9,586.7,841.3,586.4,840.5,586z M816.8,599.8
					c0,2.1,0,2.1-2.2,2.7c-0.6-0.7-0.6-1.8,0-2.5C815.1,599.4,816.1,599.3,816.8,599.8L816.8,599.8z M989.3,465.7
					c0.7-0.4,1.5-0.4,2.2,0c0.4,0.4,0.4,0.8,0.2,1.3c-0.7,0.7-1.8,0.6-2.5-0.1c-0.1-0.1-0.2-0.2-0.3-0.4
					C989,466.2,989.1,465.9,989.3,465.7z M896.9,551.1c1.3,0.2,2.3,0.4,2.3,1.7c-0.2,0.8-0.2,0.8-2.3,2l-3.4-0.7
					c-0.2-0.8,0-1.6,0.6-2.2L896.9,551.1z M977.1,580.2c0.1,0.5,0.1,1.1-0.1,1.6c-0.4,0.4-0.4,0.4-1.3,0.4c-0.3-0.2-0.2-0.6-0.3-1
					l0.9-1C976.6,580,976.9,580,977.1,580.2L977.1,580.2z M997.5,465.3l-0.3,0.1v-0.3L997.5,465.3z M967.9,581.6
					c0.6-0.2,1.2,0,1.6,0.4c0.1,0.5-0.1,0.9-0.3,1.3c-0.3,0.5-0.9,0.8-1.6,0.7c-0.4-0.2-0.8-0.6-0.9-1
					C966.9,582.4,967.3,581.9,967.9,581.6L967.9,581.6z M889.8,525.2l-1.2,1c0,0.8,0.7,1.3,0.2,2.2c-1.8,1-0.2-2.5-2.3-0.9
					c0.1-1.2,0.2-1.9,0.3-2.7l-2.2-1.4l3.4-1.5l1.9,0.6C890.4,523.5,889.8,524.4,889.8,525.2L889.8,525.2z M865.4,545.3h-0.2H865.4z
					 M973.3,568.7c0,0.3,0,0.6-0.4,1c-0.3-0.5-0.3-0.9,0.3-1H973.3z M877.4,526.1c-1.3-0.2-0.8-1.1-0.5-2
					C877.9,524.5,877.9,524.5,877.4,526.1z M1195.8,217.7c0-0.3,0-0.4,0.4-0.3C1196.6,217.5,1196.1,217.7,1195.8,217.7z
					 M1224.6,87.5c-0.1,0.1-0.3,0.1-0.4,0c-0.1-0.2-0.2-0.5-0.3-0.7c0.6-0.4,1.1-0.5,1.3,0.2C1225.2,87,1224.8,87.3,1224.6,87.5
					L1224.6,87.5z M1186.9,212.1c0.1,0.3,0,0.6-0.1,0.8c-0.3,0.3-0.8,0.5-1.3,0.4c-0.2-0.1-0.4-0.3-0.4-0.5c0.1-0.4,0.3-0.8,0.6-1.2
					C1186.1,211.7,1186.5,211.8,1186.9,212.1z M1187.4,212.1c0.5-0.3,1-0.4,1.6-0.3c0.4,0.2,0.6,0.8,0.4,1.2c0,0,0,0.1-0.1,0.1
					c-0.4,0.1-0.8,0.1-1.2,0c-0.4-0.1-0.7-0.5-0.7-0.9L1187.4,212.1L1187.4,212.1z M1193.7,208.9L1193.7,208.9c0,0.1,0,0.2,0,0.3
					C1193.4,209.2,1193.7,209,1193.7,208.9L1193.7,208.9L1193.7,208.9c0-0.3,0.1-0.5,0.4-0.7c0.3-0.1,0.6-0.1,0.9,0
					c0.2,0.3,0,0.7,0,1.1h-0.3c-0.4-0.1-0.6-0.4-0.9-0.2L1193.7,208.9z M972.3,553c-0.4,0.5-0.7,0.3-1,0.4c0.2-0.5,0.6-0.3,1-0.2
					V553z M948.4,571.3c-0.3,0-0.4,0-0.3-0.3c0.1-0.3,0.5,0.2,0.4,0.5L948.4,571.3z M947.9,568.3c-1.4-0.2-1.6-0.5-1.5-2
					c0.2-0.3,0.5-0.4,0.9-0.4l0.8,0.3c0.3,0.5,0.4,1,0.5,1.5c0,0.4-0.2,0.7-0.5,0.9L947.9,568.3z M960.1,557.4c-0.3,0-0.4,0-0.2-0.4
					c0.1-0.4,0.4,0.4,0.4,0.6L960.1,557.4z M955.9,557.1h0.3l1.1,1c-0.1,0.7-0.4,1.4-1,1.9c-0.4,0.1-0.8,0.1-1.2,0
					c-0.3-0.2-0.6-0.6-0.7-1c-0.1-0.7,0.2-1.3,0.7-1.8L955.9,557.1z M952.5,558.1c0.3,0.5,0,1.1-0.2,1.6c-0.3,0.5-0.8,0.8-1.3,1
					c-0.1-0.1-0.1-0.4,0-0.5l0,0c0.3-0.4,0.6-0.7,1-1.1c0.3-0.4,0.1-0.5,0.7-0.8L952.5,558.1z M940.5,565.8c0,0.7-0.1,1.3-0.3,2.2
					c-0.6-0.1-1-0.7-0.9-1.2v-0.1c0-0.6,0.3-1.1,0.7-1.4c0.7,0.3,0.7,0.6,0.7,0.8L940.5,565.8z M928.6,567.2c-0.1,0.7-0.6,0.7-1.1,1
					c0.3-0.5,0.8-0.8,1.4-0.7L928.6,567.2z M935.3,556.2c0,0.4-0.2,0.7-0.6,0.8c-0.3,0.2-0.6,0.2-0.9,0c-0.2-0.3,0-0.6,0-0.9
					c0.4-0.2,0.8-0.3,1.2-0.2L935.3,556.2z M937.4,552.7c0.2,0,0.4,0,0.3,0.3s0,0,0,0s-0.1,0.2-0.1,0L937.4,552.7z M942.8,535.9
					c0.4,0,0.4,0.3,0.5,0.5s-0.4,0.4-0.6,0.3c-0.2,0-0.1-0.2,0.3-0.6L942.8,535.9z M1153.6,132.3c-0.5,0.5-1.2,0.6-1.8,0.2
					c0-0.2,0-0.4,0-0.5c0.4-0.6,0.5-1.5,1.6-1.5C1153.8,131.1,1153.9,131.8,1153.6,132.3z M947.4,528.6c0.2,0.4,0,0.5-0.4,1.2
					c-0.8-0.4-0.8-0.4-0.4-1.4c0.2-0.2,0.5-0.1,0.7,0.1C947.4,528.4,947.5,528.5,947.4,528.6L947.4,528.6z M958.4,517.1
					c0,0.3-0.3,0.6-0.7,0.5l0,0C957.7,517.3,958,517.1,958.4,517.1L958.4,517.1L958.4,517.1z M1127.1,137.7
					c-0.1-0.6,0.1-1.2,0.4-1.7c0.2-0.3,0.5-0.5,0.9-0.6c0.6,0,0.7,0.5,0.9,0.8c0.1,0.6-0.1,1.3-0.7,1.6
					C1128.2,138.1,1127.6,138,1127.1,137.7L1127.1,137.7z M1125.6,140L1125.6,140L1125.6,140z M943.1,525.1c0,0,0,0.2-0.1,0.4
					c-0.1,0.1-0.4,0-0.4-0.1s0.1-0.2,0.1-0.3C942.7,524.9,943.1,524.9,943.1,525.1z M942.5,522.9c0.1,0.4-0.2,0.7-0.5,0.9
					c-0.4-0.5-0.2-1.1-0.4-1.8C942,522,942.4,522.4,942.5,522.9L942.5,522.9z M1156.9,262.5l0.5-0.3c0.7,0,1,0.5,1.4,0.7
					c0.5,0.2,0,0.3-0.2,0.3c-0.6,0-1.1,0.1-1.6,0.4c-0.1,0.2-0.3,0.5-0.4,0.8s-0.7,0-1-0.4c-0.1-0.3,0-0.5,0.2-0.7L1156.9,262.5z
					 M1157.3,255.6c0,0,0.1,0,0.1,0.2c0,0.1-0.1,0.3-0.1,0.4c-0.2,0-0.3-0.1-0.3-0.4C1157.1,255.5,1157.2,255.6,1157.3,255.6
					L1157.3,255.6z M1130.8,115.7c-0.1,0-0.1,0-0.2,0c-0.4,0-0.5-0.4-0.7-0.8l1-2.4c0.7-0.3,0.7,0.3,0.9,0.4
					C1131.7,113.9,1131.4,114.9,1130.8,115.7L1130.8,115.7z M1129.8,116.1c0.1,0.7-0.2,0.9-0.6,1.1c-0.2,0.1-0.5-0.1-0.6-0.3l0,0
					C1128.7,116.1,1129.1,115.9,1129.8,116.1L1129.8,116.1z M1150.4,249.2c-0.6,0.7-1.1,0.7-1.5,0.4c-0.2-0.3-0.2-0.6,0-0.9
					C1149.6,248.1,1149.8,248.9,1150.4,249.2L1150.4,249.2z M1099.3,140.4c-0.2-0.2,0-0.5,0-0.7s0.5,0.3,0.3,0.7
					S1099.4,140.5,1099.3,140.4z M1101.9,141c0.3-1,1.2-0.7,1.6-1.4c0,1.2-0.2,1.9-1.1,2.2c-0.1,0-0.3,0-0.3,0
					S1102,141.1,1101.9,141z M1140.9,253.6c0,0.1-0.1,0.3-0.2,0.3h-0.1c-0.2,0-0.3,0-0.2-0.3
					C1140.5,253.4,1140.7,253.4,1140.9,253.6z M1145.3,245c1.2-0.1,2.4,0.1,3.4,0.5c0.1,0.2,0.2,0.4,0.2,0.6c0,0.2,0,0.3,0,0.5
					c-0.1,0.1-0.3,0.2-0.4,0.2c-0.8,0-1.5-0.3-2.2-0.7h-1.6C1144.5,245.4,1144.9,245.1,1145.3,245L1145.3,245z M1143.6,241
					c0.4,0,0.4,0.5,0.7,0.8c-0.1,0.3-0.3,0.6-0.5,0.9c-0.4,0.4-0.8,0.9-1.2,1.3c-0.6-0.7-0.6-0.7-0.4-2c0.2-0.2,0.4-0.3,0.7-0.2
					C1143.3,241.6,1143.3,241.1,1143.6,241L1143.6,241z M1087,146.4c1-0.2,1-0.2,1.2,1.2c0,0.2,0,0.3,0,0.5c-0.3,0.5-0.7,1-1,1.6
					C1086.8,148.5,1087.7,147.4,1087,146.4z M1143.9,236.8c0.4,0,0.9,0.2,1.2,0.5c0.1,0.5-0.1,0.9-0.5,1.2c-0.3,0.3-0.8,0.4-1.3,0.3
					c-0.3-0.2-0.5-0.5-0.6-0.8C1142.9,237.5,1143.3,237,1143.9,236.8z M1140.1,241.4L1140.1,241.4L1140.1,241.4z M1090.9,136.8
					c1,0.6,1.9,1.3,3,2.2c-1.9,0-3.8-0.6-5.3-1.7C1089.7,136.2,1090.3,136.5,1090.9,136.8z M1088.2,136.8v0.2l0,0V136.8z
					 M1137.3,238.6c0,0.4,0,0.8,0,1.3c-1.1-0.1-1.9-0.4-2.2-1.5C1136.1,238,1136.6,238.6,1137.3,238.6z M1084.8,122.4
					c-0.1,0.6-0.7,0.8-1.1,1c-0.5,0.4-1.2,0.5-1.8,0.4c0,0,0-0.1,0-0.2C1084.1,122.1,1084.1,122.1,1084.8,122.4z M1072.8,159.1
					c0.4,0.3,1,0.6,0.8,1.5c-0.3,0.6-0.9,1.1-1.5,1.4l-0.4-0.7l0.6-0.5C1072.5,160.3,1072.1,159.5,1072.8,159.1z M1109.3,240.8
					L1109.3,240.8l-0.4-0.2c0.1-0.4,0.4-0.2,0.6-0.2l0,0c0.1-0.5,0.5-1,1-1.1l0,0c0-0.2,0.2-0.3,0.4-0.3l0,0l0,0l0,0l0,0
					c-0.1,0.2-0.2,0.3-0.4,0.3l0,0c0,0.6-0.4,1-1,1.1l0,0c0,0,0,0.2,0,0.4l0,0h0.7l0.2-0.2c0.1,0.3,0,0.2-0.2,0.3
					c-0.2,0.5-0.8,0.7-1.3,0.6l0,0l-0.2,0.2c0-0.3,0-0.2,0.2-0.2l0,0C1108.9,241.2,1109.3,241,1109.3,240.8L1109.3,240.8z
					 M1107,241.8c-0.1,0.3-0.4,0.5-0.7,0.6l0,0c-0.2,0.2-0.3,0.4-0.6,0c-0.2-0.4,0.4,0,0.6,0l0,0c0.1-0.4,0-0.9-0.4-1.2
					C1106.3,241,1106.8,241.3,1107,241.8C1107,241.7,1107,241.7,1107,241.8L1107,241.8z M1099.6,233.4c0-0.6,0.4-0.6,0.6-0.6
					c0.7,0.2,1.3,0.6,1.9,1.1c0.2,1.2,0.2,1.2-0.7,1.8C1101,234.8,1100.4,234,1099.6,233.4L1099.6,233.4z M1042.9,174.7
					c0-0.2,0.1-0.3,0.2-0.5c0.2-0.3,0.5-0.5,0.9-1c0.5,1.7,0.5,1.6-0.6,2.3c0,0-0.3-0.2-0.4-0.3s-0.2-0.3-0.3-0.5H1042.9z
					 M1063.2,111.6c-0.3,0.4-0.5,0.5-0.7,0.4c-0.3-0.3-0.4-0.7-0.3-1.1C1062.8,110.5,1062.9,111,1063.2,111.6L1063.2,111.6z
					 M1047.4,145.2c0.7-0.1,1.5,0,2.1,0.4c0,0.5,0,0.9,0.2,1.5c-0.9,0.5-1.1,1.7-1.8,2.7c-0.7-1-1.2-2.3-1.3-3.6
					c0-0.4,0.2-0.8,0.6-1L1047.4,145.2z M1046.4,145.2c-0.2,0.5-0.6,0.9-1,1.1c-0.5,0.1-1,0-1.3-0.4c0-0.1-0.2-0.4-0.2-0.5
					c0.2-1,0.7-1.4,1.5-1.5s0.6,0.1,0.9,1.1L1046.4,145.2z M1040.4,154.2c0,0.3-0.2,0.5-0.4,0.6c-0.3,0-0.6,0-0.9,0l0,0l-0.3,0.2
					h0.1l0,0c0-0.7-0.7-0.6-1-1s0-0.2,0-0.2c0.2-0.4,0.6-0.7,1-0.7c0.3,0.5,0.8,0.9,1.3,1.2L1040.4,154.2z M1039.6,143
					c-0.2-0.1-0.3-0.4-0.2-0.6l0,0c0,0,0.3-0.2,0.4,0c0.2,0.1,0.3,0.3,0.2,0.5c0,0,0,0.1-0.1,0.1C1040,143,1039.8,143,1039.6,143z
					 M1023.5,146.6v0.2l0,0V146.6z M1023.1,144.2c0.1,0.1,0.1,0.4,0,0.5c0,0-0.1,0.1-0.2,0.1
					C1022.7,144.6,1022.8,144.4,1023.1,144.2L1023.1,144.2z M1020.1,156.5c0.4,0,0.4,0.3,0.6,0.6c0.1,0.3-0.4,0.4-0.7,0.4
					C1019.7,157.5,1019.8,156.9,1020.1,156.5L1020.1,156.5z M1026.5,124.3c0.5,0.2,0.8,0.7,0.7,1.2c-0.1,0.7-0.7,1-1.1,1.2
					s-0.8-0.3-1.1-0.6C1025.1,125.2,1025.7,124.6,1026.5,124.3L1026.5,124.3z M1017.6,131.6c0,0,0.3,0.1,0.4,0.3
					c0.3,0.6,0.3,1.3,1,1.8c0.5,0.5,0.9,1.1,0.8,1.9l0,0v0.2c0,0,0,0,0-0.2l0,0c-0.4,0-0.8,0-1.2,0.2c-0.5,0.1-1,0-1.4-0.3
					c-0.5-0.6,0-1.3-0.2-1.9l-1-0.1C1016.4,132.6,1016.7,131.8,1017.6,131.6L1017.6,131.6z M1010.8,160.9c0.2-0.2,0.5-0.2,0.7,0
					c0.4,0.6,0.2,1-0.4,1.5c-0.5-0.3-0.6-0.8-0.4-1.3C1010.7,161,1010.8,161,1010.8,160.9z M961.3,501.8h0.7c0.1,0,0.3,0.2,0.3,0.4
					c-0.5,0.5-1.3,0.7-2,0.6C961,502.6,961,502,961.3,501.8z M1010.5,163.1c0-0.1,0-0.1,0-0.2c0.4-0.3,0.6,0,1.1,0.1
					c0.3,0.9,0.5,1.8,0.8,2.6c-0.3,0.7-0.7,0.2-1,0.2C1010.8,165,1010.5,164.1,1010.5,163.1z M960.7,495.7c-0.3,0-0.5-0.2-0.5-0.5
					s0.2-0.4,0.4-0.4C960.8,495.4,960.8,495.4,960.7,495.7z M1006.6,157.2c0.5,0.5,0.7,1.2,0.6,1.9c0,0.3-0.2,0.5-0.5,0.5
					s-0.3-0.2-0.3-0.4c0-0.6-0.2-1.2-0.3-1.9L1006.6,157.2z M978.7,200.5c-0.1,0.5-0.2,0.9-0.5,1.3c-0.5,0.4-1.1,0.6-1.7,0.6
					c0-0.8,0-1.6-0.1-2.3s0.8-1.4,1.5-1.5C978.5,198.9,978.9,199.7,978.7,200.5L978.7,200.5z M980.9,180.9c0-0.1,0-0.2,0-0.3
					l0.4-0.2c0.5,0.2,0.9,0.6,1.2,1c0,0.4-0.1,0.7-0.4,0.7c-0.4,0-0.8-0.1-1.1-0.2c-0.6,0.7-1.1,0.3-1.9,0c0.6-0.2,1.3-0.2,1.9,0
					C981,181.6,981,181.3,980.9,180.9L980.9,180.9z M970,210.8c0-1.9,0-2,1.6-2.4c0.5,0.2,0.8,0.7,0.8,1.3c0,0,0,0.4-0.2,0.5
					c-0.7,0.8-1.3,1.3-2.2,0.8L970,210.8z M968.8,220.7L968.8,220.7l-0.3,0.3C968.3,220.6,968.5,220.7,968.8,220.7L968.8,220.7
					c0-0.3,0.2-0.5,0.3-0.7c0.3-0.3,0.8-0.3,1.1,0c0.3,0.2,0.4,0.6,0.2,0.9C970,221.2,969.4,220.7,968.8,220.7z M954.7,487.2
					c-0.4-0.4-0.4-0.4-0.3-1c0.1-0.1,0.3-0.2,0.4-0.1c0,0,0,0,0.1,0.1c0.1,0.2,0.2,0.4,0.1,0.7L954.7,487.2z M959.1,484.4
					c0,0,0.1,0,0.2,0S959.1,484.6,959.1,484.4L959.1,484.4z M986.5,205.4c-0.2-0.5,0.3-0.8,0.4-1.2c0.4-0.3,0.9-0.2,1.2,0.1
					c0,0.1,0.1,0.1,0.1,0.2c0,0.4,0,0.7,0,1.1C987.6,206.2,987,205.8,986.5,205.4L986.5,205.4z M989.8,196.4
					c-0.2-0.1-0.4-0.2-0.6-0.3c0-0.7,0.4-0.7,0.7-0.8c0.4-0.1,0.6,0.5,0.6,1C990.3,196.4,990.1,196.5,989.8,196.4L989.8,196.4z
					 M998.4,167.3c-0.1-0.3-0.3-0.6-0.4-0.9c0-0.6,0.4-1.1,0.9-1.3c0.5-0.3,1.1-0.6,1.7,0.4c-0.2,1.1-0.3,2.3-1.6,2.6
					C998.8,167.8,998.6,167.6,998.4,167.3L998.4,167.3z M958.6,491.3c0.1-0.1,0.2-0.2,0.3-0.4c0.1,0,0.2,0,0.3,0.2
					c0,0.2-0.2,0.5-0.5,0.4L958.6,491.3L958.6,491.3z M997.4,182.7c0,0-0.1,0.1-0.2,0c-0.6,0-0.7-0.7-1.2-1.1c0.9-0.2,1.3,0,1.4,0.7
					C997.5,182.5,997.4,182.7,997.4,182.7C997.3,182.7,997.3,182.7,997.4,182.7L997.4,182.7z M992.7,225c0.2-0.2,0.4,0,0.5,0
					S992.8,225.3,992.7,225z M965.4,482.1c-0.2,0.4-0.5,0.3-0.9,0.4C965,481.8,965,481.8,965.4,482.1L965.4,482.1z M953.9,500v-0.3
					c0.1-0.2,0.2-0.3,0.4-0.3s0.3,0.2,0.2,0.5c0,0.2-0.2,0.3-0.4,0.3c-0.1,0-0.1,0-0.1-0.1V500H953.9z M971.1,484.6c0,0,0-0.2,0-0.3
					c0-0.1,0,0,0,0S971.1,484.3,971.1,484.6L971.1,484.6z M969.3,495c-0.1-0.2-0.1-0.5,0-0.7c0.4-0.1,0.8,0.1,1,0.3
					c-0.4,0.7-0.4,0.7-1,0.6V495z M1037.6,126.4v-0.2V126.4L1037.6,126.4c1,0.1,1.9,0.3,2.8,0.6c0.8,0.7,0.7,1.6,0.8,2.4
					c-0.5,1.1-1.1,2.2-1.9,3.2l-0.8,0.3c-0.5-0.2-0.9-0.6-1.1-1.1c0.7-0.7,1.6-1,2.1-2c0.1-0.4-0.1-0.9-0.4-1.2
					C1038.5,127.9,1038,127.2,1037.6,126.4L1037.6,126.4z M1036.3,132.7c0.4,0.3,0.5,0.8,0.4,1.3
					C1036.1,133.8,1036,133.4,1036.3,132.7L1036.3,132.7z M1033.6,145.3c0,0,0,0-0.2-0.3c0.4-0.4,1-0.5,1.5-0.4
					C1034.7,145.4,1034.4,145.6,1033.6,145.3L1033.6,145.3z M973.3,489.2c-0.3,0.1-0.7-0.1-0.8-0.4c0-0.1,0.2-0.2,0.3-0.2l0.5,0.3
					l0,0V489.2z M1130.1,122.4c0-0.7,0.3-1.3,0.7-1.8c0.2,0,0.5-0.3,0.7,0s0,0.3,0,0.4s-0.6,1.1-0.9,1.6L1130.1,122.4z M932.7,520.6
					c0,0.3-0.3,0.6-0.6,0.6l0,0C932.1,520.8,932.4,520.6,932.7,520.6z M1140.7,121.1c-0.6,0-1.2-0.3-1-1.3c0.8-0.7,1.6-1.5,2.8-1
					c0,0.3,0,0.6,0,1c0,0.3-0.2,0.7-0.3,0.9C1141.8,121.1,1141.2,121.3,1140.7,121.1z M1127.8,133.8c0.4-0.1,0.9-0.2,1.3-0.3
					c-0.2,0.6-0.8,1-1.4,1.2c-0.2-0.2-0.3-0.5-0.1-0.7C1127.7,133.9,1127.7,133.9,1127.8,133.8z M1153.6,43
					c-0.2-0.3-0.5-0.5-0.5-0.7c-0.1-1.6,0.5-3.2,1.6-4.3c1-0.7,2.3-0.9,3.5-0.6c0,0.3,0.2,0.7,0,0.8c-1,1.3-1.7,2.7-2.2,4.2
					L1153.6,43z M1159.9,39c0.9-0.9,2-1.5,3.3-1.7c1.4,0.7,1.5,1.8,0.3,3.6C1162,40.4,1160.6,40.2,1159.9,39L1159.9,39z
					 M1169.8,44.4c1.1-1.4,1.1-1.4,2-0.6C1171.3,44.4,1170.5,44.6,1169.8,44.4z M1211.3,117.4c-0.5-0.4-0.3-0.8,0-1.3h0.7
					c0.1,0.2,0.3,0.3,0.4,0.5c-0.1,0.4-0.4,0.7-1.1,0.7V117.4z M1238.2,131L1238.2,131h-0.4C1237.9,130.6,1238.1,130.8,1238.2,131
					L1238.2,131c0.5-0.4,1-0.6,1.5-0.2C1239.3,131.1,1238.8,131.2,1238.2,131L1238.2,131z M1231.5,140.4L1231.5,140.4
					c-0.4,0.2-0.9,0.2-1.3,0c0-0.4,0-0.6,0.3-0.7C1230.8,139.5,1231.2,140.1,1231.5,140.4L1231.5,140.4L1231.5,140.4
					c0,0.1,0.6,0.1,0.6,0.4c0,0.3-0.3-0.4-0.5-0.5L1231.5,140.4z M1235.2,138.4c0.3,0,0.4,0,0.3,0.4s-0.3-0.2-0.1-0.5L1235.2,138.4z
					 M1197.6,216.6c0.1-0.1,0.1-0.3,0.1-0.4c1.4-0.4,1.4-0.4,2,0.3l-0.3,0.5C1198.4,217.2,1198.4,217.2,1197.6,216.6z M1201.2,222.5
					h0.4c0.2,0.2,0.2,0.6,0,0.8C1201.3,223.2,1201.2,223,1201.2,222.5L1201.2,222.5z M1198.8,225.1c0.2,0,0.3,0,0.2,0.3
					S1198.7,225.3,1198.8,225.1L1198.8,225.1z M1206.8,219.1c-0.5,0.2-0.9,0.2-1.1-0.4C1206.1,218.5,1206.6,218.6,1206.8,219.1
					l0.3-0.1C1207.1,219.4,1206.9,219.2,1206.8,219.1L1206.8,219.1z M1209,219.4c0.2,0,0.3,0,0.2,0.3
					C1209.1,220.1,1209,219.7,1209,219.4L1209,219.4z M1201.7,237.3c-0.1-0.6,0.2-1.1,0.8-1.3c0.2,0,0.3,0,0.5,0
					c0.2,0.1,0.4,0.2,0.6,0.3c0,0.1,0,0.3,0,0.4c-0.1,0.3-0.3,0.5-0.5,0.8C1202.4,238,1201.9,237.9,1201.7,237.3L1201.7,237.3z
					 M1223.2,69.8h-0.3l0.2-0.3L1223.2,69.8z M1221.6,141.5c0-1.2,1.1-1.6,1.1-2.4c0.7-0.3,1.2-0.4,1.6,0s0.3,1,0,1.7
					c-0.6,0.9-1.7,1.3-2.7,1V141.5z M1233.3,65.3h0.2l0,0H1233.3z M1187.1,120.6c0-0.3,0.2-0.4,0.5-0.4S1187.4,120.5,1187.1,120.6
					L1187.1,120.6z M1175.5,113.1c0.1,0.4,0.1,0.8-0.2,1.1c-0.4,0.4-1.1,0.7-1.7,0.6c-0.3-0.1-0.5-0.4-0.6-0.7
					c0.1-0.6,0.4-1.1,0.8-1.5C1174.5,112.6,1175,112.8,1175.5,113.1z M1176.1,113.1c0.6-0.4,1.4-0.5,2.1-0.3c0.6,0.3,0.8,1,0.5,1.5
					c0,0.1-0.1,0.1-0.1,0.2c-0.5,0.1-1,0.1-1.5,0C1176.4,114.3,1176,113.8,1176.1,113.1z M1184.4,109L1184.4,109c0,0.1,0,0.2,0,0.4
					C1184,109.4,1184.2,109.2,1184.4,109L1184.4,109L1184.4,109c0-0.3,0.1-0.7,0.4-0.9c0.4-0.2,0.8-0.2,1.2,0c0.2,0.5,0.1,1-0.1,1.4
					c-0.1,0-0.3,0-0.4,0S1185,108.9,1184.4,109L1184.4,109L1184.4,109z M1145.3,354.2c-0.1-0.5,0-1.1,0.3-1.6
					c0.2-0.3,0.5-0.5,0.8-0.5c0.5,0,0.6,0.5,0.8,0.7c0.1,0.6-0.1,1.2-0.6,1.5c-0.4,0.3-1,0.3-1.4,0L1145.3,354.2L1145.3,354.2z
					 M1143.9,356.3L1143.9,356.3L1143.9,356.3z M1145.9,350.7c0.4-0.1,0.8-0.2,1.2-0.3c-0.2,0.5-0.7,0.9-1.3,1
					C1145.5,351.2,1145.6,350.9,1145.9,350.7L1145.9,350.7z M1189.5,118.8l0.2-0.5c1.9-0.5,1.9-0.5,2.6,0.4l-0.4,0.6
					C1190.4,119.7,1190.4,119.7,1189.5,118.8L1189.5,118.8z M1194.2,126.6h0.5c0.3,0.3,0.3,0.7,0.1,1.1
					C1194.3,127.6,1194.2,127.3,1194.2,126.6L1194.2,126.6z M1191.1,130c0.3,0,0.4,0.1,0.3,0.4
					C1191.3,130.7,1191.1,130.3,1191.1,130z M1201.5,122.3c-0.7,0.2-1.2,0.2-1.5-0.5C1200.5,121.6,1201.2,121.8,1201.5,122.3
					l0.4-0.1C1201.8,122.6,1201.6,122.4,1201.5,122.3L1201.5,122.3z M1204.3,122.8c0.3,0,0.4,0,0.3,0.4S1204.2,123.1,1204.3,122.8
					L1204.3,122.8z M1194.9,146.3c-0.1-0.7,0.3-1.4,1-1.7c0.2,0,0.5,0.1,0.7,0.1c0.3,0,0.5,0.3,0.8,0.4c0,0.2,0,0.4,0,0.6
					c-0.2,0.4-0.4,0.7-0.6,1C1195.7,147.1,1195.2,147,1194.9,146.3L1194.9,146.3z M1149.2,323.6L1149.2,323.6L1149.2,323.6z
					 M1099,309.7c-0.1-0.3,0-0.6,0.2-0.9c0.5-0.4,0.9,0,1.2,0c0.2,0.3,0.2,0.7,0,1C1100,310.1,1099.4,310,1099,309.7z M1171.4,304.3
					c0.3,0.4,0.5,0.8,0.5,1.3c-0.4,0.4-0.5,0.3-1-0.6c-0.4-0.2-0.4,0.6-0.9,0.5C1169.9,304.5,1170.1,304.3,1171.4,304.3z
					 M1146.2,322.7l-0.3-0.1v-0.2C1146,322.4,1146.2,322.5,1146.2,322.7z M1055.2,104.2l0.9,0.2c0.4,0.4,0.6,1,0.4,1.5
					c-0.1,0.6-0.6,1-1.2,1.1c-0.4,0-0.5-0.4-0.7-0.7C1054.4,105.5,1055.2,105,1055.2,104.2z M1157.5,296c0-1.1,1-1.5,1-2.2
					c0.6-0.3,1.1-0.4,1.5,0s0.3,0.9,0,1.5C1159.4,296.1,1158.4,296.4,1157.5,296z M971.9,506L971.9,506L971.9,506z M1158.8,311.5
					c0,0.4-0.4,0.6-0.8,0.5C1158.1,311.6,1158.4,311.4,1158.8,311.5C1158.7,311.5,1158.8,311.5,1158.8,311.5z M1150.4,317.1
					c0,0,0,0.3,0,0.4S1150.1,317.5,1150.4,317.1c0-0.1,0-0.2,0-0.4C1150.7,316.8,1150.5,317,1150.4,317.1L1150.4,317.1z
					 M1059.6,96.5c0.5,0,1,0.2,1.3,0.6c0,0.3,0,0.5,0,0.8l0.3,0.7l-0.4-0.7c-0.6-0.1-1.3,0-1.6-0.8
					C1059.2,96.9,1059.3,96.6,1059.6,96.5z M1032.7,161.3c0-0.2,0-0.4,0-0.6c0-0.2,0.1-0.3,0.2-0.5c0.3-0.3,0.5-0.2,0.7,0.2
					s-0.2,0.8-0.7,0.9L1032.7,161.3L1032.7,161.3z M1027.4,175.9c0.7,0.9,0.7,0.9,0,2c-0.5-0.1-0.8-0.6-0.9-1.1
					C1026.7,176.1,1026.9,175.9,1027.4,175.9z M978.3,576.2c0.2-0.1,0.4-0.1,0.6,0c0,0,0,0.2,0,0.4c-0.2,0.2-0.5,0.2-0.7,0.1
					c0,0,0,0-0.1-0.1C978.2,576.5,978.3,576.3,978.3,576.2z M1045.3,126c0.6-0.4,1.1-0.7,1.6,0s0.2,0.4-0.3,1.7l-1.7,0.9
					c-0.3-0.3-0.5-0.7-0.5-1.2L1045.3,126z M987.6,571.6c0.1,0.3,0.1,0.7,0,1c-0.2,0.2-0.2,0.2-0.8,0.2s0-0.4-0.2-0.6l0.6-0.7
					C987.3,571.5,987.5,571.5,987.6,571.6z M980.5,576L980.5,576L980.5,576z M981.7,572.5c0.4-0.1,0.7,0,1,0.3
					c0.1,0.3,0,0.6-0.2,0.9c-0.2,0.3-0.6,0.5-1,0.4c-0.3-0.1-0.5-0.4-0.6-0.7C981.1,573,981.3,572.7,981.7,572.5L981.7,572.5z
					 M1033,117.1c0,0.4,0,0.6-0.2,0.9c-0.2,0.2,0.7,0.3,0.8,0.9c-0.4,1.1-1-1-1.3,0.4l-0.8-1.3l-1.5,0.2c0.4-0.8,0.7-1.3,1-1.9
					l1-0.4C1032.7,116.1,1032.7,116.8,1033,117.1z M1029.4,134.7L1029.4,134.7L1029.4,134.7L1029.4,134.7z M984.9,564.3
					c0,0.2,0,0.4-0.3,0.6C984.7,564.6,984.7,564.3,984.9,564.3z M1027.8,122.1c-0.7,0.4-0.8-0.2-0.9-0.7
					C1027.5,121.1,1027.5,121.1,1027.8,122.1z M1126.6,276.9c0-0.2,0.1-0.3,0.3-0.4c0.1,0,0.1,0,0.2,0
					C1127,276.8,1126.9,276.9,1126.6,276.9z M1116.1,270.2c0.1,0.3,0,0.7-0.1,1c-0.4,0.4-0.9,0.6-1.5,0.5c-0.3,0-0.5-0.3-0.5-0.6
					c0.1-0.5,0.4-1,0.7-1.4C1115.2,269.7,1115.7,269.9,1116.1,270.2L1116.1,270.2z M1116.7,270.4c0.5-0.4,1.2-0.5,1.9-0.3
					c0.5,0.3,0.7,0.9,0.4,1.4c0,0.1-0.1,0.1-0.1,0.2c-0.4,0.1-0.9,0.1-1.4,0C1117,271.4,1116.6,270.9,1116.7,270.4z M1250.2,294.3
					L1250.2,294.3c0.2-0.1,0.3-0.1,0.4-0.2C1250.7,294.6,1250.5,294.4,1250.2,294.3L1250.2,294.3c-0.4,0.3-1,0.3-1.4,0
					c-0.5-0.3-0.8-0.9-0.8-1.4c0.4-0.6,1.1-0.6,1.9-0.5c0,0.2,0.3,0.4,0.2,0.5S1249.7,293.8,1250.2,294.3L1250.2,294.3z
					 M984.5,554.2c-0.2,0.3-0.4,0.2-0.6,0.2C983.7,554.5,984.3,554.3,984.5,554.2L984.5,554.2z M969.3,565.9c0,0-0.2,0,0-0.2
					S969.3,565.9,969.3,565.9L969.3,565.9z M969,564.1c-0.9,0-1.1-0.3-1-1.3c0.1-0.2,0.3-0.3,0.6-0.3l0.5,0.2c0.2,0.3,0.3,0.6,0.3,1
					c0,0.3-0.2,0.5-0.4,0.6L969,564.1z M976.8,557.1c0,0-0.2,0,0-0.2S976.8,557.1,976.8,557.1L976.8,557.1z M974.1,556.9h0.2
					l0.7,0.7c-0.1,0.5-0.3,0.9-0.7,1.2c-0.2,0.1-0.5,0.1-0.7,0s-0.4-0.4-0.5-0.6c0-0.4,0.1-0.8,0.4-1.1L974.1,556.9z M971.9,557.6
					c0.2,0.3,0,0.7,0,1s-0.4,0.6-0.8,0.6c-0.1-0.1-0.1-0.2,0-0.3l0.6-0.7C971.6,558.1,971.5,557.8,971.9,557.6L971.9,557.6z
					 M964.3,562.5c0,0.4,0,0.8-0.1,1.4c-0.4-0.1-0.6-0.4-0.6-0.8c0,0,0,0,0-0.1c0-0.3,0.2-0.7,0.4-0.9
					C964.4,562.2,964.4,562.4,964.3,562.5L964.3,562.5z M956.7,563.4c0,0.4-0.4,0.5-0.7,0.6C956.1,563.7,956.4,563.5,956.7,563.4
					L956.7,563.4z M961,556.3c0,0.2-0.2,0.4-0.4,0.5s-0.4,0.1-0.6,0c-0.1-0.2-0.1-0.4,0-0.6c0.3-0.1,0.5-0.1,0.8,0L961,556.3z
					 M962.3,554.1c0.1,0,0.2,0,0.2,0.2l0,0C962.3,554.4,962.3,554.3,962.3,554.1L962.3,554.1z M965.8,543.3c0.2,0,0.3,0.2,0.4,0.3
					c0.1,0.1-0.2,0.2-0.4,0.2C965.6,543.9,965.6,543.6,965.8,543.3L965.8,543.3z M968.6,538.5c0,0.3,0,0.3-0.3,0.7
					c-0.5-0.2-0.5-0.2-0.2-0.9C968.4,538.3,968.5,538.4,968.6,538.5L968.6,538.5z M975.6,531.1c0,0.2-0.2,0.4-0.4,0.3l0,0
					C975.2,531.3,975.4,531.2,975.6,531.1L975.6,531.1z M1222.6,352.1c-0.7,0.4-1.6,0.6-2.4,0.5c-0.5-0.1-1-0.4-1.2-0.9
					c-0.3-0.7,0.3-1.1,0.5-1.6c0.7-0.5,1.7-0.5,2.5,0C1222.6,350.6,1222.9,351.4,1222.6,352.1z M1226.4,352.8v0.2h-0.1L1226.4,352.8
					z M965.7,536.3c0,0,0,0,0,0.2s-0.2,0-0.3,0c0-0.1,0-0.1,0-0.2C965.4,536.3,965.7,536.2,965.7,536.3L965.7,536.3z M965.3,534.9
					c0.1,0.2-0.1,0.5-0.3,0.6c-0.3-0.3,0-0.7-0.2-1.1C965.2,534.4,965.3,534.6,965.3,534.9L965.3,534.9z M971.9,527.2l0.4-0.2
					c0.4,0,0.6,0.3,1,0.5c0.3,0.1,0,0.2,0,0.2c-0.4,0-0.7,0.1-1.1,0.3c0,0-0.2,0.4-0.3,0.5c-0.2,0-0.5-0.1-0.7-0.3
					c0-0.2,0-0.3,0.1-0.4L971.9,527.2z M972.1,522.6L972.1,522.6c0,0,0,0.1,0,0.2c0,0.1-0.2,0-0.2-0.2
					C972,522.6,972.1,522.6,972.1,522.6L972.1,522.6z M1192.2,359.4c0,0,0.2,0,0.2,0.2c0.2,0.5,0,0.8-0.6,1.4h-3.8
					c-0.7-0.7,0-1,0-1.4C1189.4,359.2,1190.8,359.1,1192.2,359.4L1192.2,359.4z M1193.2,360.6c0.5-0.5,1.3-0.5,1.9,0
					c0.2,0.3,0.2,0.7,0,1C1194,361.9,1193.5,361.5,1193.2,360.6L1193.2,360.6z M967.5,518.3c-0.4,0.5-0.7,0.4-1,0.3
					c-0.1-0.2-0.1-0.4,0-0.6C967,517.7,967.1,518.2,967.5,518.3L967.5,518.3z M955,523c0-0.1,0-0.2,0.3-0.2s0,0.3,0,0.4L955,523z
					 M955.9,524c0.4-0.3,0.7,0,1,0c-0.3,0.5-0.7,0.7-1.1,0.5s0,0,0,0C955.8,524.3,955.8,524.2,955.9,524L955.9,524z M961.3,521.2
					c0,0,0,0.2-0.2,0.2s-0.1,0,0-0.2C961.1,521.2,961.1,521.2,961.3,521.2L961.3,521.2z M964.3,515.5c0.8-0.1,1.6,0,2.3,0.3
					c0.1,0.1,0.1,0.3,0.1,0.4c0,0.1,0,0.2,0,0.4c-0.1,0-0.2,0-0.3,0c-0.5,0-1-0.2-1.4-0.4h-1.1C963.6,515.8,964,515.7,964.3,515.5
					L964.3,515.5z M963.1,512.9c0.3,0,0.3,0.4,0.4,0.5c-0.1,0.2-0.2,0.4-0.3,0.6l-0.8,0.9c-0.4-0.5-0.4-0.5-0.3-1.4
					c0.1-0.1,0.3-0.1,0.4,0C962.7,513.3,962.7,512.9,963.1,512.9L963.1,512.9z M948.5,521.5c0.4,0.2,0.4,0.2,0,0.8c0,0,0,0-0.2,0.1
					l-0.9,0.3C947.6,522.2,948.3,522,948.5,521.5L948.5,521.5z M963.4,510.1c0.3,0,0.6,0.1,0.7,0.3c0.1,0.3,0,0.6-0.3,0.8
					c-0.2,0.2-0.6,0.3-0.9,0.2c-0.2-0.1-0.4-0.3-0.4-0.5c0.1-0.4,0.3-0.7,0.7-0.8H963.4z M960.8,513.1L960.8,513.1L960.8,513.1z
					 M953,519.1c0.2,0.5,0.3,1.1,0.5,1.8c-0.7-0.6-1.3-1.4-1.5-2.3C952.6,518.4,952.7,518.7,953,519.1L953,519.1z M951.9,518.3
					L951.9,518.3z M958.9,511.5c0,0.3,0,0.5,0,0.9c-0.7,0-1.3-0.3-1.4-1c0.5-0.5,0.9-0.1,1.3,0L958.9,511.5z M955.1,511.7
					c-0.2,0.1-0.5,0.1-0.7,0c-0.3,0-0.6-0.2-0.8-0.4l0,0c1.3-0.1,1.3-0.1,1.5,0.3V511.7z M1201.4,356.8c-0.9,0.4-1.9,0.4-2.8,0
					c-0.3-0.2-0.6-0.4-0.5-0.8c0.2-0.1,0.4-0.2,0.6-0.2l2.5,0.3c-0.1,0.2-0.1,0.5,0,0.7H1201.4z M959.4,533.6c0,0.2-0.1,0.4-0.4,0.4
					c-0.1-0.2,0-0.4,0.1-0.5L959.4,533.6z M1194,343.7c0.2,0.8,0.3,1.6-1.1,2c-1.4-0.7-2.8-1.2-2.8-3c0.4-0.2,0.8-0.4,1.2-0.6
					c0.4,0,0.9,0,1.3,0C1193.4,342.4,1193.9,343,1194,343.7z M1217.5,353.4c-0.4-0.5-0.8-1-1.1-1.5c0.9,0,1.8,0.4,2.3,1.2
					c-0.4,0.6-0.9,0.7-1.3,0.4h0.1V353.4z M1260.2,282.4h-0.7c-1.7-2.1-1.7-2.1-1-3.6h1c1,1.9,1,1.8,0.5,3.6H1260.2z M1133.1,282.4
					h0.4c0.2,0.3,0.2,0.7,0,1c-0.5,0-0.5-0.4-0.6-1H1133.1z M1130.1,285.4c0.3,0,0.4,0,0.3,0.4S1130,285.7,1130.1,285.4
					L1130.1,285.4z M1257.9,265.2c0.7,0.7,1,1.4,0.2,2.2C1257.5,266.8,1257.4,265.9,1257.9,265.2l-0.4-0.5
					C1258.2,264.5,1257.9,264.9,1257.9,265.2L1257.9,265.2z M1257,261.3c-0.1-0.4,0-0.6,0.4-0.6
					C1257.7,260.6,1257.4,261.2,1257,261.3L1257,261.3z M1133.5,300.1c-0.1-0.7,0.3-1.3,0.9-1.5c0.2,0,0.4,0,0.6,0
					c0.2,0.1,0.5,0.2,0.7,0.4c0,0.2,0,0.4,0,0.5c-0.2,0.3-0.3,0.6-0.5,1C1134.3,300.8,1133.8,300.6,1133.5,300.1L1133.5,300.1z"/>
				<path class="st9" d="M1610.7,40.5c-48,47-473.4,129.4-381.9,296.7c48.8,89.2,144.3,44.3,190.9,95.2
					c46.7,51,29.4,156.2,89.9,177.6c48.6,17.2,83,17.2,110,38.5c29.7,23.3,49.9,68.2,57.1,94.7c13.7,50.8,110.3,88.2,110.5,88.5
					c32.1-5.3,50.8-143.2,79.3-158.8c-0.4-0.4,105.1-270.7,136.4-309.5C1987.9,341,1590.6,12.3,1610.7,40.5z M1684.5,562.6
					L1684.5,562.6L1684.5,562.6z M1682.1,569.5c0.6-0.3,1.2-0.5,1.8-0.6c0.4,0.6,0.2,1,0,1.6c-0.7,0-1.4,0.6-2.2,0
					C1681.5,569.9,1681.8,569.6,1682.1,569.5L1682.1,569.5z M1717.6,620c0.3-0.1,0.7,0,0.9,0.2c0.4,0.5,0,0.9,0,1.2
					c-0.3,0.2-0.7,0.2-1,0C1717.2,620.9,1717.2,620.4,1717.6,620z M1697,602.7V602c0.8,0,0.8,0,1,0.7
					C1697.7,603.1,1697.4,602.9,1697,602.7L1697,602.7z M1712.2,603.6c-0.5,0.4-0.9-0.2-1.3-0.3s0.3-0.6,0.5-0.7
					C1711.6,602.5,1712.2,603.1,1712.2,603.6L1712.2,603.6z M1710.9,602.3l-0.5-0.1c-0.3-0.6,0-0.8,0.5-0.8
					C1711.1,601.6,1711.1,602,1710.9,602.3L1710.9,602.3z M1745.5,640c0,0-0.1,0-0.2,0s0-0.2,0-0.3s0,0,0.2,0
					C1745.5,639.8,1745.5,639.9,1745.5,640z M1743.8,639c-0.7,0-1.3-0.5-2-0.7s-0.7,0.4-1.2,0c-0.5-0.3-0.8-0.9-0.8-1.6
					c0.1-0.5,0.5-0.9,1-1.1c0.7,0,1.4,0.1,2.1,0.4l1.3,1c0,0.4,0.2,0.7,0.3,1C1744.7,638.2,1743.9,639,1743.8,639z M1747.3,640.9
					L1747.3,640.9c-0.1,0-0.1,0-0.2,0c0-0.2,0-0.3,0-0.2s0,0.2,0,0.3L1747.3,640.9z M1719,605c-0.4,0.4-1,0.5-1.5,0.2
					c-0.4-0.5-0.5-1.2-0.4-1.8c0.2-0.6,0.8-0.9,1.4-0.8c0.6,0.6,0.7,1.6,0.3,2.4L1719,605z M1704.8,584.8c-0.4,0.3-0.8,0.5-1.3,0.5
					c-0.4-0.4-0.3-0.5,0.6-1c0.2-0.5-0.7-0.4-0.5-0.9c0.9-0.2,1,0.1,1.1,1.3L1704.8,584.8z M1685.5,559.4c0-0.1,0.1-0.2,0.2-0.3h0.2
					c0,0-0.3,0.4-0.5,0.3H1685.5z M1349.8,232.6l-1.6,1.1c-1.1,0.1-2.2-0.4-3-1.2c-0.8-1-0.9-2.4-0.2-3.5c0.6-0.6,1.3-0.4,2-0.3
					C1348.7,229.7,1348.4,231.6,1349.8,232.6z M1732.8,596.2L1732.8,596.2L1732.8,596.2z M1712.8,570.5c1.1,0,1.5,1,2.2,1
					c0.3,0.6,0.4,1.1,0,1.5s-0.9,0.3-1.6,0C1712.8,572.4,1712.5,571.4,1712.8,570.5z M1735.3,601.3L1735.3,601.3L1735.3,601.3
					L1735.3,601.3z M1673.5,533.8c0.6,0.6,0.3,1.3,0.6,1.9c0.3,0.6,0.8,0.9,0.8,1.5c0.1,0.6-0.4,0.4-0.7,0.2l-1.9-1
					c-0.5-0.4-0.8-1.2-0.7-1.9c0-0.4,0.4-0.7,1-1L1673.5,533.8z M1697,572.1c-0.3,0-0.6-0.3-0.5-0.7v-0.1
					C1696.9,571.4,1697.1,571.7,1697,572.1L1697,572.1z M1721.8,601.7L1721.8,601.7L1721.8,601.7z M1691.1,563.6c0,0-0.3,0-0.4,0
					S1690.7,563.3,1691.1,563.6h0.4C1691.5,563.9,1691.3,563.7,1691.1,563.6z M1741.2,624.6c-0.2-0.2-0.3-0.5-0.2-0.7
					c0.2,0,0.4,0,0.5,0c0,0,0.3,0,0.4,0.1C1741.9,624.5,1741.5,624.5,1741.2,624.6z M1717.9,571.9c0-0.3,0-0.5,0-0.7
					c0.9,0,0.9,0,1.2,0.8C1718.8,572.3,1718.4,572.2,1717.9,571.9z M1616.6,436.8c-0.4,0.4-1,0.6-1.6,0.6c-0.4-0.5-0.4-0.6,0.7-1.2
					c0.2-0.6-0.7-0.5-0.6-1.1C1616.3,435,1616.5,435.3,1616.6,436.8L1616.6,436.8z M1356.7,250.1c-0.6,0.9-1.6,1.4-2.7,1.3l-1.2-1.1
					l-1.6-0.4l1.7,0.2c1-0.8,1.8-2,3.5-1.7C1356.7,248.9,1356.9,249.6,1356.7,250.1L1356.7,250.1z M1283.3,120.9
					c0.4,0.2,0.7,0.4,1,0.7c0.2,0.3,0.4,0.6,0.6,0.9c0,0.9-0.4,1.2-1.2,1C1282.4,122.6,1282.8,121.8,1283.3,120.9z M1266.3,92.8
					c-2.5,0-2.5,0-3.3-2.6c0.9-0.7,2.1-0.7,3,0C1266.7,90.9,1266.8,92,1266.3,92.8z M1430.6,296.5c0.5,0.8,0.5,1.8,0,2.6
					c-0.4,0.5-0.9,0.5-1.6,0.2c-0.8-0.8-0.8-2.1,0-2.9c0.1-0.1,0.3-0.2,0.4-0.3L1430.6,296.5z M1326.3,187.6c-0.2,1.6-0.4,2.8-2,2.8
					c-0.9-0.2-0.9-0.2-2.5-2.7c0.2-1.3,0.5-2.7,0.8-4.1c0.8-0.3,1.5,0,2.6,0.6C1325.6,185.6,1326,186.8,1326.3,187.6z M1293.1,284.4
					c-0.6,0.2-1.3,0.2-1.9,0c-0.4-0.5-0.4-0.5-0.5-1.5c0.2-0.4,0.7-0.2,1.2-0.3l1.3,1C1293.3,283.8,1293.3,284.1,1293.1,284.4z
					 M1431.1,306.3l-0.2-0.3h0.4L1431.1,306.3z M1291.3,273.4c0.2,0.7,0,1.4-0.5,2c-0.6,0.1-1.1-0.1-1.6-0.4c-0.8-0.2-1.3-1.1-1-1.9
					c0.2-0.6,0.7-1.1,1.4-1.1C1290.3,272.2,1290.9,272.6,1291.3,273.4L1291.3,273.4z M1357.2,178.6l-1.2-1.5c-0.9,0-1.5,0.9-2.6,0.3
					c-1.3-2.2,3-0.3,1-2.7l3.2,0.4l1.7-2.7c0.8,1.7,1.3,2.7,1.9,4c-0.2,0.7-0.5,1.6-0.7,2.3C1359.2,179.3,1358.1,178.5,1357.2,178.6
					z M1332.5,149.6v-0.3l0.2,0.3H1332.5z M1306.8,279.3c-0.4,0-0.7,0-1.2-0.5C1306.2,278.6,1306.6,278.7,1306.8,279.3z
					 M1355.8,163.7c0.2-1.6,1.3-1,2.3-0.7C1357.7,164.3,1357.7,164.3,1355.8,163.7z M1731.8,538.5c0.2,0,0.4,0.1,0.4,0.3v0.1
					C1732,538.9,1731.8,538.8,1731.8,538.5C1731.8,538.6,1731.8,538.6,1731.8,538.5z M1888.5,570.2c-0.1-0.2-0.1-0.3,0-0.5
					c0.3-0.2,0.6-0.3,0.9-0.3c0.4,0.7,0.6,1.3-0.2,1.5C1889,570.9,1888.7,570.4,1888.5,570.2z M1738.5,527.8c-0.3,0.2-0.7,0.2-1,0
					c-0.4-0.4-0.6-1-0.6-1.5c0.1-0.3,0.3-0.5,0.6-0.5c0.5,0.1,1,0.3,1.4,0.7C1738.9,526.9,1738.7,527.3,1738.5,527.8L1738.5,527.8z
					 M1738.3,528.4c0.4,0.5,0.5,1.2,0.3,1.9c-0.2,0.5-0.8,0.7-1.3,0.5c-0.1,0-0.1-0.1-0.2-0.1c-0.1-0.5-0.1-0.9,0-1.4
					C1737.3,528.7,1737.8,528.3,1738.3,528.4L1738.3,528.4z M1742.2,535.9L1742.2,535.9h-0.3
					C1741.9,535.5,1742.1,535.7,1742.2,535.9L1742.2,535.9c0.3,0,0.6,0.1,0.8,0.4c0.1,0.3,0.1,0.7,0,1.1c-0.4,0.3-0.8,0-1.3,0
					s0-0.3,0-0.4C1741.8,536.9,1742.4,536.3,1742.2,535.9L1742.2,535.9z M1325.5,278.1c-0.6-0.5-0.4-0.8-0.4-1.2
					C1325.7,277.1,1325.5,277.5,1325.5,278.1z M1303,249.9c0-0.3,0-0.4,0.4-0.3C1303.9,249.7,1303.3,250,1303,249.9L1303,249.9z
					 M1306.5,249.3c0.2-1.7,0.5-2,2.3-1.9c0.4,0.2,0.6,0.6,0.6,1c-0.1,0.3-0.2,0.6-0.3,0.9c-0.5,0.3-1.2,0.6-1.8,0.7
					C1306.9,249.9,1306.6,249.7,1306.5,249.3L1306.5,249.3z M1319.8,263.6c0-0.3,0-0.4,0.4-0.3S1320,263.7,1319.8,263.6
					L1319.8,263.6z M1320.1,258.6c0,0.1,0,0.3,0,0.4c-0.4,0.4-0.8,0.9-1.2,1.3c-0.9-0.1-1.7-0.5-2.3-1.2c-0.2-0.4-0.2-0.9,0-1.4
					c0.3-0.4,0.7-0.7,1.2-0.9c0.8-0.1,1.6,0.2,2.1,0.7L1320.1,258.6z M1318.8,254.5c-0.7,0.4-1.3,0-2-0.2c-0.6-0.4-1-0.9-1.2-1.6
					c0.2-0.2,0.4-0.2,0.6,0l1.3,1.1C1317.9,254.1,1318.5,253.9,1318.8,254.5L1318.8,254.5z M1309.3,240.6c-0.8,0-1.6-0.2-2.6-0.3
					c0.1-0.7,0.8-1.2,1.5-1.1c0,0,0,0,0.1,0c0.7-0.1,1.3,0.3,1.7,0.8C1309.9,240.6,1309.5,240.6,1309.3,240.6L1309.3,240.6z
					 M1307.4,226.3c-0.8,0-0.9-0.7-1.2-1.3C1306.8,225.2,1307.2,225.7,1307.4,226.3L1307.4,226.3z M1320.7,234c-0.5,0-0.9-0.3-1-0.7
					c-0.2-0.4-0.2-0.8,0-1.1c0.3-0.3,0.7-0.2,1.1,0c0.3,0.4,0.4,1,0.3,1.5L1320.7,234z M1324.9,236.5c0,0.3-0.1,0.4-0.4,0.4
					c-0.4-0.1,0,0,0-0.1C1324.6,236.6,1324.6,236.4,1324.9,236.5L1324.9,236.5z M1345.3,242.7c0,0.5-0.4,0.5-0.6,0.7
					c-0.2,0.1-0.4-0.4-0.4-0.7S1344.8,242.2,1345.3,242.7L1345.3,242.7z M1833.4,486.1c-0.6-0.5-0.8-1.5-0.3-2.1c0.2,0,0.5,0,0.6,0
					c0.7,0.5,1.8,0.6,1.8,1.9C1834.9,486.4,1834.1,486.4,1833.4,486.1z M1354.3,247.8c-0.5,0.2-0.6,0-1.4-0.4c0.4-1,0.4-1,1.7-0.5
					c0.2,0.3,0.1,0.6-0.1,0.8C1354.4,247.7,1354.4,247.7,1354.3,247.8z M1368.2,260.6c-0.3,0-0.6-0.3-0.6-0.6v-0.1
					C1368,259.8,1368.3,260.1,1368.2,260.6C1368.3,260.5,1368.3,260.6,1368.2,260.6z M1826.3,454.6c0.7-0.1,1.4,0,2.1,0.4
					c0.4,0.2,0.6,0.7,0.7,1.1c0,0.7-0.6,0.8-0.9,1.1c-0.7,0.2-1.5-0.1-2-0.7C1825.8,455.9,1825.8,455.1,1826.3,454.6L1826.3,454.6z
					 M1823.5,452.8L1823.5,452.8L1823.5,452.8z M1358.4,242.3c0,0-0.3,0-0.4,0s0-0.5,0.1-0.6c0.1,0,0.3,0.1,0.4,0.2
					C1358.7,242,1358.7,242.2,1358.4,242.3z M1361,241.5c-0.5,0.1-0.9-0.2-1.1-0.6c0.6-0.5,1.3-0.3,2.1-0.5c0.1,0.6-0.3,1.1-0.8,1.2
					C1361.2,241.6,1361.1,241.6,1361,241.5L1361,241.5z M1677.4,492.9c0.1,0.2,0.3,0.4,0.4,0.6c0,0.8-0.6,1.2-0.8,1.7
					c-0.2,0-0.3,0-0.4-0.2c0-0.7-0.2-1.3-0.5-1.9l-1-0.5c0.1-0.4,0.1-0.9,0.5-1.2c0.3-0.1,0.6,0,0.8,0.3
					C1676.9,492.1,1677.2,492.6,1677.4,492.9L1677.4,492.9z M1685.7,493.2c0,0-0.2,0.2-0.3,0.2c-0.1,0-0.3,0-0.4,0
					c0-0.3,0.2-0.4,0.4-0.3C1685.7,493.1,1685.7,493,1685.7,493.2L1685.7,493.2z M1852.7,458.5v-0.2c0-0.1,0.4-0.6,1-0.9l3,1.2
					c0.4,0.8-0.3,0.8-0.5,1C1854.9,459.5,1853.7,459.2,1852.7,458.5L1852.7,458.5z M1852.2,457.2c-0.8,0.2-1.1-0.2-1.4-0.7
					c-0.1-0.3,0.1-0.6,0.4-0.7C1852.1,455.9,1852.4,456.4,1852.2,457.2L1852.2,457.2z M1693.3,484.7c-0.9-0.7-0.8-1.3-0.5-1.8
					c0.3-0.2,0.8-0.2,1.1,0C1694.5,483.8,1693.5,484,1693.3,484.7L1693.3,484.7z M1822.4,421.3c0.3-0.3,0.6,0,0.8,0
					c0.3,0-0.4,0.6-0.9,0.4C1822.3,421.5,1822.4,421.4,1822.4,421.3L1822.4,421.3z M1821.8,424.4c1.2,0.3,0.9,1.4,1.7,1.9
					c-1.4,0-2.3-0.2-2.6-1.3c0,0,0-0.3,0.1-0.3L1821.8,424.4z M1687.8,473.5c-0.2,0-0.4-0.2-0.4-0.4l0,0c0-0.3,0.2-0.3,0.4-0.2
					C1688,473.1,1688,473.3,1687.8,473.5L1687.8,473.5z M1698.2,478.6c0.2,1.4,0,2.8-0.5,4.1c-0.2,0.1-0.5,0.2-0.7,0.3
					c-0.2,0-0.4,0-0.6,0c0-0.2-0.3-0.4-0.3-0.5c0-0.9,0.3-1.8,0.8-2.6v-2C1697.6,477.6,1698,478.1,1698.2,478.6L1698.2,478.6z
					 M1702.9,476.5c0,0.5-0.6,0.5-1,0.9c-0.4-0.2-0.8-0.4-1.1-0.6l-1.6-1.4c0.9-0.7,0.9-0.7,2.4-0.6c0.3,0.2,0.4,0.5,0.2,0.8
					C1702.2,475.9,1702.8,475.9,1702.9,476.5L1702.9,476.5z M1815,406.7c0.2,1.2,0.2,1.2-1.4,1.5c-0.2,0-0.4,0-0.6,0
					c-0.6-0.4-1.3-0.7-2-1.2C1812.5,406.5,1813.8,407.5,1815,406.7L1815,406.7z M1707.9,476.8c0,0.5-0.2,1.1-0.6,1.4
					c-0.6,0.1-1.1-0.1-1.5-0.6c-0.4-0.4-0.5-1-0.4-1.5c0.2-0.4,0.5-0.7,1-0.8C1707.1,475.5,1707.7,476.1,1707.9,476.8z
					 M1702.4,472.3L1702.4,472.3L1702.4,472.3z M1826.6,411.1c-0.7,1.1-1.5,2.3-2.5,3.7c-0.1-2.3,0.6-4.5,1.9-6.4
					C1827.2,409.7,1827,410.4,1826.6,411.1z M1826.4,407.9h-0.2v-0.1L1826.4,407.9z M1705.5,468.8l-1.5,0.1c0.2-1.3,0.4-2.3,1.7-2.6
					C1706.4,467.5,1705.6,468.1,1705.5,468.8z M1843.7,403.5c-0.8-0.2-1-0.8-1.3-1.3c-0.4-0.6-0.6-1.4-0.6-2.2c0,0,0.2,0,0.3,0
					C1844.1,402.7,1844.1,402.7,1843.7,403.5z M1799.5,389.9c-0.4,0.6-0.7,1.2-1.8,1c-0.8-0.4-1.4-1-1.7-1.8l0.8-0.5l0.6,0.7
					C1798,389.7,1799,389.2,1799.5,389.9z M1702.4,435.4L1702.4,435.4c0.1-0.2,0.2-0.4,0.2-0.5c0.4,0.2,0.2,0.4,0.2,0.7l0,0
					c0.6,0.1,1.2,0.5,1.3,1.2l0,0c0.2,0.1,0.4,0.3,0.4,0.5l0,0v0.1l-0.1-0.1l0,0c0,0-0.4-0.2-0.4-0.5l0,0c-0.7,0-1.2-0.5-1.3-1.2
					l0,0h-0.5l0,0l0,0l-0.2,0.9l0.3,0.2c-0.4,0.2-0.2,0-0.3-0.2c-0.6-0.2-0.9-0.9-0.7-1.5l0,0l-0.3-0.2c0.4,0,0.3,0,0.3,0.2l0,0
					l0.9,0.6L1702.4,435.4z M1701.2,432.7c-0.4-0.1-0.7-0.4-0.7-0.8l0,0c-0.3-0.2-0.4-0.4-0.2-0.7c0.4,0.2,0.2,0.4,0.2,0.7l0,0
					c0.5,0.2,1.1,0,1.4-0.5c0.2,0.8,0,1.2-0.7,1.5L1701.2,432.7L1701.2,432.7z M1711.1,423.7c0.7,0,0.7,0.4,0.7,0.7
					c-0.3,0.8-0.7,1.6-1.3,2.2c-1.4,0.3-1.4,0.3-2.1-0.7C1709.4,425.3,1710.3,424.6,1711.1,423.7L1711.1,423.7z M1780.1,354.3
					c0.2,0,0.4,0.1,0.6,0.2c0.4,0.3,0.8,0.7,1.2,1c-2,0.6-1.9,0.6-2.7-0.7c0.1-0.1,0.3-0.3,0.4-0.4
					C1779.7,354.4,1779.9,354.3,1780.1,354.3L1780.1,354.3z M1856.1,377.3c-0.5-0.3-0.6-0.6-0.5-0.9c0.4-0.4,0.9-0.5,1.3-0.4
					C1857.5,376.9,1856.9,377.1,1856.1,377.3L1856.1,377.3z M1815.5,359.1c0.1,0.9,0,1.8-0.5,2.5c-0.6,0-1.1,0-1.8,0.3
					c-0.6-1.1-2-1.3-3.2-2.1c1.2-0.9,2.7-1.5,4.2-1.7C1814.7,358.3,1815.2,358.6,1815.5,359.1z M1815.5,357.8
					c-0.6-0.2-1.1-0.7-1.4-1.2c-0.2-0.6,0-1.2,0.4-1.6c0.2,0,0.4-0.3,0.6-0.2c1.2,0.2,1.7,0.7,1.8,1.7S1816.8,357.4,1815.5,357.8
					L1815.5,357.8L1815.5,357.8z M1804.5,350.9c-0.3,0-0.6-0.2-0.7-0.5c0-0.4,0-0.7,0-1.1l0,0V349v0.1l0,0c0.8,0,0.7-0.9,1.2-1.2
					h0.3c0.4,0.3,0.8,0.7,0.9,1.2c-0.7,0.4-1.2,0.9-1.6,1.6h-0.1L1804.5,350.9L1804.5,350.9z M1817.8,349.9c0.1-0.3,0.4-0.4,0.7-0.3
					h0.1c0,0,0.3,0.4,0.2,0.5c-0.1,0.3-0.3,0.4-0.6,0.3c-0.1,0-0.1,0-0.1-0.1c0,0,0-0.3-0.1-0.5h-0.2V349.9z M1813.2,330.6h-0.2l0,0
					H1813.2z M1816.2,330.1c-0.3,0.2-0.6,0-0.7-0.2C1815.3,329.6,1816.1,329.7,1816.2,330.1L1816.2,330.1z M1801.2,326.6
					c0.2,0.5-0.3,0.6-0.7,0.7c-0.4,0.1-0.5-0.4-0.4-0.8C1800.2,326.2,1800.9,326.4,1801.2,326.6L1801.2,326.6z M1840.1,333.7
					c-0.3,0.5-0.8,0.9-1.4,0.9c-0.9-0.2-1.1-0.9-1.5-1.3s0.4-1,0.7-1.3C1839,332,1839.8,332.7,1840.1,333.7L1840.1,333.7z
					 M1831.1,323.2c0,0.2,0,0.4-0.3,0.5c-0.7,0.4-1.6,0.4-2.1,1.2c-0.5,0.7-1.4,1.1-2.2,1l0,0h-0.2l0.2-0.1l0,0
					c0-0.5-0.1-0.9-0.2-1.4c-0.2-0.6-0.1-1.2,0.3-1.7c0.7-0.6,1.6,0,2.3-0.2c0-0.4,0-0.7,0-1.2
					C1830,321.9,1830.9,322.3,1831.1,323.2L1831.1,323.2z M1796,315.8c0.3,0.2,0.3,0.5,0.2,0.8c-0.7,0.4-1.2,0.2-1.8-0.5
					C1794.8,315.6,1795.4,315.4,1796,315.8C1796,315.7,1796,315.7,1796,315.8L1796,315.8z M1386.7,263.8c0,0.3,0,0.6,0,0.8
					c-0.2,0.2-0.2,0.4-0.4,0.4c-0.6-0.6-0.9-1.5-0.7-2.4C1385.7,263.2,1386.4,263.2,1386.7,263.8L1386.7,263.8z M1793.3,315.4
					c0,0,0.2,0,0.3,0s0,0.7-0.1,1.3l-3,1c-0.8-0.4-0.3-0.8-0.3-1.2C1791.1,315.8,1792.2,315.4,1793.3,315.4z M1394,262.9
					c0-0.3,0.2-0.5,0.6-0.6s0.5,0.2,0.5,0.5C1394.4,263.1,1394.4,263.1,1394,262.9z M1800.3,310.7c-0.6,0.5-1.5,0.8-2.3,0.7
					c-0.3,0-0.6-0.2-0.6-0.6s0.3-0.3,0.4-0.4l2.2-0.4C1800.1,310.3,1800.2,310.5,1800.3,310.7L1800.3,310.7z M1747.8,278.1
					c-0.6,0-1.1-0.3-1.5-0.6c-0.6-0.5-0.8-1.3-0.7-2.1l2.7-0.2c0.9,0.2,1.6,0.9,1.9,1.8C1749.8,277.9,1748.8,278.3,1747.8,278.1z
					 M1771.4,280.4c0.1,0,0.2,0,0.3,0l0.3,0.5c-0.3,0.6-0.7,1.1-1.3,1.4c-0.5,0-0.9,0-0.9-0.4c0-0.5,0.1-0.9,0.2-1.4
					c-0.8-0.7-0.4-1.3,0-2.2c0.4,0.7,0.5,1.5,0.2,2.2L1771.4,280.4z M1735.2,267.9c2.2,0,2.4,0,3,1.9c-0.2,0.6-0.8,1-1.5,1
					c-0.2,0-0.5,0-0.6-0.2C1735.3,269.8,1734.8,269,1735.2,267.9z M1723.4,266.8L1723.4,266.8l-0.4-0.3
					C1723.6,266.2,1723.4,266.4,1723.4,266.8L1723.4,266.8l0.9,0.3c0.4,0.4,0.4,1,0,1.4c-0.2,0.4-0.7,0.5-1,0.3c0,0,0,0-0.1,0
					C1722.8,268,1723.4,267.4,1723.4,266.8z M1404,255.6c0.4-0.4,0.4-0.4,1.2-0.4c0.2,0.2,0.2,0.4,0,0.5c-0.2,0.2-0.5,0.2-0.8,0.2
					L1404,255.6z M1407.4,260.7v0.2C1407.4,261,1407.3,260.8,1407.4,260.7L1407.4,260.7z M1742,287.6c0.7-0.2,1,0.4,1.5,0.5
					c0.4,0.4,0.3,1.1-0.2,1.4c-0.1,0-0.1,0.1-0.2,0.1h-1.3C1741.3,288.9,1741.8,288.2,1742,287.6L1742,287.6z M1752.9,291.4
					c0.1-0.3,0.2-0.5,0.4-0.8c0.8,0,0.9,0.4,1,0.9s-0.6,0.7-1.3,0.7C1752.9,292,1752.9,291.7,1752.9,291.4L1752.9,291.4z
					 M1787.9,301c0.4-0.2,0.8-0.3,1.1-0.5c0.7,0.1,1.3,0.5,1.6,1.1c0.4,0.6,0.7,1.3-0.4,2c-1.4,0-2.7-0.3-3.2-1.8
					C1787.3,301.5,1787.7,301.2,1787.9,301L1787.9,301z M1398.9,260.2c0,0,0.2,0,0.3,0l0.4,0.3c0,0.2,0,0.3-0.2,0.3
					C1399.2,260.9,1398.8,260.6,1398.9,260.2z M1769.6,300c0,0-0.2-0.2,0-0.3c0-0.7,0.8-0.8,1.3-1.4c0.3,1,0,1.5-0.9,1.7
					C1769.8,300.1,1769.7,300.1,1769.6,300z M1718.8,295.4c0.2,0.3,0.2,0.5-0.2,0.6C1718.2,296.1,1718.5,295.5,1718.8,295.4
					L1718.8,295.4z M1410.3,268.2c-0.4-0.2-0.4-0.6-0.5-1.1C1410.7,267.7,1410.7,267.7,1410.3,268.2L1410.3,268.2z M1388.4,254.9
					h0.4c0.2,0.1,0.3,0.3,0.3,0.4c0,0.2-0.2,0.3-0.6,0.2C1388.3,255.4,1388.2,255.1,1388.4,254.9L1388.4,254.9L1388.4,254.9z
					 M1407.2,275.1c0,0,0.2,0,0.4,0s0,0-0.1,0.2c-0.1,0-0.2,0-0.2,0C1407.1,275.2,1407.2,275.1,1407.2,275.1L1407.2,275.1z
					 M1394.7,273.2c0.3-0.2,0.6-0.2,0.8,0c0.1,0.5,0,0.9-0.4,1.3C1394.6,274,1394.6,274,1394.7,273.2L1394.7,273.2z M1837.9,347.1
					h0.2H1837.9L1837.9,347.1c0,1.2-0.3,2.3-0.7,3.4c-0.8,0.7-1.9,1.1-3,1.1c-1.4-0.6-2.7-1.3-3.9-2.2l-0.4-1
					c0.2-0.6,0.7-1.1,1.3-1.3c0.9,0.8,1.3,1.9,2.4,2.5c0.5,0.1,1.1-0.1,1.4-0.5c0.7-0.8,1.6-1.5,2.6-2H1837.9z M1830.4,345.7
					c-0.4,0.5-1,0.6-1.6,0.5C1829,345.5,1829.4,345.3,1830.4,345.7z M1815.2,342.7c0,0,0.1,0,0.4-0.3c0.4,0.5,0.7,1.2,0.6,1.8
					C1815,344.1,1814.8,343.7,1815.2,342.7L1815.2,342.7z M1402.1,277.9c-0.1-0.4,0.1-0.9,0.5-1c0.2,0.1,0.3,0.2,0.3,0.4
					c-0.1,0.2-0.2,0.4-0.4,0.7l0,0L1402.1,277.9z M1844.6,457.8c0.8,0,1.6,0.3,2.2,0.9c0.2,0.3,0.3,0.6,0,0.8c-0.2,0-0.4,0-0.6,0
					l-1.9-1C1844.6,458.2,1844.6,458,1844.6,457.8z M1363.6,229.9c-0.4,0-0.6-0.3-0.7-0.7s0.5,0.3,0.5,0.7H1363.6z M1846.3,470.5
					c0-0.7,0.3-1.4,1.5-1.3c0.9,1,1.9,1.9,1.3,3.3c-0.4,0-0.8,0-1.2,0s-0.8-0.2-1-0.3C1846.4,471.8,1846.2,471.1,1846.3,470.5z
					 M1830.9,455.3c0.2,0.5,0.3,1,0.4,1.6c-0.7-0.3-1.3-0.9-1.4-1.6C1830.4,454.8,1830.7,454.9,1830.9,455.3L1830.9,455.3z
					 M1940.2,484.2c0.4-0.3,0.6-0.7,0.8-0.6c1.9-0.1,3.8,0.5,5.2,1.8c0.5,1.4,1.4,2.8,0.8,4.2c-0.4,0-0.8,0.3-1,0
					c-1.5-1.2-3.2-2-5-2.6C1940.7,486,1940.5,485.1,1940.2,484.2L1940.2,484.2z M1945.2,491.7c1.1,1,1.8,2.4,2.1,3.9
					c-0.8,1.7-2.1,1.9-4.2,0.5C1943.5,494.2,1943.7,492.6,1945.2,491.7L1945.2,491.7z M1939,503.6c1.7,1.3,1.7,1.3,0.8,2.4
					C1939.1,505.4,1938.8,504.5,1939,503.6L1939,503.6z M1852.4,555c0.4-0.7,1-0.4,1.6,0c0,0.2,0,0.5,0.2,0.8
					c-0.2,0.2-0.4,0.3-0.7,0.4C1852.9,556,1852.5,555.6,1852.4,555L1852.4,555z M1836.7,587.7L1836.7,587.7L1836.7,587.7
					c0-0.1,0-0.3,0-0.4C1837.1,587.4,1836.9,587.5,1836.7,587.7L1836.7,587.7c0.4,0.6,0.8,1.1,0.3,1.9c-0.5-0.5-0.6-1.3-0.2-1.9
					H1836.7z M1825.3,579.8L1825.3,579.8L1825.3,579.8c-0.3-0.5-0.3-1,0-1.5c0.5,0,0.7,0,0.9,0.3
					C1826.4,578.9,1825.7,579.5,1825.3,579.8L1825.3,579.8L1825.3,579.8c-0.1,0.4-0.1,0.7-0.4,0.7c0.1-0.4,0.4-0.5,0.6-0.7H1825.3z
					 M1827.8,584.2c0,0.3,0,0.4-0.5,0.3c-0.5-0.1,0.3-0.5,0.6-0.4L1827.8,584.2z M1733.3,540.7l0.4,0.2c0.6,1.7,0.6,1.7-0.3,2.4
					l-0.6-0.3C1732.6,541.6,1732.6,541.6,1733.3,540.7z M1726.3,545.1c0,0.1,0,0.3,0,0.4c-0.3,0.3-0.7,0.3-1,0.2
					C1725.4,545.2,1725.8,545.1,1726.3,545.1z M1723.3,542.1c0,0.3,0,0.4-0.4,0.3c-0.4-0.1-0.1-0.2,0.3-0.1L1723.3,542.1z
					 M1730.5,551.5c-0.2-0.6-0.2-1.1,0.4-1.3C1731.2,550.7,1731,551.2,1730.5,551.5c0.1,0.2,0.1,0.3,0.1,0.4
					c-0.5,0.1-0.2-0.1-0.2-0.3L1730.5,551.5z M1730.1,554.2c0,0.3,0,0.4-0.4,0.3c-0.4-0.1,0-0.2,0.3-0.1L1730.1,554.2z
					 M1708.4,545.9c0.7-0.1,1.3,0.2,1.6,0.9c0,0.2,0,0.4,0,0.6c-0.1,0.2-0.2,0.5-0.4,0.7c-0.2,0-0.4,0-0.5,0c-0.4-0.2-0.7-0.4-1-0.5
					c-0.5-0.7-0.4-1.3,0.2-1.5L1708.4,545.9z M1909.5,568v-0.4l0.3,0.2L1909.5,568z M1823.5,567.6c1.5,0,2,1.3,3,1.3
					c0.4,0.8,0.5,1.4,0,2s-1.2,0.4-2,0c-1-0.7-1.4-2-1.1-3.1L1823.5,567.6z M1915.4,580l0.2,0.3h-0.3L1915.4,580z M1848.3,526.1
					c0.4,0,0.5,0.2,0.5,0.6C1848.7,527,1848.1,526.4,1848.3,526.1z M1856.9,511.9c-0.4,0.1-0.9,0.1-1.3-0.2c-0.5-0.5-0.8-1.2-0.7-2
					c0.1-0.4,0.4-0.7,0.8-0.7c0.7,0.2,1.3,0.5,1.8,0.9c0,0.7-0.3,1.4-0.7,1.9h0.1L1856.9,511.9L1856.9,511.9z M1856.7,512.7
					c0.5,0.7,0.6,1.6,0.4,2.4c-0.3,0.7-1.1,0.9-1.8,0.6c-0.1,0-0.1-0.1-0.2-0.1c-0.2-0.6-0.3-1.2-0.1-1.8
					C1855.2,513.1,1855.9,512.6,1856.7,512.7L1856.7,512.7L1856.7,512.7z M1861.8,522.5L1861.8,522.5h-0.4
					C1861.3,522,1861.6,522.3,1861.8,522.5L1861.8,522.5c0.4-0.1,0.9,0.1,1.1,0.5s0.2,1,0,1.4c-0.5,0.3-1.2,0.2-1.7-0.2
					c0-0.1,0-0.4,0-0.5s0.6-0.7,0.4-1.3L1861.8,522.5z M1567.4,480.9c0.6-0.1,1.3,0.1,1.9,0.3c0.3,0.2,0.6,0.6,0.6,1
					c0,0.6-0.5,0.7-0.8,1c-0.7,0.2-1.4-0.1-1.8-0.7c-0.4-0.5-0.4-1.2,0-1.7h0.1L1567.4,480.9L1567.4,480.9z M1564.9,479.3
					L1564.9,479.3L1564.9,479.3z M1571.5,481.5c0.2,0.5,0.3,0.9,0.3,1.4c-0.6-0.2-1.1-0.8-1.3-1.5c0.2-0.4,0.6-0.3,0.8,0.1H1571.5z
					 M1850.2,528.8l0.6,0.2c0.7,2.2,0.7,2.2-0.4,3.1l-0.8-0.4c-0.5-1.7-0.5-1.7,0.4-3h0.2L1850.2,528.8L1850.2,528.8z M1841,534.6
					c0,0.4,0,0.4,0,0.6c-0.4,0.3-0.9,0.4-1.3,0.2c0.1-0.6,0.5-0.7,1.2-0.7L1841,534.6z M1837,530.9c0,0.4,0,0.4-0.5,0.4
					c-0.5-0.1-0.1-0.5,0.3-0.4H1837z M1846.2,543.3c-0.3-0.8-0.3-1.4,0.6-1.8c0.3,0.6,0.1,1.4-0.4,1.8c0,0.2,0,0.3,0,0.5
					C1845.9,543.6,1846.2,543.3,1846.2,543.3z M1845.8,546.8c0,0.3,0,0.5-0.5,0.3c-0.5-0.1,0.1-0.6,0.5-0.4V546.8z M1817.5,536
					c0.9-0.1,1.7,0.3,2,1.2c0,0.3-0.1,0.5-0.1,0.8c-0.2,0.3-0.3,0.6-0.5,1c-0.3,0-0.5,0-0.7,0c-0.4-0.2-0.9-0.4-1.3-0.7
					c-0.4-1.3-0.2-2,0.6-2.4V536z M1604.1,485.2L1604.1,485.2L1604.1,485.2z M1619.7,424.7c0.4-0.1,0.8,0,1,0.2c0.4,0.6,0.1,1,0,1.4
					c-0.4,0.2-0.8,0.2-1.2,0C1619.2,425.8,1619.2,425.1,1619.7,424.7L1619.7,424.7z M1627.7,511.3c-0.4,0.4-1,0.6-1.6,0.7
					c-0.4-0.5-0.4-0.6,0.7-1.2c0.2-0.6-0.7-0.5-0.6-1.1c1.2-0.3,1.4-0.1,1.5,1.4V511.3z M1605.1,481.4c0.1-0.1,0.1-0.2,0.2-0.4h0.2
					C1605.5,481.1,1605.4,481.4,1605.1,481.4L1605.1,481.4z M1865,367.9l-0.3,1c-0.5,0.5-1.1,0.7-1.8,0.6c-0.7-0.2-1.2-0.7-1.3-1.5
					c0-0.4,0.4-0.7,0.8-0.8c0.9-0.4,1.5,0.5,2.5,0.5L1865,367.9z M1637.4,494.6c1.3,0,1.8,1.1,2.6,1.2c0.4,0.7,0.5,1.3,0,1.8
					s-1.1,0.4-1.8,0c-1-0.7-1.4-2-0.9-3.1L1637.4,494.6z M1381.8,276.6L1381.8,276.6L1381.8,276.6z M1618.8,496.2
					c-0.5-0.1-0.7-0.4-0.6-0.9C1618.7,495.5,1618.9,495.7,1618.8,496.2L1618.8,496.2z M1611.9,486.3c-0.2,0-0.4,0-0.5,0
					S1611.4,486,1611.9,486.3h0.4C1612.3,486.6,1612.1,486.3,1611.9,486.3z M1874.1,373.1c0.1,0.6-0.2,1.2-0.7,1.5h-0.9l-0.9,0.4
					l0.8-0.5c0.2-0.7,0-1.6,0.9-2C1873.7,372.6,1874,372.8,1874.1,373.1z M1795.9,342.3c0.2,0,0.5,0,0.7,0c0.2,0.1,0.4,0.1,0.6,0.2
					c0.3,0.4,0.2,0.7-0.2,0.9S1796,342.8,1795.9,342.3z M1778.5,336c-1.1,0.9-1.1,0.9-2.4,0c0.1-0.6,0.7-1,1.3-1
					C1778,334.9,1778.4,335.4,1778.5,336L1778.5,336z M1298.1,285.6c0.1,0.2,0.1,0.5,0,0.7c-0.1,0.1-0.3,0.1-0.4,0
					c-0.3-0.2-0.3-0.6-0.1-0.8l0.1-0.1L1298.1,285.6z M1838.5,356.3c0.4,0.7,0.8,1.4,0,1.9s-0.5,0.2-2-0.3l-1.1-2.1
					c0.3-0.4,0.8-0.7,1.4-0.7L1838.5,356.3z M1303.8,296.6c-0.4,0.1-0.8,0.1-1.2,0c-0.3-0.3-0.3-0.3-0.3-1c0.1-0.2,0.4,0,0.7-0.2
					l0.8,0.7c0.1,0.2,0,0.5-0.2,0.7L1303.8,296.6z M1298.4,288.2L1298.4,288.2L1298.4,288.2z M1302.6,289.5c0.1,0.4,0,0.9-0.3,1.3
					c-0.4,0.1-0.7,0-1-0.2c-0.4-0.3-0.6-0.7-0.5-1.2c0.1-0.3,0.4-0.6,0.8-0.7c0.5,0.2,0.8,0.5,1,1V289.5z M1848.9,341.4l-1-0.2
					c-0.4,0.3-0.4,0.9-1,1c-1.3-0.5,1.2-1.2-0.5-1.6l1.5-1c0-0.5,0-1-0.2-1.8l2.2,1.1c0,0.4,0.3,0.9,0.5,1.3
					C1850.5,340.6,1849.3,341,1848.9,341.4z M1827.8,337.4v-0.2l0,0V337.4z M1312.3,293.5c-0.2,0-0.4,0-0.7-0.3
					C1312,293.1,1312.3,293.1,1312.3,293.5z M1843,335.3c-0.4-0.8,0.2-0.9,0.8-1.1C1844,334.9,1844,334.9,1843,335.3z M1659.6,456.9
					c0.4,0,0.5,0.2,0.4,0.5c-0.2,0-0.4-0.2-0.4-0.4V456.9L1659.6,456.9z M1667.3,444.2c-0.4,0.1-0.8,0.1-1.2-0.2
					c-0.5-0.5-0.7-1.1-0.7-1.8c0.1-0.3,0.4-0.6,0.7-0.6c0.6,0.1,1.2,0.4,1.7,0.8C1667.9,443.1,1667.7,443.7,1667.3,444.2
					L1667.3,444.2z M1667.2,444.9c0.4,0.6,0.6,1.4,0.4,2.2c-0.3,0.6-1,0.9-1.6,0.6c-0.1,0-0.1-0.1-0.2-0.1c-0.2-0.5-0.2-1.1,0-1.6
					C1665.9,445.3,1666.5,444.8,1667.2,444.9L1667.2,444.9z M1641.3,605.3L1641.3,605.3L1641.3,605.3c0.1,0.2,0.2,0.3,0.3,0.5
					C1640.9,606,1641.2,605.6,1641.3,605.3L1641.3,605.3L1641.3,605.3c-0.3-0.5-0.3-1.2,0-1.7c0.4-0.6,1-1,1.7-1
					c0.7,0.5,0.7,1.3,0.7,2.3c-0.2,0-0.4,0.3-0.6,0.3C1642.9,605.1,1641.9,604.7,1641.3,605.3L1641.3,605.3z M1324.3,292.7
					c-0.4-0.3-0.3-0.5-0.3-0.8C1324.5,292.1,1324.4,292.4,1324.3,292.7z M1309.9,274.8c0-0.2,0-0.3,0.3-0.2
					C1310.5,274.6,1310.1,274.7,1309.9,274.8L1309.9,274.8z M1312.1,274.4c0-1.1,0.4-1.3,1.5-1.2c0.2,0.2,0.4,0.4,0.4,0.7
					c0,0,0,0.3-0.2,0.6c-0.4,0.2-0.8,0.4-1.2,0.4C1312.4,274.7,1312.2,274.5,1312.1,274.4L1312.1,274.4z M1320.7,283.4
					c0-0.2,0-0.3,0.3-0.2C1321.2,283.3,1320.8,283.4,1320.7,283.4z M1320.9,280.3c0,0.1,0,0.2,0,0.2l-0.8,0.8
					c-0.6-0.1-1.1-0.3-1.4-0.7c-0.1-0.3-0.1-0.6,0-0.9c0.2-0.3,0.4-0.5,0.7-0.6c0.5,0,1,0.1,1.3,0.5L1320.9,280.3z M1320,277.6
					c-0.4,0.2-0.9,0-1.3,0c-0.4-0.2-0.6-0.6-0.7-1c0-0.1,0.2-0.1,0.4,0l0.9,0.7C1319.5,277.5,1319.8,277.2,1320,277.6z
					 M1314.1,268.7l-1.6-0.2c0.1-0.5,0.5-0.8,1-0.7l0,0c0.4,0,0.8,0.2,1.1,0.5c-0.1,0.4-0.4,0.3-0.5,0.3V268.7z M1312.9,259.5
					c-0.5,0-0.6-0.4-0.8-0.8c0.3,0.1,0.6,0.5,0.7,0.8H1312.9z M1321.4,264.5c-0.3,0-0.5-0.2-0.7-0.4c-0.1-0.2-0.1-0.5,0-0.7
					c0.2,0,0.4,0,0.7,0c0.2,0.3,0.2,0.6,0.2,0.9L1321.4,264.5z M1324.1,266.1c0,0,0,0.2-0.2,0.2s0,0,0,0S1323.8,266,1324.1,266.1
					L1324.1,266.1z M1337.1,270c0,0.3-0.2,0.3-0.4,0.4s-0.3-0.3-0.3-0.4s0.3-0.3,0.5,0H1337.1z M1343.1,273.3
					c-0.3,0.1-0.4,0-0.9-0.3c0.3-0.6,0.3-0.6,1.1-0.3c0.1,0.1,0.1,0.4,0,0.5s-0.3,0.1-0.4,0.1L1343.1,273.3z M1352,281.5
					c-0.2,0-0.4-0.2-0.4-0.4c0,0,0,0,0-0.1c0.1,0.1,0.2,0.3,0.1,0.5H1352z M1571.8,573.5c-0.5-0.9-0.8-1.9-0.7-3
					c0.1-0.6,0.5-1.2,1-1.5c0.9-0.4,1.4,0.4,2,0.6c0.7,0.9,0.7,2.1,0,3c-0.5,0.9-1.7,1.3-2.7,0.9H1571.8z M1571,578.1h-0.2H1571
					L1571,578.1z M1345.4,269.8h-0.3c0-0.1,0-0.3,0-0.4s0.2,0,0.2,0C1345.5,269.5,1345.5,269.7,1345.4,269.8L1345.4,269.8z
					 M1347.1,269.3c-0.3,0.1-0.6-0.1-0.7-0.4c0.4-0.3,0.9-0.2,1.3-0.3C1347.8,269.1,1347.5,269.2,1347.1,269.3L1347.1,269.3z
					 M1356.5,276.9c0,0,0.2,0.3,0.3,0.4s-0.4,0.8-0.5,1.2c-0.1,0.4-0.2,0-0.2,0c0-0.4-0.1-0.9-0.3-1.3l-0.7-0.3c0-0.3,0-0.6,0.3-0.8
					c0.2-0.1,0.5,0,0.6,0.2C1356.1,276.5,1356.3,276.7,1356.5,276.9L1356.5,276.9z M1362,277.1c0,0,0,0-0.2,0c-0.1,0-0.2,0-0.3,0
					c0-0.2,0-0.3,0.3-0.2C1362.1,277,1362,277.1,1362,277.1z M1562.2,537.2c0,0-0.1,0.3-0.2,0.3c-0.7,0.3-1-0.2-1.7-0.7
					c0-1.6,0-3,0-4.4c0.8-0.9,1.2,0,1.7,0C1562.5,534,1562.6,535.6,1562.2,537.2L1562.2,537.2L1562.2,537.2z M1560.9,538.4
					c0.6,0.6,0.5,1.6-0.2,2.2l0,0c-0.3,0.3-0.8,0.3-1.1,0C1559.2,539.4,1559.6,538.8,1560.9,538.4L1560.9,538.4z M1367.1,271.5
					c-0.6-0.5-0.5-0.9-0.3-1.2c0.2-0.2,0.5-0.2,0.7,0C1367.8,270.9,1367.3,271.1,1367.1,271.5z M1361.1,256.5c0.2,0,0.3,0,0.3,0.3
					c-0.1,0.1-0.2,0.2-0.3,0.1l-0.1-0.1C1360.9,256.9,1361.1,256.5,1361.1,256.5L1361.1,256.5z M1359.9,257.6c0.4,0.5,0,0.8,0,1.3
					c-0.6-0.4-0.8-0.8-0.6-1.3l0,0H1359.9z M1363.3,264c-0.2,0-0.3,0-0.2-0.3c0-0.3,0-0.2,0.3,0
					C1363.4,263.8,1363.4,263.9,1363.3,264L1363.3,264z M1370.3,267.5c0.1,0.9,0,1.9-0.4,2.7c-0.2,0.1-0.3,0.1-0.5,0.2
					c-0.1,0-0.3,0-0.4,0c-0.1-0.1-0.1-0.2-0.2-0.4c0-0.6,0.2-1.2,0.5-1.7c0-0.4,0-0.9,0-1.3C1369.9,266.8,1370.1,267.1,1370.3,267.5
					z M1373.3,266c0,0.4-0.4,0.4-0.6,0.6c-0.3-0.1-0.5-0.3-0.7-0.4c-0.4-0.3-0.7-0.6-1-1c0.5-0.4,0.5-0.4,1.6-0.4
					c0.2,0.1,0.2,0.3,0.2,0.5c0.3,0.3,0.6,0.3,0.8,0.6L1373.3,266z M1362.7,248.7c-0.3,0.5-0.3,0.5-1,0l-0.2-0.2l-0.2-0.8
					c0.6,0.2,0.8,1,1.5,1.1L1362.7,248.7z M1376.6,266.2c0,0.4-0.1,0.7-0.4,1c-0.4,0.1-0.7-0.1-1-0.4s-0.4-0.7-0.3-1
					s0.3-0.5,0.6-0.5c0.6,0,1,0.4,1.2,1L1376.6,266.2z M1372.9,263.2L1372.9,263.2L1372.9,263.2z M1365.8,253.9
					c-0.6,0.2-1.3,0.4-2.1,0.7c0.7-0.9,1.6-1.6,2.7-1.9c0.2,0.8-0.1,1.1-0.4,1.2H1365.8z M1366.7,252.7L1366.7,252.7L1366.7,252.7z
					 M1375,260.9h-1c0-0.8,0.3-1.5,1.1-1.7C1375.7,260,1375.2,260.4,1375,260.9L1375,260.9z M1374.8,256.3c-0.1-0.3-0.1-0.6,0-0.9
					c0-0.4,0.2-0.8,0.4-1l0,0C1375.3,256.1,1375.3,256.1,1374.8,256.3L1374.8,256.3z M1565.5,548c-0.4-1.1-0.4-2.3,0-3.3
					c0.3-0.4,0.5-0.7,1-0.6s0.3,0.5,0.3,0.7c0,1,0,2-0.2,3L1565.5,548z M1348.6,261.9c-0.2,0-0.4-0.1-0.4-0.4v-0.1
					c0.4,0,0.5,0.2,0.6,0.4h-0.2V261.9z M1580.9,538.9c-1,0.3-1.9,0.4-2.4-1.3c0.7-1.7,1.4-3.4,3.6-3.4c0.3,0.5,0.5,0.9,0.7,1.4
					c0,0.5,0,1.1,0.2,1.6c-0.3,0.9-1,1.5-1.9,1.7H1580.9z M1569.9,567.2c0.6-0.5,1.2-1,1.8-1.3c0,1.1-0.5,2.1-1.3,2.7
					C1569.6,568.3,1569.5,567.7,1569.9,567.2z M1655.7,617v-0.9c2.5-2.2,2.5-2.2,4.2-1.2v1.2c-2.2,1.3-2.1,1.3-4.2,0.8V617z
					 M1653.1,464.6c0,0.3,0,0.4,0,0.5c-0.3,0.3-0.8,0.4-1.2,0.2C1652,464.7,1652.4,464.6,1653.1,464.6L1653.1,464.6z M1649.4,461.3
					c0,0.3-0.1,0.4-0.4,0.3C1648.7,461.5,1649.1,461.1,1649.4,461.3L1649.4,461.3z M1676.3,614c-0.8,0.8-1.6,1.2-2.6,0.2
					c0.6-0.7,1.7-0.9,2.6-0.4l0.6-0.4C1677.2,614.2,1676.7,613.9,1676.3,614L1676.3,614z M1681,612.8c0.4-0.2,0.7,0,0.7,0.4
					S1681,613.2,1681,612.8L1681,612.8z M1632,465.7c0.8-0.2,1.6,0.3,1.9,1c0,0.2,0,0.5,0,0.7c0,0.3-0.3,0.6-0.4,0.9
					c-0.2,0-0.4,0-0.6,0c-0.4-0.2-0.8-0.4-1.2-0.6C1631.1,466.7,1631.3,466.1,1632,465.7z"/>
				<path class="st7" d="M1466.8,415.3c79-156,29.9-291.6-35.7-363.6c-65.5-72-88.6,31.6-88.6,31.6s14,67.6,53.2,159
					S1466.8,415.3,1466.8,415.3z"/>
				<path class="st0" d="M1369.7,175.6l48.2-49.5c4.8,11.6,8.9,23.4,12.3,35.4l-45.7,53.4c0.3,0.7,0.5,1.4,0.8,2.1l45.6-53.1
					c0.6,2.2,1.2,4.5,1.9,6.8l-43.7,55.7l0.9,2.2l43.4-55.4c2,7.6,4.1,15.4,6.2,23.4c3.2,12,0,0,0,0.1c0.9,3.5,1.8,7,2.6,10.5
					l-41.5,46.8l0.9,2.1l41.3-46.5c2.9,12,5.7,24.2,8.4,36.7c-0.1,0.1-0.2,0.2-0.3,0.3l-34.4,45l0.9,2.2l34.3-44.8
					c0.8,4,1.6,8,2.4,12l-31.7,44.8l0.9,2.2l31.3-44.3c0.8,4,1.5,8,2.2,12c0,0.2,0,0.4,0,0.6c0.6,3.5,1.2,7.1,1.8,10.6
					c-0.1,0.2-0.1,0.4,0,0.6c1.2,7.4,2.3,14.9,3.3,22.5l-25.8,29.7c0.3,0.7,0.6,1.4,0.9,2.1l25.2-29c1.1,8.4,1.9,16.9,2.6,25.4
					l-19.8,23.5l0.9,2.1l19.2-22.6c0.2,2.5,0.4,5,0.5,7.4l0,0c0.3,5,0.6,10,0.7,14.9l-13.8,16.6c0.3,0.7,0.6,1.4,0.8,2.1l13.1-15.7
					c0.5,15.4,0.2,30.8-1,46.2l1.2,3c0.2-0.5,0.4-0.9,0.7-1.4c0.7-9.1,1.2-18.4,1.3-27.6l8.4,7.1c0.3-0.7,0.6-1.3,0.8-2l-9-7.8
					c0-11.2-0.2-22.5-0.9-33.8l21.7,11.4c0.2-0.7,0.4-1.3,0.7-2l-22.5-12c-1.3-19.7-3.6-39.4-6.7-58.8l41.4,22.6
					c0-0.7,0.3-1.4,0.4-2.2l-42.2-23c-0.5-3-1-6-1.5-9l45.4,20.3l0.3-2.2l-46.3-20.3c-4.8-26.7-10.6-52.6-16.7-77l63.9,23.7
					c0-0.8-0.2-1.6-0.2-2.3l-64.3-23.9c-3-11.7-6-23-9-33.8c-1-3.8-2.2-7.5-3.3-11.1l68.1,23.2c-0.2-0.8-0.4-1.6-0.7-2.4l-68.2-23.3
					c-9.4-28.3-22.3-54-35.9-80.9c-0.1-0.3-0.4-0.5-0.7-0.5c-0.2-0.1-0.4-0.1-0.7,0c-0.5,0.3-0.7,0.9-0.4,1.4
					c9.6,18.9,18.8,37.2,26.6,56.1l-48.3,49.5C1369.3,174.2,1369.5,174.9,1369.7,175.6z"/>
				<path class="st3" d="M1562.3,385.7c-107.9,0-119.3,5.7-119.3,5.7s-19.4-24.2-39.8-51.1c-10-13.2-20.9-26.5-34.1-28.4
					c-8.6-1.2,0.2,21.5-17,22.7c-62.6,4.2-196.3,17.5-187.4,102.2c11.4,107.9,215.8,62.5,221.5,204.4c1.5,38.1-22.7,73.9-22.7,73.9
					h51.1c0,0,39.8-34.1,51.1-56.8s215.8-11.4,215.8-11.4s45.4,39.8,34.1,68.1l51.1,5.7c34.9-97.6,49.9-118.4,56.8-187.4
					C1829.3,476.6,1756.2,385.7,1562.3,385.7z M1335.3,397.1c-6.3,0-11.4-5.1-11.4-11.4s5.1-11.4,11.4-11.4s11.4,5.1,11.4,11.4l0,0
					c-0.1,6.3-5.2,11.3-11.5,11.2l0,0L1335.3,397.1z"/>
				<polygon class="st3" points="1716.4,656.2 1758.2,713.8 1812.5,713.8 1763.5,601.8 				"/>
				<path class="st7" d="M1637.7,962.3c-3.4-9.7-5.7-19.7-6.9-29.9c-2-21.5,6-45,1.2-65.5c-5.2-22.9-24.5-35.9-33.8-56.5
					c-15.4-33.9-1.4-81.5-15.4-116.3c-12.2-30.5-35.3-51.3-35.9-88.9c0-13,1.2-26.4-0.8-39c-2-12.5-8.4-24.6-18.9-27.4
					c-10.6-2.8-22.1,4.2-30.6,13.6c-25.4,28.4-21.7,62.5-8,91.1c9,18.7,20.6,36.4,22.2,58.7c2,29.1-13.9,58.7-14.8,88.3
					c-1.3,41.8,26.9,72.7,35,112.3c8.1,40.4,3.2,98.6,24.4,132.7C1583.7,1012.7,1611,988.1,1637.7,962.3z"/>
				<path class="st0" d="M1567.8,727.7l-19.5,29.7l-30.7-180.6c-0.1-1.3-1.2-2.2-2.5-2.1c-0.2,0-0.3,0-0.5,0.1
					c-1.5,0.6-2.4,2.2-2.1,3.9l8.3,49l-15.7-18.2c-0.9-1-2.3-1-3.3-0.2c-0.1,0.1-0.3,0.3-0.4,0.4c-1.1,1.2-1.2,3-0.2,4.3l21.3,24.9
					l30.9,182.2l-13-17.9c-0.8-1-2.2-1.2-3.2-0.4c-0.2,0.1-0.3,0.3-0.4,0.4c-1.1,1.2-1.3,3-0.4,4.3l19.5,26.1l7,41.5l-43.3-55.6
					c-0.8-1-2.3-1.2-3.3-0.4c-0.2,0.1-0.3,0.3-0.4,0.4c-1.1,1.2-1.3,3-0.4,4.3l49.3,63.6l6,35.9l0,0l7.7,45.4
					c0.1,1.3,1.2,2.2,2.4,2.1c0.2,0,0.4-0.1,0.5-0.1c0.3,0,0.6-0.1,0.8-0.2c1.2-0.8,1.8-2.2,1.6-3.6l-7.6-44.2l28.1-52.6
					c0.8-1.4,0.5-3.1-0.7-4.1c-1.3-0.7-2.8-0.2-3.5,1c-0.1,0.1-0.1,0.2-0.1,0.3l-25.2,47.1l-25.5-150.1h0.2c0.4-0.2,0.8-0.6,1-1
					l21.1-32.1c1-1.3,0.8-3.1-0.3-4.2c-1.1-0.9-2.6-0.7-3.5,0.3C1568,727.5,1567.9,727.6,1567.8,727.7z"/>
				<path class="st4" d="M1432.3,814c0.1-0.1,0.2-0.1,0.4,0c33.7,19.5,64.9,43,93,69.9c-37.8-46.4-67.5-111-67.8-111.8
					c-0.1-0.1,0-0.3,0.1-0.4c0.1-0.1,0.3,0,0.4,0.1c36.7,36.1,62.5,81,76.3,108.5c-4-10.7-11-29.9-18.8-55.3
					c-14.9-48.3-23-90.8-23.1-91.2c0-0.1,0-0.3,0.2-0.3c0.1-0.1,0.2-0.1,0.3,0c24.7,40.4,37.8,85,44.4,115.3
					c2.6,12,4.4,22.4,5.7,31.2c-1.3-27.7-0.3-78.8,12.8-160.6c0-0.1,0.2-0.2,0.3-0.2l0,0c0.1,0,0.2,0.1,0.3,0.2
					c0,1.1,6.7,98.6-5.7,167.3c21.5-68,68-146.6,68.5-147.4c0.1-0.1,0.2-0.1,0.3,0c0.1,0,0.2,0.2,0.2,0.3
					c-9.9,48.1-32.3,95-49.8,126.7c34.2-45.1,81.8-84,82.5-84.5c0.1-0.1,0.2-0.1,0.3,0c0.1,0.1,0.1,0.2,0,0.3
					c-12,23-26.5,44.4-43.5,64c-14,15.5-28.9,30.1-44.6,43.7c43.4-31.8,105.9-60.5,106.6-60.8c0.1-0.1,0.3-0.1,0.4,0.1
					c0.1,0.1,0.1,0.3-0.1,0.4c-24.4,24.7-52.9,45.1-84.2,60.3c-5.6,2.7-10.8,5-15.5,7c36.1-6.8,85.6-4.5,86.2-4.5l0,0
					c0.1,0,0.3,0.1,0.3,0.2c0,0.1,0,0.2-0.1,0.3c-23.9,12.4-65.7,14-91.3,13.8c19.2,3.5,37.7,10,54.8,19.4c0.1,0.1,0.1,0.2,0,0.3
					c0,0.1-0.1,0.2-0.3,0.2l0,0c-43.7-3.9-69.3-16.9-74.9-20.1l-2.4,92.6c0,0.1,0,0.1,0,0.2c-0.1,0-0.1,0-0.2,0l-4.9-0.3
					c-0.1,0-0.2-0.1-0.3-0.3c0,0-0.4-12,3.3-50.9c1.6-16.3,2.6-30.6,3.3-41.6l0,0l-0.7,0.2c-8.1,3.2-34.6,12.2-78.5,14.1l0,0
					c-0.1,0-0.2-0.1-0.3-0.2c0-0.1,0.1-0.3,0.2-0.3c17.4-6.8,35.4-11.8,53.8-14.9c-27.7-2.8-54.6-10.6-79.5-22.9
					c-0.1-0.1-0.2-0.2-0.1-0.3s0.2-0.2,0.3-0.2c0.6,0,49,5.4,84.4,15.2c-39.9-23.6-92-81.7-92.6-82.3
					C1432.3,814.4,1432.2,814.2,1432.3,814z"/>
				<path class="st3" d="M1633.2,732.2c10.7,10.7-4.5,34.1,2.5,48c6.6,13,18.9,15.3,25.6,28.3c12.7,24.4-7.1,60.9-1,89.1
					c4.6,21.5,23.6,34.6,28.6,56c8.3,36-25.5,81.3-14.9,116.3c5,16.7,19.2,26.9,27.3,41.8c4.5,9.4,7.8,19.3,9.8,29.5
					c7.8-29.1,18.1-57.4,30.9-84.7c7.3-15.5,15.6-32.1,13.9-47.6c-1-9-5.1-16.3-7.2-24.7c-5.3-21.9,4.1-47.4,11.3-71.3
					c7.1-23.9,11.4-51.6-2.4-67.7c-5.2-6-12.4-9.8-17.9-15.6c-12.2-13-13.7-34.1-16.6-53.4c-2.8-19.3-9.2-39.8-26.2-45.7
					c-10.8-3.8-25.6-1.7-31.4-11.8c-3.5-6-2.3-14.9-6-20.9c-8.7-13.8-34.9-8.4-45.5-15.3C1624.3,693.7,1610.3,709.4,1633.2,732.2z"
					/>
				<path class="st9" d="M1713.6,1099L1713.6,1099c0.9,0,1.8-0.6,2-1.5c14.1-50.5,19.7-103,16.8-155.4l32.5-51.6
					c0.4-2.3,0.7-4.7,0.9-7L1732,937c-1.3-19.1-3.9-38-7.6-56.8l0,0c-1.1-5.3-2.2-10.7-3.5-16c-5.8-24.1-13.8-47.6-23.9-70.3
					c5.4-12.8,12-29.9,17.9-45.4c-0.6-1.2-1.2-2.4-1.9-3.5c-5.8,15.1-12.4,32-17.9,45.2c-1-2.2-2.1-4.5-3.2-6.7
					c6-17.7,10.8-33.8,14.3-47c-0.8-0.7-1.7-1.5-2.6-2.1c-3.3,12.6-7.7,28.1-13.6,45.3c-17.7-35.7-41.9-67.8-71.2-94.8
					c-1.8-0.5-3.6-1.2-5.2-2.2c1.5,1.5,2.6,3.4,3.3,5.4c14.1,12.9,27.1,27.2,38.6,42.5l-29.2-6.2c1,1.4,2.1,3,3.4,4.3l29,6
					c11.4,15.8,21.5,32.5,30.1,49.9c0,0.1,0,0.2,0,0.3c1.6,3.3,3.2,6.6,4.7,9.9c0,0.1,0,0.2,0,0.3c10.2,22.6,18.3,46.2,24,70.3
					c1,4,1.9,8,2.7,12l-57.1-28.3c-0.2,1.3-0.4,2.5-0.6,3.7l58.6,29.1c4,19.8,6.5,39.9,7.7,60.1c0,0.1,0,0.2,0,0.3
					c2.9,52.1-2.7,104.3-16.7,154.6c-0.3,0.7,0.1,1.6,0.9,1.8C1713.2,1099,1713.4,1099,1713.6,1099z"/>
			</g>
		</g>
	</g>
</g>
</svg>
