<svg id="Layer_1" data-name="Layer 1" xmlns="http://www.w3.org/2000/svg" viewBox="0 0 39.62 39.62"><defs><style>.cls-1{fill:#fff;fill-rule:evenodd;}</style></defs><title>Artboard 1</title><path class="cls-1" d="M19.86,4.49c-3.83,0-4.37,0-6,.1a11.21,11.21,0,0,0-3.73.71A7.84,7.84,0,0,0,5.68,9.79,11.21,11.21,0,0,0,5,13.52c-.08,1.64-.09,2.16-.09,6.33s0,4.7.09,6.34a11.21,11.21,0,0,0,.71,3.73,7.84,7.84,0,0,0,4.49,4.49,11.21,11.21,0,0,0,3.73.71c1.64.08,2.16.09,6.34.09s4.69,0,6.33-.09a11.21,11.21,0,0,0,3.73-.71,7.84,7.84,0,0,0,4.49-4.49,11.21,11.21,0,0,0,.71-3.73c.08-1.59.09-2.13.1-6v-.76c0-3.82,0-4.36-.1-5.95a11.21,11.21,0,0,0-.71-3.73A7.84,7.84,0,0,0,30.3,5.3a11.21,11.21,0,0,0-3.73-.71c-1.59-.08-2.13-.09-5.95-.1Zm10.42,7.17a1.85,1.85,0,1,1-1.85-1.85,1.85,1.85,0,0,1,1.85,1.85ZM20.24,25a5.12,5.12,0,1,1,5.12-5.12A5.12,5.12,0,0,1,20.24,25Zm0-13a7.89,7.89,0,1,1-7.89,7.88A7.88,7.88,0,0,1,20.24,12Zm0-4.71c4.1,0,4.58,0,6.2.09a8.51,8.51,0,0,1,2.85.53,5.08,5.08,0,0,1,2.92,2.92,8.51,8.51,0,0,1,.53,2.85c.07,1.62.09,2.1.09,6.2s0,4.59-.09,6.21a8.51,8.51,0,0,1-.53,2.85,5.08,5.08,0,0,1-2.92,2.92,8.51,8.51,0,0,1-2.85.53c-1.62.07-2.1.09-6.2.09s-4.59,0-6.21-.09a8.51,8.51,0,0,1-2.85-.53,5.08,5.08,0,0,1-2.92-2.92,8.51,8.51,0,0,1-.53-2.85c-.07-1.62-.09-2.1-.09-6.21s0-4.58.09-6.2a8.51,8.51,0,0,1,.53-2.85,5.08,5.08,0,0,1,2.92-2.92A8.51,8.51,0,0,1,14,7.35C15.65,7.28,16.13,7.26,20.24,7.26Z"/></svg>