<svg id="Layer_1" data-name="Layer 1" xmlns="http://www.w3.org/2000/svg" viewBox="0 0 39.62 39.62"><defs><style>.cls-1{fill:#fff;fill-rule:evenodd;}</style></defs><title>Artboard 1 copy</title><path class="cls-1" d="M34.88,12.9c-.26-2.24-.8-2.89-1.17-3.19A6.26,6.26,0,0,0,30.52,9c-2.37-.16-6.37-.26-10.71-.26S11.46,8.81,9.1,9a6.26,6.26,0,0,0-3.19.74c-.38.3-.91.95-1.18,3.19a83.91,83.91,0,0,0,0,13.82c.27,2.24.8,2.89,1.18,3.19a6.26,6.26,0,0,0,3.19.74c2.36.16,6.37.26,10.71.26s8.34-.1,10.71-.26a6.26,6.26,0,0,0,3.19-.74c.37-.3.91-.95,1.17-3.19a83.91,83.91,0,0,0,0-13.82ZM16.1,24.64h0V15l9.27,4.83Z"/></svg>