<?xml version="1.0" encoding="utf-8"?>
<!-- Generator: Adobe Illustrator 24.0.3, SVG Export Plug-In . SVG Version: 6.00 Build 0)  -->
<svg version="1.1" id="Capa_1" xmlns="http://www.w3.org/2000/svg" xmlns:xlink="http://www.w3.org/1999/xlink" x="0px" y="0px"
	 viewBox="0 0 39.6 39.6" style="enable-background:new 0 0 39.6 39.6;" xml:space="preserve">
<style type="text/css">
	.st0{fill:#FFFFFF;}
</style>
<g>
	<path class="st0" d="M11.9,33.6V15H5.8v18.6H11.9L11.9,33.6z M8.9,12.5c2.2,0,3.5-1.4,3.5-3.2S11.1,6,8.9,6S5.4,7.5,5.4,9.3
		S6.8,12.5,8.9,12.5L8.9,12.5L8.9,12.5z M15.4,33.6h6.1V23.3c0-0.6,0-1.1,0.2-1.6c0.5-1.1,1.4-2.3,3.1-2.3c2.3,0,3.1,1.7,3.1,4.2
		v9.9h6.2V22.9c0-5.7-3-8.4-7.1-8.4c-3.4,0-4.8,1.9-5.6,3.1l0,0V15h-6.1C15.5,16.7,15.4,33.6,15.4,33.6L15.4,33.6z"/>
</g>
</svg>
